SplineFontDB: 3.2
FontName: OcodoMono-Bold
FullName: OcodoMono
FamilyName: OcodoMono
Weight: Bold
Copyright: Copyright (c) 2023 Ocodo/Jason Milkins :, ocodo.github.io  All rights reserved.
Version: 1.340;info.ocodo.fonts.ocodomono.v1.34
ItalicAngle: 0
UnderlinePosition: -124
UnderlineWidth: 25
Ascent: 783
Descent: 217
InvalidEm: 0
sfntRevision: 0x00010000
LayerCount: 2
Layer: 0 1 "Back" 1
Layer: 1 1 "Fore" 0
XUID: [1021 515 1217653088 999156]
StyleMap: 0x0040
FSType: 0
OS2Version: 4
OS2_WeightWidthSlopeOnly: 0
OS2_UseTypoMetrics: 0
CreationTime: 1364125971
ModificationTime: 1749304377
PfmFamily: 17
TTFWeight: 100
TTFWidth: 5
LineGap: 200
VLineGap: 0
Panose: 2 0 8 6 5 0 0 2 0 4
OS2TypoAscent: 783
OS2TypoAOffset: 0
OS2TypoDescent: -217
OS2TypoDOffset: 0
OS2TypoLinegap: 200
OS2WinAscent: 963
OS2WinAOffset: 0
OS2WinDescent: 237
OS2WinDOffset: 0
HheadAscent: 783
HheadAOffset: 0
HheadDescent: -217
HheadDOffset: 0
OS2SubXSize: 700
OS2SubYSize: 650
OS2SubXOff: 0
OS2SubYOff: 140
OS2SupXSize: 700
OS2SupYSize: 650
OS2SupXOff: 0
OS2SupYOff: 477
OS2StrikeYSize: 25
OS2StrikeYPos: 250
OS2CapHeight: 696
OS2XHeight: 495
OS2Vendor: 'ocdo'
OS2CodePages: 00000093.00000000
OS2UnicodeRanges: 800000bf.5000204a.00000000.00000000
MarkAttachClasses: 1
DEI: 91125
ShortTable: maxp 16
  1
  0
  385
  88
  7
  0
  0
  2
  0
  1
  1
  0
  64
  0
  0
  0
EndShort

StartChar: .notdef
Encoding: 65536 -1 0
Width: 550
GlyphClass: 1
Flags: W
LayerCount: 2
Fore
SplineSet
46.8578643763 -14.1421356237 m 1,0,-1
 46.8578643763 714.142135624 l 1,1,-1
 61 714.142135624 l 1,2,-1
 66.8578643763 714.142135624 l 1,3,-1
 66.8578643763 722.880085708 l 1,4,-1
 71.7152962553 714.142135624 l 1,5,-1
 475.189492134 714.142135624 l 1,6,-1
 483.142135624 728.67014915 l 1,7,-1
 483.142135624 714.142135624 l 1,8,-1
 489 714.142135624 l 1,9,-1
 503.142135624 714.142135624 l 1,10,-1
 503.142135624 -14.1421356237 l 1,11,-1
 489 -14.1421356237 l 1,12,-1
 483.142135624 -14.1421356237 l 1,13,-1
 483.142135624 -24.0380983963 l 1,14,-1
 477.657995264 -14.1421356237 l 1,15,-1
 71.0846830485 -14.1421356237 l 1,16,-1
 66.8578643763 -21.7220730192 l 1,17,-1
 66.8578643763 -14.1421356237 l 1,18,-1
 61 -14.1421356237 l 1,19,-1
 46.8578643763 -14.1421356237 l 1,0,-1
275 305.211399745 m 1,20,-1
 126.897500321 35.1421356237 l 1,21,-1
 423.102499679 35.1421356237 l 1,22,-1
 275 305.211399745 l 1,20,-1
126.897500321 664.857864376 m 1,23,-1
 275 394.788600255 l 1,24,-1
 423.102499679 664.857864376 l 1,25,-1
 126.897500321 664.857864376 l 1,23,-1
95.1421356237 79.7220730192 m 1,26,-1
 245.857864376 350 l 1,27,-1
 95.1421356237 621.119914292 l 1,28,-1
 95.1421356237 79.7220730192 l 1,26,-1
95.1421356237 29 m 1,29,-1
 86.8569090712 14.1421356237 l 1,30,-1
 87.0971000409 14.1421356237 l 1,31,-1
 90.8578643763 21 l 1,32,-1
 95.1421356237 29 l 1,29,-1
454.857864376 625.32985085 m 1,33,-1
 304.142135624 350 l 1,34,-1
 454.857864376 78.0380983963 l 1,35,-1
 454.857864376 625.32985085 l 1,33,-1
EndSplineSet
EndChar

StartChar: exclam
Encoding: 33 33 4
Width: 550
GlyphClass: 2
Flags: W
LayerCount: 2
Fore
SplineSet
293 -14.1421356237 m 1,0,-1
 257 -14.1421356237 l 1,1,-1
 242.857864376 -14.1421356237 l 1,2,-1
 242.857864376 2.6645352591e-15 l 1,3,-1
 242.857864376 41 l 1,4,-1
 242.857864376 55.1421356237 l 1,5,-1
 257 55.1421356237 l 1,6,-1
 293 55.1421356237 l 1,7,-1
 307.142135624 55.1421356237 l 1,8,-1
 307.142135624 41 l 1,9,-1
 307.142135624 8.881784197e-16 l 1,10,-1
 307.142135624 -14.1421356237 l 1,11,-1
 293 -14.1421356237 l 1,0,-1
268 179.857864376 m 1,12,-1
 254.026893886 179.857864376 l 1,13,-1
 247.688834867 710.142135624 l 1,14,-1
 262 710.142135624 l 1,15,-1
 291 710.142135624 l 1,16,-1
 305.339336718 710.142135624 l 1,17,-1
 297.944934529 179.857864376 l 1,18,-1
 284 179.857864376 l 1,19,-1
 268 179.857864376 l 1,12,-1
271.142135624 14.1421356237 m 1,20,-1
 278.857864376 14.1421356237 l 1,21,-1
 278.857864376 26.8578643763 l 1,22,-1
 271.142135624 26.8578643763 l 1,23,-1
 271.142135624 14.1421356237 l 1,20,-1
276.311165133 681.857864376 m 1,24,-1
 276.660663282 681.857864376 l 1,25,-1
 276.311165133 681.857864376 l 1,24,-1
EndSplineSet
EndChar

StartChar: quotedbl
Encoding: 34 34 5
Width: 550
GlyphClass: 2
Flags: W
LayerCount: 2
Fore
SplineSet
326 710.142135624 m 1,0,-1
 340.705006693 710.142135624 l 1,1,-1
 331.579264554 480.857864376 l 1,2,-1
 318 480.857864376 l 1,3,-1
 304 480.857864376 l 1,4,-1
 290.420735446 480.857864376 l 1,5,-1
 281.294993307 710.142135624 l 1,6,-1
 296 710.142135624 l 1,7,-1
 326 710.142135624 l 1,0,-1
251 710.142135624 m 1,8,-1
 265.705006693 710.142135624 l 1,9,-1
 256.579264554 480.857864376 l 1,10,-1
 243 480.857864376 l 1,11,-1
 229 480.857864376 l 1,12,-1
 215.420735446 480.857864376 l 1,13,-1
 206.294993307 710.142135624 l 1,14,-1
 221 710.142135624 l 1,15,-1
 251 710.142135624 l 1,8,-1
311.294993307 681.857864376 m 1,16,-1
 310.705006693 681.857864376 l 1,17,-1
 311 674.446157546 l 1,18,-1
 311.294993307 681.857864376 l 1,16,-1
236.294993307 681.857864376 m 1,19,-1
 235.705006693 681.857864376 l 1,20,-1
 236 674.446157546 l 1,21,-1
 236.294993307 681.857864376 l 1,19,-1
EndSplineSet
EndChar

StartChar: numbersign
Encoding: 35 35 6
Width: 550
GlyphClass: 2
Flags: W
LayerCount: 2
Fore
SplineSet
351.876598999 438.857864376 m 1,0,-1
 218.229189742 438.857864376 l 1,1,-1
 194.055081505 260.142135624 l 1,2,-1
 326.839129754 260.142135624 l 1,3,-1
 351.876598999 438.857864376 l 1,0,-1
508.142135624 486.142135624 m 1,4,-1
 508.142135624 472 l 1,5,-1
 508.142135624 453 l 1,6,-1
 508.142135624 438.857864376 l 1,7,-1
 400.160870246 438.857864376 l 1,8,-1
 375.123401001 260.142135624 l 1,9,-1
 478.142135624 260.142135624 l 1,10,-1
 478.142135624 246 l 1,11,-1
 478.142135624 228 l 1,12,-1
 478.142135624 213.857864376 l 1,13,-1
 369.405382126 213.857864376 l 1,14,-1
 341.405382126 -14.1421356237 l 1,15,-1
 329 -14.1421356237 l 1,16,-1
 306 -14.1421356237 l 1,17,-1
 289.935030147 -14.1421356237 l 1,18,-1
 320.935030147 213.857864376 l 1,19,-1
 188.157274484 213.857864376 l 1,20,-1
 156.157274484 -14.1421356237 l 1,21,-1
 144 -14.1421356237 l 1,22,-1
 122 -14.1421356237 l 1,23,-1
 105.810976325 -14.1421356237 l 1,24,-1
 138.810976325 213.857864376 l 1,25,-1
 40.8578643763 213.857864376 l 1,26,-1
 40.8578643763 228 l 1,27,-1
 40.8578643763 246 l 1,28,-1
 40.8578643763 260.142135624 l 1,29,-1
 144.907449249 260.142135624 l 1,30,-1
 170.808279503 438.857864376 l 1,31,-1
 70.8578643763 438.857864376 l 1,32,-1
 70.8578643763 453 l 1,33,-1
 70.8578643763 472 l 1,34,-1
 70.8578643763 486.142135624 l 1,35,-1
 176.760393832 486.142135624 l 1,36,-1
 206.760393832 709.142135624 l 1,37,-1
 219 709.142135624 l 1,38,-1
 238 709.142135624 l 1,39,-1
 254.04466508 709.142135624 l 1,40,-1
 224.04466508 486.142135624 l 1,41,-1
 357.887229129 486.142135624 l 1,42,-1
 389.887229129 709.142135624 l 1,43,-1
 402 709.142135624 l 1,44,-1
 420 709.142135624 l 1,45,-1
 436.04466508 709.142135624 l 1,46,-1
 406.04466508 486.142135624 l 1,47,-1
 508.142135624 486.142135624 l 1,4,-1
EndSplineSet
EndChar

StartChar: dollar
Encoding: 36 36 7
Width: 550
GlyphClass: 2
Flags: W
LayerCount: 2
Fore
SplineSet
281.857864376 -102.142135624 m 1,0,-1
 281.857864376 778.142135624 l 1,1,-1
 296 778.142135624 l 1,2,-1
 317 778.142135624 l 1,3,-1
 331.142135624 778.142135624 l 1,4,-1
 331.142135624 708.163045776 l 1,5,6
 396.693426557 697.764679192 396.693426557 697.764679192 450 666.142135624 c 2,7,-1
 466.434164357 656.393055073 l 1,8,-1
 464.142135624 652 l 1,9,-1
 452.142135624 629 l 1,10,-1
 443.235736463 611.929401609 l 1,11,-1
 438 614.857864376 l 2,12,13
 385.747589392 644.083788953 385.747589392 644.083788953 331.142135624 654.485368244 c 1,14,-1
 331.142135624 373.877833544 l 1,15,16
 359.899916656 364.836292491 359.899916656 364.836292491 382.949958328 353.989214058 c 128,-1,17
 406 343.142135624 406 343.142135624 431 322.642135624 c 0,18,19
 435.6875 318.798385624 435.6875 318.798385624 454.077682499 300.408203125 c 128,-1,20
 472.485885624 282 472.485885624 282 483.814010624 253 c 128,-1,21
 495.142135624 224 495.142135624 224 495.142135624 180 c 0,22,23
 495.142135624 100.355263158 495.142135624 100.355263158 443.344784516 48.5579120499 c 2,24,-1
 429.202648892 34.4157764261 l 2,25,26
 391.274994292 -3.51187817398 391.274994292 -3.51187817398 331.142135624 -13.2687514938 c 1,27,-1
 331.142135624 -102.142135624 l 1,28,-1
 317 -102.142135624 l 1,29,-1
 296 -102.142135624 l 1,30,-1
 281.857864376 -102.142135624 l 1,0,-1
261.142135624 778.142135624 m 1,31,-1
 261.142135624 -102.142135624 l 1,32,-1
 247 -102.142135624 l 1,33,-1
 226 -102.142135624 l 1,34,-1
 211.857864376 -102.142135624 l 1,35,-1
 211.857864376 -14.5003759105 l 1,36,37
 133.641452564 -3.60031602658 133.641452564 -3.60031602658 63 46.8578643763 c 2,38,-1
 46.8845431264 58.3689050002 l 1,39,-1
 48.8578643763 61 l 1,40,-1
 63.8578643763 81 l 1,41,-1
 75.6752653769 96.7565346675 l 1,42,43
 143.284611032 49.8056001851 143.284611032 49.8056001851 211.857864376 38.1776484539 c 1,44,-1
 211.857864376 355.436097581 l 1,45,46
 153.84971219 375.476683655 153.84971219 375.476683655 121.463836862 407.862558982 c 2,47,-1
 107.321701239 422.004694606 l 2,48,49
 71.8578643763 457.468531469 71.8578643763 457.468531469 71.8578643763 524.734265734 c 0,50,51
 71.8578643763 601.637795276 71.8578643763 601.637795276 119.889980441 649.66991134 c 2,52,-1
 134.032116064 663.812046964 l 2,53,54
 165.112744006 694.892674906 165.112744006 694.892674906 211.857864376 705.467058216 c 1,55,-1
 211.857864376 778.142135624 l 1,56,-1
 226 778.142135624 l 1,57,-1
 247 778.142135624 l 1,58,-1
 261.142135624 778.142135624 l 1,31,-1
126.141503263 524.551171783 m 0,59,60
 126.141503263 524.275837765 126.141503263 524.275837765 126.142135624 524 c 0,61,62
 126.142135624 472.96633411 126.142135624 472.96633411 150.226514346 443.525559611 c 1,63,64
 174.027068012 423.401203392 174.027068012 423.401203392 211.857864376 410.551787364 c 1,65,-1
 211.857864376 651.591630246 l 1,66,67
 181.271098268 643.005258397 181.271098268 643.005258397 157.805660496 622.550006459 c 1,68,69
 126.141503263 586.16261084 126.141503263 586.16261084 126.141503263 524.551171783 c 0,59,60
405.695300824 73.524553438 m 1,70,71
 440.857864164 114.201982045 440.857864164 114.201982045 440.857864376 178 c 128,-1,72
 440.857864376 241.960896399 440.857864376 241.960896399 412.053588484 276.722937871 c 1,73,74
 380.787129359 303.731085557 380.787129359 303.731085557 331.142135624 320.421459301 c 1,75,-1
 331.142135624 39.3366747111 l 1,76,77
 375.881727758 47.7892346141 375.881727758 47.7892346141 405.695300824 73.524553438 c 1,70,71
433.29683066 647.091352043 m 1,78,79
 416.424616306 655.75957609 416.424616306 655.75957609 398.408083959 662.444315128 c 1,80,81
 415.700511135 655.234603825 415.700511135 655.234603825 432.743732024 646.031246326 c 1,82,-1
 433.29683066 647.091352043 l 1,78,79
382.4850169 325.910494413 m 1,83,84
 404.636207408 313.036540461 404.636207408 313.036540461 419.974593919 297.698153949 c 2,85,-1
 434.116729543 283.556018326 l 2,86,87
 448.432114926 269.240632943 448.432114926 269.240632943 456.896597348 248.994195123 c 1,88,89
 448.393644724 274.359553179 448.393644724 274.359553179 432.560072257 293.057095028 c 1,90,91
 408.869016731 313.142311598 408.869016731 313.142311598 382.4850169 325.910494413 c 1,83,84
443.074481574 85.278278782 m 1,92,93
 436.01401161 75.0426076934 436.01401161 75.0426076934 427.148084464 66.1766805473 c 2,94,-1
 413.00594884 52.0345449236 l 2,95,96
 403.99362351 43.0222195941 403.99362351 43.0222195941 393.426501498 35.8101857895 c 1,97,98
 408.868148742 44.3378443573 408.868148742 44.3378443573 421.938597004 55.8737412004 c 0,99,100
 434.104809138 69.633237161 434.104809138 69.633237161 443.074481574 85.278278782 c 1,92,93
79.4080319554 64.0211951088 m 1,101,102
 98.496381512 51.772028824 98.496381512 51.772028824 118.124383166 42.34104399 c 1,103,104
 99.0918275875 52.4065757182 99.0918275875 52.4065757182 80.3303836419 65.2509973575 c 1,105,-1
 79.4080319554 64.0211951088 l 1,101,102
165.77053555 403.820797379 m 1,106,107
 152.534003573 412.299470239 152.534003573 412.299470239 142.430696014 422.402778118 c 0,108,109
 127.565181449 437.268292683 127.565181449 437.268292683 126.857864376 438 c 0,110,111
 117.252024464 447.937075772 117.252024464 447.937075772 110.827983051 460.726798543 c 1,112,113
 117.806936488 442.665454705 117.806936488 442.665454705 129.343860794 428.854110885 c 0,114,115
 145.207508779 415.081585723 145.207508779 415.081585723 165.77053555 403.820797379 c 1,106,107
115.914495114 603.194552723 m 1,116,117
 123.842745784 617.348517771 123.842745784 617.348517771 136.403318922 629.909090909 c 2,118,-1
 150.545454545 644.051226533 l 2,119,120
 164.557220852 658.06299284 164.557220852 658.06299284 181.371269327 667.404288926 c 1,121,122
 159.054056044 657.859514822 159.054056044 657.859514822 141.305863296 642.333477751 c 0,123,124
 125.704189131 624.540785138 125.704189131 624.540785138 115.914495114 603.194552723 c 1,116,117
EndSplineSet
EndChar

StartChar: percent
Encoding: 37 37 8
Width: 550
GlyphClass: 2
Flags: W
LayerCount: 2
Fore
SplineSet
476.857864376 199 m 2,0,1
 476.857864376 229.304058108 476.857864376 229.304058108 460.560236436 250.396413589 c 1,2,3
 439.147982165 266.857863924 439.147982165 266.857863924 406.017484343 266.85786415 c 128,-1,4
 372.886986522 266.857864376 372.886986522 266.857864376 350.250283076 249.260856023 c 1,5,6
 334.142135624 228.184348941 334.142135624 228.184348941 334.142135624 199.502325396 c 2,7,8
 334.142135624 199.502325396 334.142135624 199.502325396 334.142135624 97 c 0,9,10
 334.142135624 66.5000624031 334.142135624 66.5000624031 351.368917483 44.6135158797 c 1,11,12
 373.818836102 27.140997815 373.818836102 27.140997815 406.472328384 27.140997815 c 0,13,14
 406.735831964 27.140997815 406.735831964 27.140997815 407 27.1421356237 c 0,15,16
 439.751017533 27.1421356237 439.751017533 27.1421356237 460.05928234 42.1372477879 c 1,17,18
 476.857863733 64.2946511017 476.857863733 64.2946511017 476.857864376 97 c 2,19,-1
 476.857864376 199 l 2,0,1
488.672049212 6.21618809791 m 2,20,21
 457.31372549 -25.1421356237 457.31372549 -25.1421356237 408.656862745 -25.1421356237 c 0,22,23
 353.934579439 -25.1421356237 353.934579439 -25.1421356237 321.758756223 7.03368759227 c 2,24,-1
 307.6166206 21.175823216 l 2,25,26
 281.857864376 46.9345794393 281.857864376 46.9345794393 281.857864376 90 c 2,27,-1
 281.857864376 204 l 2,28,29
 281.857864376 246.076190476 281.857864376 246.076190476 307.504304286 271.722630385 c 0,30,31
 324.647619048 288.865945148 324.647619048 288.865945148 328 291.642135624 c 0,32,33
 360 318.142135624 360 318.142135624 406.5 318.142135624 c 0,34,35
 457.893203883 318.142135624 457.893203883 318.142135624 489.180789895 286.854549612 c 2,36,-1
 503.322925519 272.712413988 l 2,37,38
 529 247 529 247 529.142135624 204 c 2,39,-1
 529.142135624 90 l 2,40,41
 529.142135624 46.6862745098 529.142135624 46.6862745098 502.814184836 20.3583237216 c 2,42,-1
 488.672049212 6.21618809791 l 2,20,21
52 -31.1421356237 m 1,43,-1
 27 -31.1421356237 l 1,44,-1
 3.61033930357 -31.1421356237 l 1,45,-1
 500.105389449 728.142135624 l 1,46,-1
 505 728.142135624 l 1,47,-1
 532 728.142135624 l 1,48,-1
 555.42835327 728.142135624 l 1,49,-1
 56.8559179775 -31.1421356237 l 1,50,-1
 52 -31.1421356237 l 1,43,-1
218.857864376 601 m 2,51,52
 218.857864376 631.304058108 218.857864376 631.304058108 202.560236436 652.396413589 c 1,53,54
 181.147982165 668.857863924 181.147982165 668.857863924 148.017484343 668.85786415 c 128,-1,55
 114.886986522 668.857864376 114.886986522 668.857864376 92.2502830759 651.260856023 c 1,56,57
 76.1421356237 630.184348941 76.1421356237 630.184348941 76.1421356237 601.502325396 c 2,58,59
 76.1421356237 601.502325396 76.1421356237 601.502325396 76.1421356237 499 c 0,60,61
 76.1421356237 468.500062403 76.1421356237 468.500062403 93.3689174833 446.61351588 c 1,62,63
 115.818836102 429.140997815 115.818836102 429.140997815 148.472328384 429.140997815 c 0,64,65
 148.735831964 429.140997815 148.735831964 429.140997815 149 429.142135624 c 0,66,67
 181.751017533 429.142135624 181.751017533 429.142135624 202.05928234 444.137247788 c 1,68,69
 218.857863733 466.294651102 218.857863733 466.294651102 218.857864376 499 c 2,70,-1
 218.857864376 601 l 2,51,52
230.672049212 408.216188098 m 2,71,72
 199.31372549 376.857864376 199.31372549 376.857864376 150.656862745 376.857864376 c 0,73,74
 95.9345794393 376.857864376 95.9345794393 376.857864376 63.7587562233 409.033687592 c 2,75,-1
 49.6166205995 423.175823216 l 2,76,77
 23.8578643763 448.934579439 23.8578643763 448.934579439 23.8578643763 492 c 2,78,-1
 23.8578643763 606 l 2,79,80
 23.8578643763 648.076190476 23.8578643763 648.076190476 49.5043042856 673.722630385 c 0,81,82
 66.6476190476 690.865945148 66.6476190476 690.865945148 70 693.642135624 c 0,83,84
 102 720.142135624 102 720.142135624 148.5 720.142135624 c 0,85,86
 199.893203883 720.142135624 199.893203883 720.142135624 231.180789895 688.854549612 c 2,87,-1
 245.322925519 674.712413988 l 2,88,89
 271.142135624 648.893203883 271.142135624 648.893203883 271.142135624 606 c 2,90,-1
 271.142135624 492 l 2,91,92
 271.142135624 448.68627451 271.142135624 448.68627451 244.814184836 422.358323722 c 2,93,-1
 230.672049212 408.216188098 l 2,71,72
357.200830455 12.187813937 m 1,94,95
 350.113727267 16.744138409 350.113727267 16.744138409 344 22.8578643763 c 2,96,-1
 329.857864376 37 l 2,97,98
 319.905663166 46.9522012101 319.905663166 46.9522012101 314.080391483 58.9678671848 c 1,99,100
 318.83342843 41.8384234783 318.83342843 41.8384234783 329.322853439 28.5631156134 c 0,101,102
 342.090581488 18.3062383635 342.090581488 18.3062383635 357.200830455 12.187813937 c 1,94,95
315.851698729 240.048143345 m 1,103,104
 320.92644933 249.095611987 320.92644933 249.095611987 328.578098124 256.747260774 c 0,105,106
 343.351351351 271.520514002 343.351351351 271.520514002 345.3192571 273.406423678 c 128,-1,107
 347.28716285 275.292333355 347.28716285 275.292333355 350.855716783 278.011065073 c 1,108,109
 339.300605781 272.473238015 339.300605781 272.473238015 329.210781346 264.34673743 c 0,110,111
 320.576389712 253.449765933 320.576389712 253.449765933 315.851698729 240.048143345 c 1,103,104
460.783319739 278.508509954 m 1,112,113
 464.559483174 275.58265245 464.559483174 275.58265245 482.142135624 258 c 0,114,115
 489.802303915 250.339831709 489.802303915 250.339831709 494.911247148 241.237666628 c 1,116,117
 490.157647615 254.549412135 490.157647615 254.549412135 481.604122733 265.348303907 c 0,118,119
 471.90188903 273.179503917 471.90188903 273.179503917 460.783319739 278.508509954 c 1,112,113
494.598224796 51.7986936713 m 1,120,121
 489.251039743 42.0158808633 489.251039743 42.0158808633 481.599950659 34.3647917793 c 0,122,123
 464.808292557 17.5731336772 464.808292557 17.5731336772 461.886122222 15.2521862229 c 1,124,125
 472.09710393 20.3875603375 472.09710393 20.3875603375 481.098251308 27.700635452 c 0,126,127
 489.736351652 38.5315263938 489.736351652 38.5315263938 494.598224796 51.7986936713 c 1,120,121
99.2008304549 414.187813937 m 1,128,129
 92.1137272672 418.744138409 92.1137272672 418.744138409 86 424.857864376 c 2,130,-1
 71.8578643763 439 l 2,131,132
 61.9056631662 448.95220121 61.9056631662 448.95220121 56.0803914832 460.967867185 c 1,133,134
 60.8334284301 443.838423478 60.8334284301 443.838423478 71.3228534387 430.563115613 c 0,135,136
 84.0905814875 420.306238363 84.0905814875 420.306238363 99.2008304549 414.187813937 c 1,128,129
57.8516987294 642.048143345 m 1,137,138
 62.9264493299 651.095611987 62.9264493299 651.095611987 70.5780981235 658.747260774 c 0,139,140
 85.3513513514 673.520514002 85.3513513514 673.520514002 87.3192571004 675.406423678 c 128,-1,141
 89.2871628495 677.292333355 89.2871628495 677.292333355 92.8557167832 680.011065073 c 1,142,143
 81.3006057806 674.473238015 81.3006057806 674.473238015 71.2107813456 666.34673743 c 0,144,145
 62.5763897124 655.449765933 62.5763897124 655.449765933 57.8516987294 642.048143345 c 1,137,138
202.783319739 680.508509954 m 1,146,147
 206.559483174 677.58265245 206.559483174 677.58265245 224.142135624 660 c 0,148,149
 231.802303915 652.339831709 231.802303915 652.339831709 236.911247148 643.237666628 c 1,150,151
 232.157647615 656.549412136 232.157647615 656.549412136 223.604122733 667.348303907 c 0,152,153
 213.90188903 675.179503917 213.90188903 675.179503917 202.783319739 680.508509954 c 1,146,147
236.598224796 453.798693671 m 1,154,155
 231.251039743 444.015880863 231.251039743 444.015880863 223.599950659 436.364791779 c 0,156,157
 206.808292557 419.573133677 206.808292557 419.573133677 203.886122222 417.252186223 c 1,158,159
 214.09710393 422.387560337 214.09710393 422.387560337 223.098251308 429.700635452 c 0,160,161
 231.736351652 440.531526394 231.736351652 440.531526394 236.598224796 453.798693671 c 1,154,155
EndSplineSet
EndChar

StartChar: ampersand
Encoding: 38 38 9
Width: 550
GlyphClass: 2
Flags: W
LayerCount: 2
Fore
SplineSet
212.249562051 390.616510752 m 1,0,-1
 422.142135624 115 l 1,1,2
 410.323953806 100.151515152 410.323953806 100.151515152 397.725239389 87.5528007346 c 2,3,-1
 383.583103765 73.4106651109 l 2,4,5
 360.822414907 50.6499762526 360.822414907 50.6499762526 335.514253776 35.2320011844 c 1,6,7
 371.336985067 53.1053014525 371.336985067 53.1053014525 402.839725617 82.7710121794 c 0,8,9
 408.421089593 88.6883419178 408.421089593 88.6883419178 428.806675085 112.354366455 c 1,10,-1
 504.275020881 14.1421356237 l 1,11,-1
 511.61667965 14.1421356237 l 1,12,-1
 429.857864376 117 l 1,13,14
 436.32182477 129.403815891 436.32182477 129.403815891 441.900684549 142.692731764 c 1,15,16
 440.54705056 140.313977541 440.54705056 140.313977541 426.628107306 117.388659241 c 1,17,-1
 195.857864376 419 l 2,18,19
 127.995140657 507.133407428 127.995140657 507.133407428 119.942147412 558.759576534 c 1,20,21
 126.463390535 503.384023859 126.463390535 503.384023859 186.142135624 425 c 1,22,-1
 208.142135624 397 l 1,23,-1
 210.376850107 394.155817931 l 1,24,-1
 194 382.857864376 l 2,25,26
 155.14891254 356.055531888 155.14891254 356.055531888 125.851032365 328.104397435 c 0,27,28
 93.4129581447 294.041959096 93.4129581447 294.041959096 74.8732312735 258.308202062 c 1,29,30
 91.5453651052 286.451136704 91.5453651052 286.451136704 118.506459418 313.412231405 c 2,31,-1
 132.648595041 327.554367029 l 2,32,33
 164.254545455 359.160317442 164.254545455 359.160317442 212.249562051 390.616510752 c 1,0,-1
376.450560683 94.8010334869 m 0,34,35
 385.356174657 104.318390396 385.356174657 104.318390396 393.857864376 115 c 1,36,-1
 207.753798341 359.379076612 l 1,37,38
 168.553885476 333.455468493 168.553885476 333.455468493 139.896634478 306.320879955 c 0,39,40
 76.1421366992 238.822015295 76.1421366992 238.822015295 76.1421356237 164 c 0,41,42
 76.1421356237 107.00543786 76.1421356237 107.00543786 106.42855921 71.2758113131 c 1,43,44
 153.555262438 31.1421356237 153.555262438 31.1421356237 218 31.1421356237 c 0,45,46
 308.268150304 31.1421356237 308.268150304 31.1421356237 376.450560683 94.8010334869 c 0,34,35
152.132225854 662.022293096 m 0,47,48
 123.701553598 628.684396769 123.701553598 628.684396769 119.772272518 585.948708372 c 1,49,50
 123.917847352 617.234621863 123.917847352 617.234621863 146.857864376 645.5 c 0,51,52
 149.476569412 648.726618705 149.476569412 648.726618705 166.543553646 665.793602939 c 0,53,54
 178.429612426 677.679661719 178.429612426 677.679661719 195.371520416 684.582097681 c 1,55,56
 170.26416406 677.124342216 170.26416406 677.124342216 152.132225854 662.022293096 c 0,47,48
381.512006083 655.519555878 m 1,57,58
 351.042091668 677.477834933 351.042091668 677.477834933 309.740497711 686.167306627 c 1,59,60
 346.446365283 675.329508965 346.446365283 675.329508965 376.278898302 649.763137319 c 1,61,-1
 381.512006083 655.519555878 l 1,57,58
138.683474009 21.4090015488 m 1,62,63
 115.476596875 33.3687675008 115.476596875 33.3687675008 99.01984375 49.8255206263 c 2,64,-1
 84.8777081263 63.96765625 l 2,65,66
 65.7213157968 83.1240485795 65.7213157968 83.1240485795 56.4776448392 109.240436489 c 1,67,68
 65.2791519498 76.9158118353 65.2791519498 76.9158118353 86.3080144756 52.7427572144 c 1,69,70
 109.4996496 32.4911793681 109.4996496 32.4911793681 138.683474009 21.4090015488 c 1,62,63
217 -20.1421356237 m 0,71,72
 138 -20.1421356237 138 -20.1421356237 87 23.8578643763 c 0,73,74
 82.8 27.481393788 82.8 27.481393788 64.8037467292 45.4776470588 c 0,75,76
 21.8578643763 88.4235294118 21.8578643763 88.4235294118 21.8578643763 160 c 0,77,78
 21.8578643763 252.564971751 21.8578643763 252.564971751 104.486483228 335.193590603 c 2,79,-1
 118.628618852 349.335726227 l 2,80,81
 144.245357809 374.952465184 144.245357809 374.952465184 177.803864691 399.614181417 c 1,82,-1
 157.857864376 425 l 1,83,84
 90.8578643763 513 90.8578643763 513 90.8578643763 572 c 0,85,86
 90.8578643763 626 90.8578643763 626 127.357864376 666 c 0,87,88
 129.027799017 667.830065359 129.027799017 667.830065359 144.91627152 683.718537862 c 0,89,90
 181.339869281 720.142135624 181.339869281 720.142135624 251 720.142135624 c 0,91,92
 344 720.142135624 344 720.142135624 397 671.142135624 c 2,93,-1
 411.669335461 657.579919821 l 1,94,-1
 411.142135624 657 l 1,95,-1
 391.142135624 635 l 1,96,-1
 377.719560717 620.235167602 l 1,97,98
 325 665.857864376 325 665.857864376 252 665.857864376 c 0,99,100
 201.9869793 665.857864376 201.9869793 665.857864376 174.031297456 644.115630397 c 1,101,102
 147.142135741 610.218551332 147.142135741 610.218551332 147.142135624 572 c 0,103,104
 147.142135624 519 147.142135624 519 224.142135624 419 c 2,105,-1
 422.367520878 159.924031366 l 1,106,107
 445.594801044 211.318011688 445.594801044 211.318011688 448.857864376 288 c 2,108,-1
 449.459657382 302.142135624 l 1,109,-1
 463 302.142135624 l 1,110,-1
 489 302.142135624 l 1,111,-1
 504.273506474 302.142135624 l 1,112,-1
 503.142135624 288 l 2,113,114
 495.142135624 188 495.142135624 188 458.142135624 117 c 1,115,-1
 562.38332035 -14.1421356237 l 1,116,-1
 537 -14.1421356237 l 1,117,-1
 501 -14.1421356237 l 1,118,-1
 497.724979119 -14.1421356237 l 1,119,-1
 426.75241045 78.2194263429 l 1,120,121
 425.434731755 76.8723062757 425.434731755 76.8723062757 409.967023735 61.4045982557 c 0,122,123
 328.420289855 -20.1421356237 328.420289855 -20.1421356237 217 -20.1421356237 c 0,71,72
EndSplineSet
EndChar

StartChar: quotesingle
Encoding: 39 39 10
Width: 550
GlyphClass: 2
Flags: W
LayerCount: 2
Fore
SplineSet
291 710.142135624 m 1,0,-1
 305.705006693 710.142135624 l 1,1,-1
 296.579264554 480.857864376 l 1,2,-1
 283 480.857864376 l 1,3,-1
 269 480.857864376 l 1,4,-1
 255.420735446 480.857864376 l 1,5,-1
 246.294993307 710.142135624 l 1,6,-1
 261 710.142135624 l 1,7,-1
 291 710.142135624 l 1,0,-1
276.294993307 681.857864376 m 1,8,-1
 275.705006693 681.857864376 l 1,9,-1
 276 674.446157546 l 1,10,-1
 276.294993307 681.857864376 l 1,8,-1
EndSplineSet
EndChar

StartChar: parenleft
Encoding: 40 40 11
Width: 550
GlyphClass: 2
Flags: W
LayerCount: 2
Fore
SplineSet
222.857864376 73 m 128,-1,1
 180.857864376 185 180.857864376 185 180.857864376 296 c 128,-1,2
 180.857864376 407 180.857864376 407 220.857864376 520 c 128,-1,3
 260.857864376 633 260.857864376 633 329.857864376 715 c 2,4,-1
 342.563689351 730.099676057 l 1,5,-1
 344 729.142135624 l 1,6,-1
 353 723.142135624 l 1,7,-1
 369.317848797 712.263569759 l 1,8,9
 307.142135624 619 307.142135624 619 273.642135624 512.5 c 128,-1,10
 240.142135624 406 240.142135624 406 240.142135624 299.5 c 128,-1,11
 240.142135624 193 240.142135624 193 274.142135624 85 c 128,-1,12
 308.142135624 -23 308.142135624 -23 369.725210507 -114.348227743 c 1,13,-1
 354 -126.142135624 l 1,14,-1
 346 -132.142135624 l 1,15,-1
 344.686997079 -133.126887814 l 1,16,-1
 331.857864376 -118 l 2,17,0
 264.857864376 -39 264.857864376 -39 222.857864376 73 c 128,-1,1
232.519459894 466.9393905 m 1,18,19
 209.142136459 381.093045517 209.142136459 381.093045517 209.142136041 292.032396813 c 128,-1,20
 209.142135624 202.97174811 209.142135624 202.97174811 238.744742411 108.943495946 c 1,21,22
 211.857865246 205.180957605 211.857865246 205.180957605 211.857864376 303 c 0,23,24
 211.857864376 383.890358023 211.857864376 383.890358023 232.519459894 466.9393905 c 1,18,19
EndSplineSet
EndChar

StartChar: parenright
Encoding: 41 41 12
Width: 550
GlyphClass: 2
Flags: W
LayerCount: 2
Fore
SplineSet
328.142135624 517 m 128,-1,1
 368.142135624 404 368.142135624 404 368.142135624 293.5 c 128,-1,2
 368.142135624 183 368.142135624 183 326.142135624 70.5 c 128,-1,3
 284.142135624 -42 284.142135624 -42 218.142135624 -121 c 2,4,-1
 205.494697261 -136.138600464 l 1,5,6
 39.5571560884 -26.2019736003 39.5571560884 -26.2019736003 195 -129.142135624 c 1,7,-1
 178.66528521 -118.252325764 l 1,8,9
 240.857864376 -26 240.857864376 -26 274.857864376 82 c 128,-1,10
 308.857864376 190 308.857864376 190 308.857864376 297 c 128,-1,11
 308.857864376 404 308.857864376 404 275.357864376 509.5 c 128,-1,12
 241.857864376 615 241.857864376 615 179.698759701 709.274642091 c 1,13,-1
 196 720.142135624 l 1,14,-1
 205 726.142135624 l 1,15,-1
 206.436310649 727.099676057 l 1,16,-1
 219.142135624 712 l 2,17,0
 288.142135624 630 288.142135624 630 328.142135624 517 c 128,-1,1
311.782600757 111.491620682 m 1,18,19
 339.857863991 203.24715438 339.857863991 203.24715438 339.857864183 289.756060428 c 128,-1,20
 339.857864376 376.264966477 339.857864376 376.264966477 317.485882592 460.207831836 c 1,21,22
 337.142134898 379.663850471 337.142134898 379.663850471 337.142135624 300 c 0,23,24
 337.142135624 204.999941709 337.142135624 204.999941709 311.782600757 111.491620682 c 1,18,19
EndSplineSet
EndChar

StartChar: asterisk
Encoding: 42 42 13
Width: 550
GlyphClass: 2
Flags: W
LayerCount: 2
Fore
SplineSet
356.448805906 451.701180348 m 1,0,-1
 309.950364053 507.839543073 l 1,1,-1
 350.172379892 446.680039537 l 1,2,-1
 356.448805906 451.701180348 l 1,0,-1
200.527978679 446.91975268 m 1,3,-1
 237.622954238 505.741785352 l 1,4,-1
 194.519729599 451.726351944 l 1,5,-1
 200.527978679 446.91975268 l 1,3,-1
152.095652892 595.860551804 m 1,6,-1
 191.07937566 583.816800054 l 1,7,-1
 153.286675111 599.433618463 l 1,8,-1
 152.095652892 595.860551804 l 1,6,-1
395.69698004 599.48265301 m 1,9,-1
 356.222611446 583.436161712 l 1,10,-1
 396.891465197 595.899197539 l 1,11,-1
 395.69698004 599.48265301 l 1,9,-1
260 708.142135624 m 1,12,-1
 288 708.142135624 l 1,13,-1
 302.921623414 708.142135624 l 1,14,-1
 296.263615962 587.346857559 l 1,15,-1
 412.30301996 634.51734699 l 1,16,-1
 418.142135624 617 l 1,17,-1
 428.142135624 587 l 1,18,-1
 431.108534803 578.100802461 l 1,19,-1
 310.621497657 541.177355594 l 1,20,-1
 387.551194094 448.298819652 l 1,21,-1
 372 435.857864376 l 1,22,-1
 347 415.857864376 l 1,23,-1
 343.827620108 413.319960463 l 1,24,-1
 274.29668816 519.045076165 l 1,25,-1
 207.472021321 413.08024732 l 1,26,-1
 204 415.857864376 l 1,27,-1
 179 435.857864376 l 1,28,-1
 163.480270401 448.273648056 l 1,29,-1
 237.601560225 541.15982138 l 1,30,-1
 117.904347108 578.139448196 l 1,31,-1
 120.857864376 587 l 1,32,-1
 130.857864376 617 l 1,33,-1
 136.713324889 634.566381537 l 1,34,-1
 250.894843792 587.38393571 l 1,35,-1
 245.189731985 708.142135624 l 1,36,-1
 260 708.142135624 l 1,12,-1
EndSplineSet
EndChar

StartChar: plus
Encoding: 43 43 14
Width: 550
GlyphClass: 2
Flags: W
LayerCount: 2
Fore
SplineSet
300.142135624 299.142135624 m 1,0,-1
 488.142135624 299.142135624 l 1,1,-1
 488.142135624 285 l 1,2,-1
 488.142135624 261 l 1,3,-1
 488.142135624 246.857864376 l 1,4,-1
 300.142135624 246.857864376 l 1,5,-1
 300.142135624 50.8578643763 l 1,6,-1
 286 50.8578643763 l 1,7,-1
 263 50.8578643763 l 1,8,-1
 248.857864376 50.8578643763 l 1,9,-1
 248.857864376 246.857864376 l 1,10,-1
 60.8578643763 246.857864376 l 1,11,-1
 60.8578643763 261 l 1,12,-1
 60.8578643763 285 l 1,13,-1
 60.8578643763 299.142135624 l 1,14,-1
 248.857864376 299.142135624 l 1,15,-1
 248.857864376 492.142135624 l 1,16,-1
 263 492.142135624 l 1,17,-1
 286 492.142135624 l 1,18,-1
 300.142135624 492.142135624 l 1,19,-1
 300.142135624 299.142135624 l 1,0,-1
EndSplineSet
EndChar

StartChar: comma
Encoding: 44 44 15
Width: 550
GlyphClass: 2
Flags: W
LayerCount: 2
Fore
SplineSet
204 -116.142135624 m 1,0,-1
 186.391654665 -116.142135624 l 1,1,-1
 211.391654665 -14.1421356237 l 1,2,-1
 203.857864376 -14.1421356237 l 1,3,-1
 203.857864376 2.6645352591e-15 l 1,4,-1
 203.857864376 48 l 1,5,-1
 203.857864376 62.1421356237 l 1,6,-1
 218 62.1421356237 l 1,7,-1
 261 62.1421356237 l 1,8,-1
 275.142135624 62.1421356237 l 1,9,-1
 275.142135624 -3 l 1,10,-1
 231.713841142 -116.142135624 l 1,11,-1
 223 -116.142135624 l 1,12,-1
 204 -116.142135624 l 1,0,-1
246.857864376 33.8578643763 m 1,13,-1
 232.142135624 33.8578643763 l 1,14,-1
 232.142135624 14.1421356237 l 1,15,-1
 246.608345335 14.1421356237 l 1,16,-1
 243.142135624 8.881784197e-16 l 1,17,-1
 234.543685472 -35.0816766189 l 1,18,-1
 246.857864376 -3 l 1,19,-1
 246.857864376 33.8578643763 l 1,13,-1
EndSplineSet
EndChar

StartChar: hyphen
Encoding: 45 45 16
Width: 550
GlyphClass: 2
Flags: W
LayerCount: 2
Fore
SplineSet
134.857864376 253 m 1,0,-1
 134.857864376 279 l 1,1,-1
 134.857864376 293.142135624 l 1,2,-1
 414.142135624 293.142135624 l 1,3,-1
 414.142135624 279 l 1,4,-1
 414.142135624 253 l 1,5,-1
 414.142135624 238.857864376 l 1,6,-1
 134.857864376 238.857864376 l 1,7,-1
 134.857864376 253 l 1,0,-1
EndSplineSet
EndChar

StartChar: period
Encoding: 46 46 17
Width: 550
GlyphClass: 2
Flags: W
LayerCount: 2
Fore
SplineSet
253 -14.1421356237 m 1,0,-1
 212 -14.1421356237 l 1,1,-1
 197.857864376 -14.1421356237 l 1,2,-1
 197.857864376 2.6645352591e-15 l 1,3,-1
 197.857864376 47 l 1,4,-1
 197.857864376 61.1421356237 l 1,5,-1
 212 61.1421356237 l 1,6,-1
 253 61.1421356237 l 1,7,-1
 267.142135624 61.1421356237 l 1,8,-1
 267.142135624 47 l 1,9,-1
 267.142135624 8.881784197e-16 l 1,10,-1
 267.142135624 -14.1421356237 l 1,11,-1
 253 -14.1421356237 l 1,0,-1
238.857864376 32.8578643763 m 1,12,-1
 226.142135624 32.8578643763 l 1,13,-1
 226.142135624 14.1421356237 l 1,14,-1
 238.857864376 14.1421356237 l 1,15,-1
 238.857864376 32.8578643763 l 1,12,-1
EndSplineSet
EndChar

StartChar: slash
Encoding: 47 47 18
Width: 550
GlyphClass: 2
Flags: W
LayerCount: 2
Fore
SplineSet
50 -31.1421356237 m 1,0,-1
 27.6743850755 -31.1421356237 l 1,1,-1
 467.041343677 728.142135624 l 1,2,-1
 473 728.142135624 l 1,3,-1
 500 728.142135624 l 1,4,-1
 522.364307498 728.142135624 l 1,5,-1
 80.9199637495 -31.1421356237 l 1,6,-1
 75 -31.1421356237 l 1,7,-1
 50 -31.1421356237 l 1,0,-1
EndSplineSet
EndChar

StartChar: zero
Encoding: 48 48 19
Width: 550
GlyphClass: 2
Flags: W
LayerCount: 2
Fore
SplineSet
143.328312855 32.3456434752 m 2,0,-1
 129.186177231 46.487779099 l 2,1,2
 81.8578643763 93.816091954 81.8578643763 93.816091954 81.8578643763 173 c 2,3,-1
 81.8578643763 521 l 2,4,5
 81.8578643763 601.181818182 81.8578643763 601.181818182 129.238029666 648.561983471 c 0,6,7
 145.636363636 664.960317442 145.636363636 664.960317442 148 667.142135624 c 0,8,9
 200 715.142135624 200 715.142135624 275 715.142135624 c 0,10,11
 354.181818182 715.142135624 354.181818182 715.142135624 406.619834711 662.704119095 c 2,12,-1
 420.761970334 648.561983471 l 2,13,14
 468.142135624 601.181818182 468.142135624 601.181818182 468.142135624 521 c 2,15,-1
 468.142135624 173 l 2,16,17
 468.142135624 93.816091954 468.142135624 93.816091954 420.813822769 46.487779099 c 0,18,19
 404.390804598 30.064760928 404.390804598 30.064760928 402 27.8578643763 c 0,20,21
 350 -20.1421356237 350 -20.1421356237 272.908045977 -20.1421356237 c 128,-1,22
 195.816091954 -20.1421356237 195.816091954 -20.1421356237 143.328312855 32.3456434752 c 2,0,-1
133.142135624 515.51220878 m 2,23,24
 133.142135624 515.51220878 133.142135624 515.51220878 133.142135624 180 c 0,25,26
 133.142135624 164.455490615 133.142135624 164.455490615 134.907159524 150.676005132 c 1,27,-1
 395.857864376 602 l 1,28,29
 387.197714179 618.67078913 387.197714179 618.67078913 375.95950235 631.732291143 c 0,30,31
 337.310311798 664.857863049 337.310311798 664.857863049 275 664.857864376 c 128,-1,32
 212.619449744 664.857864376 212.619449744 664.857864376 171.680940809 629.121129917 c 1,33,34
 133.142135624 585.16153239 133.142135624 585.16153239 133.142135624 515.51220878 c 2,23,24
416.857864376 179.488026526 m 2,35,36
 416.857864376 179.488026526 416.857864376 179.488026526 416.857864376 515 c 0,37,38
 416.857864376 529.451032969 416.857864376 529.451032969 414.81848592 543.902065938 c 1,39,-1
 153.142135624 92 l 1,40,41
 161.725437434 75.4771440157 161.725437434 75.4771440157 172.887295604 62.4998035872 c 0,42,43
 211.813587609 29.1421365598 211.813587609 29.1421365598 274.3793491 29.1421360917 c 128,-1,44
 336.945110591 29.1421356237 336.945110591 29.1421356237 377.746483333 64.7732489816 c 1,45,46
 416.857864376 108.840434249 416.857864376 108.840434249 416.857864376 179.488026526 c 2,35,36
422.239236086 605.562865328 m 1,47,-1
 422.508687773 606.028195014 l 1,48,49
 413.314513096 625.375889463 413.314513096 625.375889463 399.247894489 641.35035304 c 0,50,51
 390.116009292 649.463598445 390.116009292 649.463598445 380.291026029 656.130381983 c 1,52,53
 381.791853543 654.721494202 381.791853543 654.721494202 396.71229599 639.801051755 c 128,-1,54
 411.632738436 624.880609309 411.632738436 624.880609309 422.239236086 605.562865328 c 1,47,-1
162.65515266 43.9094786337 m 1,55,-1
 151.447496351 55.1171349426 l 2,56,57
 142.312931139 64.2517001547 142.312931139 64.2517001547 134.691030786 75.4661807151 c 1,58,59
 141.694853617 63.909990391 141.694853617 63.909990391 150.696873004 53.6987403091 c 0,60,61
 156.534338549 48.5084418392 156.534338549 48.5084418392 162.65515266 43.9094786337 c 1,55,-1
130.417377041 611.86695149 m 1,62,63
 138.930814855 625.128506034 138.930814855 625.128506034 150.267586598 636.465277778 c 0,64,65
 168.054639539 654.252330718 168.054639539 654.252330718 171.886963374 657.584903945 c 1,66,67
 160.892236388 650.359374809 160.892236388 650.359374809 150.752101068 641.350348609 c 0,68,69
 138.836680926 627.81884373 138.836680926 627.81884373 130.417377041 611.86695149 c 1,62,63
419.077203909 82.0481865345 m 1,70,71
 410.495540512 68.7671979919 410.495540512 68.7671979919 399.144513745 57.4161712247 c 0,72,73
 382.89778596 41.1694434402 382.89778596 41.1694434402 380.731226244 39.1692778467 c 1,74,75
 390.35041274 45.7385618657 390.35041274 45.7385618657 399.303128304 53.6987416133 c 0,76,77
 410.827635636 66.771321263 410.827635636 66.771321263 419.077203909 82.0481865345 c 1,70,71
EndSplineSet
EndChar

StartChar: one
Encoding: 49 49 20
Width: 550
GlyphClass: 2
Flags: W
LayerCount: 2
Fore
SplineSet
261.857864376 -14.1421356237 m 1,0,-1
 261.857864376 644.333522987 l 1,1,-1
 105.857864376 561.333522987 l 1,2,-1
 105.857864376 583 l 1,3,-1
 105.857864376 613 l 1,4,-1
 105.857864376 619.569250096 l 1,5,-1
 275 710.142135624 l 1,6,-1
 301 710.142135624 l 1,7,-1
 315.142135624 710.142135624 l 1,8,-1
 315.142135624 -14.1421356237 l 1,9,-1
 301 -14.1421356237 l 1,10,-1
 276 -14.1421356237 l 1,11,-1
 261.857864376 -14.1421356237 l 1,0,-1
134.142135624 604.666477013 m 1,12,-1
 279.224743198 681.857864376 l 1,13,-1
 275 681.857864376 l 1,14,-1
 134.142135624 606.430749904 l 1,15,-1
 134.142135624 604.666477013 l 1,12,-1
EndSplineSet
EndChar

StartChar: two
Encoding: 50 50 21
Width: 550
GlyphClass: 2
Flags: W
LayerCount: 2
Fore
SplineSet
272.823693468 713.332728578 m 0,0,1
 274.568646917 713.332728578 274.568646917 713.332728578 276 713.142135624 c 0,2,3
 362.014492754 713.142135624 362.014492754 713.142135624 410.381222432 664.775405945 c 2,4,-1
 424.523358056 650.633270321 l 2,5,6
 471.142135624 604.014492754 471.142135624 604.014492754 471.142135624 537 c 0,7,8
 471.142135624 464 471.142135624 464 426.142135624 405 c 2,9,-1
 146.906490823 38.1421356237 l 1,10,-1
 474.142135624 38.1421356237 l 1,11,-1
 474.142135624 24 l 1,12,-1
 474.142135624 8.881784197e-16 l 1,13,-1
 474.142135624 -14.1421356237 l 1,14,-1
 77.8578643763 -14.1421356237 l 1,15,-1
 77.8578643763 2.6645352591e-15 l 1,16,-1
 77.8578643763 25 l 1,17,-1
 376.857864376 417 l 2,18,19
 415.857864376 469 415.857864376 469 415.857864376 534 c 0,20,21
 415.857864376 588.517126371 415.857864376 588.517126371 383.109465752 626.260683528 c 1,22,23
 342.961138545 660.857862394 342.961138545 660.857862394 276 660.857864376 c 0,24,25
 215.838601047 660.857864376 215.838601047 660.857864376 170.515792491 621.1064991 c 1,26,27
 150.245252168 597.940793913 150.245252168 597.940793913 140.142135624 567 c 2,28,-1
 134.832143747 550.738149877 l 1,29,-1
 126 552.857864376 l 1,30,-1
 101 558.857864376 l 1,31,-1
 83.8166461296 562.981869305 l 1,32,-1
 86.8578643763 573 l 2,33,34
 99.2503877408 613.822429907 99.2503877408 613.822429907 128.913415079 643.485457245 c 2,35,-1
 143.055550703 657.627592869 l 2,36,37
 154.08411215 668.656154315 154.08411215 668.656154315 167.5 678.142135624 c 0,38,39
 249.113029396 713.332728578 249.113029396 713.332728578 272.823693468 713.332728578 c 0,0,1
183.5 659.642135624 m 1,40,41
 165.53785866 649.801688573 165.53785866 649.801688573 150.371986851 636.255875801 c 0,42,43
 131.743206914 615.340353242 131.743206914 615.340353242 120.979666268 589.342676215 c 1,44,45
 131.898014393 611.240147903 131.898014393 611.240147903 149.037864376 628.38 c 2,46,-1
 163.18 642.522135624 l 2,47,48
 172.433333333 651.775468957 172.433333333 651.775468957 183.5 659.642135624 c 1,40,41
403.289268807 643.167880394 m 0,49,50
 385.697574526 658.694532516 385.697574526 658.694532516 363.553611759 668.438573825 c 1,51,52
 378.201723177 659.956541479 378.201723177 659.956541479 390.311914672 647.846349984 c 2,53,-1
 404.454050296 633.70421436 l 2,54,55
 428.650752064 609.507512592 428.650752064 609.507512592 438.095408352 577.754885432 c 1,56,57
 429.130384267 614.153028052 429.130384267 614.153028052 403.289268807 643.167880394 c 0,49,50
106.142135624 21.7458873975 m 1,58,-1
 397.857864376 405 l 2,59,60
 409.644082677 420.453041772 409.644082677 420.453041772 418.343302375 436.866483081 c 1,61,62
 412.422197111 426.706748849 412.422197111 426.706748849 405.142135624 417 c 2,63,-1
 106.142135624 25 l 1,64,-1
 106.142135624 21.7458873975 l 1,58,-1
EndSplineSet
EndChar

StartChar: three
Encoding: 51 51 22
Width: 550
GlyphClass: 2
Flags: W
LayerCount: 2
Fore
SplineSet
419.728531003 288.521858388 m 1,0,1
 411.62223666 304.429129788 411.62223666 304.429129788 402.283079794 315.467561298 c 0,2,3
 391.69465256 324.435705211 391.69465256 324.435705211 378.785820519 331.257474595 c 1,4,5
 386.957085787 324.624698068 386.957085787 324.624698068 400.174497946 311.096287976 c 128,-1,6
 413.391910105 297.567877884 413.391910105 297.567877884 419.728531003 288.521858388 c 1,0,1
399.097632801 56.5907593808 m 0,7,8
 411.92628988 70.952431035 411.92628988 70.952431035 421.158495103 87.6681440823 c 1,9,10
 413.202688973 75.8654309755 413.202688973 75.8654309755 402.901207605 65.5639500297 c 0,11,12
 386.43902439 49.1017668153 386.43902439 49.1017668153 382.166897577 45.1714101473 c 128,-1,13
 377.894770764 41.2410534792 377.894770764 41.2410534792 371.401894468 36.3100797455 c 1,14,15
 386.229491827 45.0839567142 386.229491827 45.0839567142 399.097632801 56.5907593808 c 0,7,8
133.709482084 45.5260044806 m 0,16,17
 149.119213016 32.336307953 149.119213016 32.336307953 168.878064835 23.8001714748 c 1,18,19
 156.105650957 31.9627397355 156.105650957 31.9627397355 145.591412742 42.4769779497 c 2,20,-1
 131.449277119 56.6191135734 l 2,21,22
 118.43992695 69.6284637419 118.43992695 69.6284637419 109.552775595 85.8013619247 c 1,23,24
 118.932491412 62.7761408528 118.932491412 62.7761408528 133.709482084 45.5260044806 c 0,16,17
320.857864376 361 m 1,25,-1
 320.857864376 364 l 1,26,-1
 320.857864376 364.992574519 l 1,27,28
 313.91626824 362.996896451 313.91626824 362.996896451 306.638043287 361.650431362 c 1,29,30
 313.911514941 360.700030165 313.911514941 360.700030165 320.857864376 359.144105407 c 1,31,-1
 320.857864376 361 l 1,25,-1
124.297332168 621.75764559 m 1,32,33
 129.618402884 628.874174771 129.618402884 628.874174771 136.041232145 635.297004132 c 2,34,-1
 150.183367769 649.439139756 l 2,35,36
 156.619541029 655.875313017 156.619541029 655.875313017 164.162056105 661.614900209 c 1,37,38
 151.474599924 653.915956339 151.474599924 653.915956339 140.789307934 644.537422377 c 0,39,40
 131.540415705 633.983287849 131.540415705 633.983287849 124.297332168 621.75764559 c 1,32,33
354.64700979 669.721850553 m 1,41,42
 366.155582235 662.03988639 366.155582235 662.03988639 376.159022222 652.036446735 c 0,43,44
 391.482135624 636.713333333 391.482135624 636.713333333 392.642135624 635.5 c 0,45,46
 411.658018612 615.609823541 411.658018612 615.609823541 422.361170203 591.228861178 c 1,47,48
 411.04624572 622.064518492 411.04624572 622.064518492 388.595293681 647.507994504 c 0,49,50
 373.37005845 660.806323907 373.37005845 660.806323907 354.64700979 669.721850553 c 1,41,42
416.80331774 442.274398913 m 1,51,52
 408.26656071 427.591576538 408.26656071 427.591576538 395.96141209 415.286429751 c 0,53,54
 380.919708029 400.24472569 380.919708029 400.24472569 378.195708278 397.618011644 c 128,-1,55
 375.471708527 394.991297599 375.471708527 394.991297599 370.699305132 391.095518097 c 1,56,57
 382.759893536 397.322049849 382.759893536 397.322049849 388.835306212 402.258322285 c 128,-1,58
 394.910718888 407.19459472 394.910718888 407.19459472 396.739038623 408.778746543 c 0,59,60
 408.472289855 422.453497644 408.472289855 422.453497644 416.80331774 442.274398913 c 1,51,52
462.142135624 523 m 0,61,62
 462.142135624 480.045454545 462.142135624 480.045454545 442.142135624 435.5 c 0,63,64
 433.892135624 417.125 433.892135624 417.125 418.329635624 401.5625 c 0,65,66
 399 382.232864376 399 382.232864376 391.030438995 375.75759606 c 128,-1,67
 383.06087799 369.282327743 383.06087799 369.282327743 371.406718717 363.179083962 c 1,68,69
 393.659549734 352.963105371 393.659549734 352.963105371 409.6594704 336.963184705 c 2,70,-1
 423.801606023 322.821049081 l 2,71,72
 436.414862896 310.207792208 436.414862896 310.207792208 445.142135624 294 c 0,73,74
 473.142135624 242 473.142135624 242 473.142135624 189 c 0,75,76
 473.142135624 101.956043956 473.142135624 101.956043956 420.533151202 49.3470595339 c 0,77,78
 405.208791209 34.0226995411 405.208791209 34.0226995411 404 32.8578643763 c 0,79,80
 349 -20.1421356237 349 -20.1421356237 256 -20.1421356237 c 0,81,82
 170.54589372 -20.1421356237 170.54589372 -20.1421356237 126.373964387 24.0297937095 c 2,83,-1
 112.231828763 38.1719293332 l 2,84,85
 87.6549658255 62.7487922705 87.6549658255 62.7487922705 75.8578643763 101 c 2,86,-1
 72.3664144343 112.320761933 l 1,87,-1
 90 115.142135624 l 1,88,-1
 115 119.142135624 l 1,89,-1
 123.472247148 120.497695167 l 1,90,-1
 129.142135624 105 l 2,91,92
 137.620304105 81.826339484 137.620304105 81.826339484 152.966943296 63.9238309406 c 0,93,94
 193.41706731 29.1421356237 193.41706731 29.1421356237 258 29.1421356237 c 0,95,96
 332.032047323 29.1421356237 332.032047323 29.1421356237 381.393154736 72.7907211638 c 1,97,98
 419.858385746 116.837835389 419.858385746 116.837835389 419.858385746 184.501456796 c 0,99,100
 419.858385746 184.750568345 419.858385746 184.750568345 419.857864376 185 c 0,101,102
 419.857864376 256.901668197 419.857864376 256.901668197 382.799569918 299.592680662 c 1,103,104
 342.163126898 334.85843267 342.163126898 334.85843267 283.471502599 334.85843267 c 0,105,106
 283.235896776 334.85843267 283.235896776 334.85843267 283 334.857864376 c 2,107,-1
 241 334.857864376 l 1,108,-1
 226.857864376 334.857864376 l 1,109,-1
 226.857864376 349 l 1,110,-1
 226.857864376 373 l 1,111,-1
 226.857864376 387.142135624 l 1,112,-1
 241 387.142135624 l 1,113,-1
 275 387.142135624 l 2,114,115
 333.848942204 387.142135624 333.848942204 387.142135624 374.374085662 422.480890496 c 1,116,117
 407.857864189 461.177110463 407.857864189 461.177110463 407.857864376 521 c 0,118,119
 407.857864376 586.2436686 407.857864376 586.2436686 368.965189099 630.476351829 c 1,120,121
 327.276601079 666.857864057 327.276601079 666.857864057 262 666.857864376 c 0,122,123
 216 666.857864376 216 666.857864376 175 640.857864376 c 0,124,125
 165.581776317 634.885332285 165.581776317 634.885332285 157.588286979 628.015745514 c 0,126,127
 141.81266364 609.559476701 141.81266364 609.559476701 134.142135624 586 c 2,128,-1
 128.931875131 569.997057057 l 1,129,-1
 120 571.857864376 l 1,130,-1
 96 576.857864376 l 1,131,-1
 78.2430584097 580.557227208 l 1,132,-1
 81.8578643763 591 l 2,133,134
 94.2215007399 626.717171717 94.2215007399 626.717171717 119.323429115 651.819100092 c 2,135,-1
 133.465564738 665.961235716 l 2,136,137
 144.909090909 677.404761886 144.909090909 677.404761886 159 686.642135624 c 0,138,139
 204 716.142135624 204 716.142135624 264 716.142135624 c 0,140,141
 348.71657754 716.142135624 348.71657754 716.142135624 395.831679488 669.027033676 c 0,142,143
 412.356039367 652.502673797 412.356039367 652.502673797 414.642135624 650 c 0,144,145
 462.142135624 598 462.142135624 598 462.142135624 523 c 0,61,62
EndSplineSet
EndChar

StartChar: four
Encoding: 52 52 23
Width: 550
GlyphClass: 2
Flags: W
LayerCount: 2
Fore
SplineSet
331.755364697 681.857864376 m 1,0,-1
 305.116971054 622.872849881 l 1,1,-1
 332.332677922 681.857864376 l 1,2,-1
 331.755364697 681.857864376 l 1,0,-1
429.142135624 153.142135624 m 1,3,-1
 478 153.142135624 l 1,4,-1
 492.142135624 153.142135624 l 1,5,-1
 492.142135624 139 l 1,6,-1
 492.142135624 115 l 1,7,-1
 492.142135624 100.857864376 l 1,8,-1
 478 100.857864376 l 1,9,-1
 429.142135624 100.857864376 l 1,10,-1
 429.142135624 -14.1421356237 l 1,11,-1
 415 -14.1421356237 l 1,12,-1
 390 -14.1421356237 l 1,13,-1
 375.857864376 -14.1421356237 l 1,14,-1
 375.857864376 100.857864376 l 1,15,-1
 57.8578643763 100.857864376 l 1,16,-1
 57.8578643763 115 l 1,17,-1
 57.8578643763 138 l 1,18,-1
 316.244635303 710.142135624 l 1,19,-1
 324 710.142135624 l 1,20,-1
 353 710.142135624 l 1,21,-1
 373.667322078 710.142135624 l 1,22,-1
 116.667322078 153.142135624 l 1,23,-1
 375.857864376 153.142135624 l 1,24,-1
 375.857864376 373.142135624 l 1,25,-1
 390 373.142135624 l 1,26,-1
 415 373.142135624 l 1,27,-1
 429.142135624 373.142135624 l 1,28,-1
 429.142135624 153.142135624 l 1,3,-1
EndSplineSet
EndChar

StartChar: five
Encoding: 53 53 24
Width: 550
GlyphClass: 2
Flags: W
LayerCount: 2
Fore
SplineSet
376.632641935 65.2430196215 m 1,0,1
 413.857864062 107.800224489 413.857864062 107.800224489 413.857864376 172 c 2,2,-1
 413.857864376 280 l 2,3,4
 413.857864376 346.945357841 413.857864376 346.945357841 377.272714564 389.653054064 c 1,5,6
 338.021271641 422.857863786 338.021271641 422.857863786 269 422.857864376 c 0,7,8
 234 422.857864376 234 422.857864376 190.5 400.357864376 c 0,9,10
 165.735610564 387.548697427 165.735610564 387.548697427 148.587530746 372.632891762 c 0,11,12
 144.528062185 367.909593514 144.528062185 367.909593514 131.388938642 348.857864376 c 1,13,-1
 127 348.857864376 l 1,14,-1
 105 348.857864376 l 1,15,-1
 90.8578643763 348.857864376 l 1,16,-1
 90.8578643763 710.142135624 l 1,17,-1
 443.142135624 710.142135624 l 1,18,-1
 443.142135624 696 l 1,19,-1
 443.142135624 672 l 1,20,-1
 443.142135624 657.857864376 l 1,21,-1
 142.142135624 657.857864376 l 1,22,-1
 142.142135624 423.2018674 l 1,23,24
 199.704078251 472.142135624 199.704078251 472.142135624 277 472.142135624 c 0,25,26
 359.653061224 472.142135624 359.653061224 472.142135624 401.822990421 429.972206428 c 0,27,28
 419.713564195 412.081632653 419.713564195 412.081632653 423.142135624 408 c 0,29,30
 465.142135624 358 465.142135624 358 465.142135624 275 c 2,31,-1
 465.142135624 182 l 2,32,33
 465.142135624 92.2879581152 465.142135624 92.2879581152 413.615121562 40.7609440531 c 2,34,-1
 399.472985938 26.6188084293 l 2,35,36
 352.712041885 -20.1421356237 352.712041885 -20.1421356237 267.786433314 -20.1421356237 c 128,-1,37
 182.860824742 -20.1421356237 182.860824742 -20.1421356237 137.005712616 25.712976503 c 2,38,-1
 122.863576992 39.8551121267 l 2,39,40
 98.672297366 64.0463917526 98.672297366 64.0463917526 84.8578643763 101 c 2,41,-1
 81.7238731023 109.383426658 l 1,42,-1
 99 115.142135624 l 1,43,-1
 120 122.142135624 l 1,44,-1
 127.900089555 124.775498809 l 1,45,-1
 134.142135624 108 l 2,46,47
 142.984009937 84.2374627834 142.984009937 84.2374627834 158.697062486 65.9718681436 c 0,48,49
 201.403603405 29.1421356237 201.403603405 29.1421356237 268.263521942 29.1421356237 c 128,-1,50
 335.123440478 29.1421356237 335.123440478 29.1421356237 376.632641935 65.2430196215 c 1,0,1
124.37237189 377.142135624 m 1,51,52
 125.644272476 378.4864081 125.644272476 378.4864081 141.115 393.957135624 c 1,53,54
 134.142139952 388.000004329 134.142139952 388.000004329 123.284271247 377.142135624 c 1,55,-1
 124.37237189 377.142135624 l 1,51,52
364.367113541 427.447417045 m 1,56,57
 375.391293404 420.399326339 375.391293404 420.399326339 384.535867769 411.254752704 c 0,58,59
 400.445165927 395.345454545 400.445165927 395.345454545 404.963895949 390.431335646 c 128,-1,60
 409.482625971 385.517216747 409.482625971 385.517216747 415.476047827 376.642000387 c 1,61,62
 406.71174702 394.030160319 406.71174702 394.030160319 394.467344997 408.4625979 c 0,63,64
 381.147132794 419.756990314 381.147132794 419.756990314 364.367113541 427.447417045 c 1,56,57
406.699046946 67.3181141254 m 1,65,66
 402.535306835 62.3796576979 402.535306835 62.3796576979 390.781092135 50.6254429974 c 128,-1,67
 379.026877434 38.8712282968 379.026877434 38.8712282968 373.853685076 34.6050547448 c 1,68,69
 383.624172473 40.6712599858 383.624172473 40.6712599858 392.20659216 48.128043896 c 0,70,71
 400.161411494 57.2180190289 400.161411494 57.2180190289 406.699046946 67.3181141254 c 1,65,66
166.698381215 31.2800444478 m 1,72,73
 158.426813751 37.431053403 158.426813751 37.431053403 151.333333333 44.5245310429 c 0,74,75
 133.514643045 62.343221331 133.514643045 62.343221331 130.154564371 66.2729568386 c 1,76,77
 136.633634129 56.0067179111 136.633634129 56.0067179111 144.298424158 47.1987788404 c 0,78,79
 154.656166431 38.2035581017 154.656166431 38.2035581017 166.698381215 31.2800444478 c 1,72,73
EndSplineSet
EndChar

StartChar: six
Encoding: 54 54 25
Width: 550
GlyphClass: 2
Flags: W
LayerCount: 2
Fore
SplineSet
277 398.142135624 m 0,0,1
 349 398.142135624 349 398.142135624 402.5 349.142135624 c 0,2,3
 405.160220994 346.705671535 405.160220994 346.705671535 421.830301431 330.035591099 c 0,4,5
 470.142135624 281.723756906 470.142135624 281.723756906 470.142135624 200 c 0,6,7
 470.142135624 99.9150943396 470.142135624 99.9150943396 418.683386959 48.4563456746 c 0,8,9
 403.04245283 32.8154115461 403.04245283 32.8154115461 401.5 31.3578643763 c 0,10,11
 347 -20.1421356237 347 -20.1421356237 278 -20.1421356237 c 0,12,13
 196.907216495 -20.1421356237 196.907216495 -20.1421356237 143.772345627 32.9927352446 c 2,14,-1
 129.630210003 47.1348708683 l 2,15,16
 80 97 80 97 79.8578643763 188 c 0,17,18
 79.8578643763 250 79.8578643763 250 104.857864376 299 c 2,19,-1
 310.946743442 710.142135624 l 1,20,-1
 318 710.142135624 l 1,21,-1
 344 710.142135624 l 1,22,-1
 365.273986253 710.142135624 l 1,23,-1
 199.021605642 380.471221797 l 1,24,25
 232.573598567 398.142135624 232.573598567 398.142135624 277 398.142135624 c 0,0,1
275.46104746 348.858393156 m 0,26,27
 275.230655285 348.858393156 275.230655285 348.858393156 275 348.857864376 c 0,28,29
 213.832058235 348.857864376 213.832058235 348.857864376 171.917880055 311.922072925 c 1,30,31
 131.142135733 265.621978179 131.142135733 265.621978179 131.142135678 188.427222218 c 128,-1,32
 131.142135624 111.232466256 131.142135624 111.232466256 173.392381627 62.7856972789 c 1,33,34
 213.303112212 28.1421356947 213.303112212 28.1421356947 273.807786173 28.1421356592 c 128,-1,35
 334.312460135 28.1421356237 334.312460135 28.1421356237 377.472632275 66.5038173269 c 1,36,37
 418.858349204 113.837989441 418.858349204 113.837989441 418.858349204 198.420562493 c 0,38,39
 418.858349204 198.710063067 418.858349204 198.710063067 418.857864376 199 c 0,40,41
 418.857864376 266.844535927 418.857864376 266.844535927 379.989474242 310.936166592 c 1,42,43
 337.159931442 348.858393156 337.159931442 348.858393156 275.46104746 348.858393156 c 0,26,27
382.242957422 337.190648534 m 1,44,45
 386.853261833 332.958750166 386.853261833 332.958750166 398.5626618 321.119245755 c 128,-1,46
 410.272061768 309.279741343 410.272061768 309.279741343 416.933193548 300.161886142 c 1,47,48
 409.684285544 312.220426958 409.684285544 312.220426958 400.327155729 322.820944974 c 0,49,50
 391.531606064 330.658818836 391.531606064 330.658818836 382.242957422 337.190648534 c 1,44,45
405.964531932 66.7408094521 m 1,51,52
 402.82748523 63.1520162734 402.82748523 63.1520162734 385.731581357 46.0561124001 c 1,53,54
 391.444071507 50.5191336523 391.444071507 50.5191336523 397.008644359 55.5075166543 c 0,55,56
 401.735701251 60.8887626037 401.735701251 60.8887626037 405.964531932 66.7408094521 c 1,51,52
162.11987725 45.2822909235 m 1,57,58
 144.950937987 62.4512301867 144.950937987 62.4512301867 138.662003509 70.6742870337 c 1,59,60
 144.394763306 62.0348692089 144.394763306 62.0348692089 151.204346886 54.2894183737 c 0,61,62
 156.539994415 49.5416193158 156.539994415 49.5416193158 162.11987725 45.2822909235 c 1,57,58
133.142135624 299 m 1,63,64
 140.532450792 309.261999003 140.532450792 309.261999003 150.499705053 319.229253264 c 2,65,-1
 161.995393514 330.724941725 l 1,66,-1
 155.5281231 343.659482553 l 1,67,-1
 133.142135624 299 l 1,63,64
EndSplineSet
EndChar

StartChar: seven
Encoding: 55 55 26
Width: 550
GlyphClass: 2
Flags: W
LayerCount: 2
Fore
SplineSet
78.8578643763 672 m 1,0,-1
 78.8578643763 696 l 1,1,-1
 78.8578643763 710.142135624 l 1,2,-1
 470.142135624 710.142135624 l 1,3,-1
 470.142135624 696 l 1,4,-1
 470.142135624 672 l 1,5,-1
 205.691520852 -14.1421356237 l 1,6,-1
 197 -14.1421356237 l 1,7,-1
 170 -14.1421356237 l 1,8,-1
 150.365159915 -14.1421356237 l 1,9,-1
 411.365159915 657.857864376 l 1,10,-1
 78.8578643763 657.857864376 l 1,11,-1
 78.8578643763 672 l 1,0,-1
EndSplineSet
EndChar

StartChar: eight
Encoding: 56 56 27
Width: 550
GlyphClass: 2
Flags: W
LayerCount: 2
Fore
SplineSet
484.142135624 184 m 0,0,1
 484.142135624 103.895348837 484.142135624 103.895348837 431.515242709 51.2684559221 c 0,2,3
 415.470930233 35.224143446 415.470930233 35.224143446 413.5 33.3578643763 c 0,4,5
 357 -20.1421356237 357 -20.1421356237 275 -20.1421356237 c 0,6,7
 189.895348837 -20.1421356237 189.895348837 -20.1421356237 132.626892915 37.1263202984 c 2,8,-1
 118.484757291 51.2684559221 l 2,9,10
 65.8578643763 103.895348837 65.8578643763 103.895348837 65.8578643763 184 c 0,11,12
 65.8578643763 236 65.8578643763 236 96.8578643763 287 c 0,13,14
 106.857864376 303.451612903 106.857864376 303.451612903 120.187729101 316.781477627 c 2,15,-1
 134.329864724 330.923613251 l 2,16,17
 151.013877157 347.607625684 151.013877157 347.607625684 172.914352406 359.401204225 c 1,18,19
 153.987032803 370.091170556 153.987032803 370.091170556 140.085894858 383.992308502 c 2,20,-1
 125.943759234 398.134444125 l 2,21,22
 113.332440647 410.745762712 113.332440647 410.745762712 104.857864376 426 c 0,23,24
 79.8578643763 471 79.8578643763 471 79.8578643763 520 c 0,25,26
 79.8578643763 596 79.8578643763 596 131.857864376 648 c 2,27,-1
 146 662.142135624 l 2,28,29
 198 714.142135624 198 714.142135624 275.751572327 714.142135624 c 128,-1,30
 353.503144654 714.142135624 353.503144654 714.142135624 404.357383015 663.287897263 c 0,31,32
 418.821380907 648.823899371 418.821380907 648.823899371 419.142135624 648.5 c 0,33,34
 470.142135624 597 470.142135624 597 470.142135624 522.093085106 c 128,-1,35
 470.142135624 447.186170213 470.142135624 447.186170213 425.60176102 402.645795609 c 2,36,-1
 411.459625396 388.503659985 l 2,37,38
 395.655352005 372.699386594 395.655352005 372.699386594 374.243243931 360.45486913 c 1,39,40
 398.627732252 348.484552625 398.627732252 348.484552625 416.619848519 330.492436359 c 2,41,-1
 430.761984142 316.350300735 l 2,42,43
 443.239150549 303.873134328 443.239150549 303.873134328 452.642135624 288.5 c 0,44,45
 484.142135624 237 484.142135624 237 484.142135624 184 c 0,0,1
275.43183844 335.858309343 m 0,46,47
 275.216010029 335.858309343 275.216010029 335.858309343 275 335.857864376 c 0,48,49
 206.048016796 335.857864376 206.048016796 335.857864376 155.531368554 290.739807094 c 1,50,51
 117.142136125 247.467211374 117.142136125 247.467211374 117.142135874 183.478035229 c 128,-1,52
 117.142135624 119.488859084 117.142135624 119.488859084 159.777754003 72.1909922298 c 1,53,54
 231.14694341 31.4841788003 231.14694341 31.4841788003 275 27.1421356237 c 1,55,56
 340.494673292 27.1421356237 340.494673292 27.1421356237 390.222246722 72.190992953 c 1,57,58
 432.857864046 119.488859949 432.857864046 119.488859949 432.857864211 183.478036376 c 128,-1,59
 432.857864376 247.467212803 432.857864376 247.467212803 394.468630244 290.739808293 c 1,60,61
 344.157996091 335.858309343 344.157996091 335.858309343 275.43183844 335.858309343 c 0,46,47
387.325754906 424.257163338 m 1,62,63
 418.858499349 460.835856063 418.858499349 460.835856063 418.858499349 521.455464667 c 0,64,65
 418.858499349 521.727490279 418.858499349 521.727490279 418.857864376 522 c 0,66,67
 418.857864376 585.014846266 418.857864376 585.014846266 383.463535641 625.675379088 c 1,68,69
 316.057037007 662.973662738 316.057037007 662.973662738 275 666.857864376 c 1,70,71
 213.345805173 666.857864376 213.345805173 666.857864376 166.536460151 625.675374894 c 1,72,73
 131.142137409 585.014840982 131.142137409 585.014840982 131.142136517 523.435820059 c 128,-1,74
 131.142135624 461.856799136 131.142135624 461.856799136 163.044670612 424.452638965 c 1,75,76
 210.111331797 384.142135624 210.111331797 384.142135624 275.190045004 384.142135624 c 128,-1,77
 340.268758212 384.142135624 340.268758212 384.142135624 387.325754906 424.257163338 c 1,62,63
433.68069586 91.5783751161 m 1,78,79
 424.302916029 77.6301673652 424.302916029 77.6301673652 411.722727044 65.0499791753 c 0,80,81
 396.551020408 49.8782725395 396.551020408 49.8782725395 393.150510564 46.5768066712 c 128,-1,82
 389.750000719 43.2753408028 389.750000719 43.2753408028 383.781849324 38.3161088188 c 1,83,84
 397.523700863 47.1010001202 397.523700863 47.1010001202 410.046488124 58.4435363481 c 0,85,86
 423.983633352 73.9040315448 423.983633352 73.9040315448 433.68069586 91.5783751161 c 1,78,79
166.218150075 38.3161092602 m 1,87,88
 159.078229755 44.2490223761 159.078229755 44.2490223761 142.387658516 60.9395936152 c 128,-1,89
 125.697087277 77.6301648542 125.697087277 77.6301648542 116.319308037 91.5783687206 c 1,90,91
 126.016369919 73.9040283193 126.016369919 73.9040283193 139.953512649 58.4435355768 c 0,92,93
 152.47629904 47.1009998987 152.47629904 47.1009998987 166.218150075 38.3161092602 c 1,87,88
128.11626773 291.711625184 m 1,94,95
 130.971488245 294.878329751 130.971488245 294.878329751 140.985744122 304.892585628 c 0,96,97
 155.025408887 318.932250393 155.025408887 318.932250393 162.966123425 325.339489082 c 1,98,99
 151.498797444 318.166874257 151.498797444 318.166874257 141.635175476 309.490787604 c 0,100,101
 134.297005281 301.14375302 134.297005281 301.14375302 128.11626773 291.711625184 c 1,94,95
176.790760851 385.557889876 m 1,102,103
 164.680731836 393.978374776 164.680731836 393.978374776 155.650206396 403.008900216 c 0,104,105
 136.107747627 422.551358985 136.107747627 422.551358985 133.142135624 426 c 1,106,107
 139.240900594 415.022223054 139.240900594 415.022223054 147.482094501 405.413220311 c 0,108,109
 160.33473788 394.33447543 160.33473788 394.33447543 176.790760851 385.557889876 c 1,102,103
397.160543591 641.821835182 m 0,110,111
 394.056099625 644.522624346 394.056099625 644.522624346 390.855983351 647.047442596 c 1,112,-1
 403.389300659 634.514125287 l 1,113,114
 400.391711758 638.226374635 400.391711758 638.226374635 397.160543591 641.821835182 c 0,110,111
413.622174601 421.974759054 m 1,115,116
 411.322730725 419.400107296 411.322730725 419.400107296 402.404200909 410.48157748 c 128,-1,117
 393.485671093 401.563047664 393.485671093 401.563047664 392.207940983 400.355143566 c 1,118,119
 398.464759679 404.930295922 398.464759679 404.930295922 404.107901256 409.894999401 c 0,120,121
 409.20979797 415.716031613 409.20979797 415.716031613 413.622174601 421.974759054 c 1,115,116
387.640819355 324.847695663 m 1,122,123
 395.252955112 318.653886394 395.252955112 318.653886394 401.823529412 312.083312094 c 0,124,125
 419.89801943 294.008822076 419.89801943 294.008822076 423.488085411 289.905323714 c 1,126,127
 417.086525504 300.127443571 417.086525504 300.127443571 409.301939373 309.046712626 c 0,128,129
 399.329338696 317.755426742 399.329338696 317.755426742 387.640819355 324.847695663 c 1,122,123
EndSplineSet
EndChar

StartChar: nine
Encoding: 57 57 28
Width: 550
GlyphClass: 2
Flags: W
LayerCount: 2
Fore
SplineSet
273 297.857864376 m 0,0,1
 197.902173913 297.857864376 197.902173913 297.857864376 144.067757561 351.692280728 c 2,2,-1
 129.925621938 365.834416352 l 2,3,4
 80 416 80 416 79.8578643763 502 c 0,5,6
 79.8578643763 597.238095238 79.8578643763 597.238095238 129.744485691 647.124716553 c 0,7,8
 146.380952381 663.761183243 146.380952381 663.761183243 149 666.142135624 c 0,9,10
 242.809049233 716.53280734 242.809049233 716.53280734 269.770357663 716.53280734 c 0,11,12
 272.144309348 716.53280734 272.144309348 716.53280734 274 716.142135624 c 0,13,14
 353.527272727 716.142135624 353.527272727 716.142135624 403.653553719 666.015854632 c 0,15,16
 418.723953806 650.945454545 418.723953806 650.945454545 419.642135624 650 c 0,17,18
 470.142135624 598 470.142135624 598 470.142135624 508 c 0,19,20
 470.142135624 446 470.142135624 446 445.142135624 397 c 2,21,-1
 239.053256558 -14.1421356237 l 1,22,-1
 232 -14.1421356237 l 1,23,-1
 206 -14.1421356237 l 1,24,-1
 184.724587757 -14.1421356237 l 1,25,-1
 350.066365469 313.657551585 l 1,26,27
 313.639807696 297.857864376 313.639807696 297.857864376 273 297.857864376 c 0,0,1
131.141649038 506.526848334 m 0,28,29
 131.141649038 506.263600883 131.141649038 506.263600883 131.142135624 506 c 0,30,31
 131.142135624 430.820841708 131.142135624 430.820841708 171.894539206 384.621170076 c 1,32,33
 214.276868945 347.142137335 214.276868945 347.142137335 275.222405355 347.142136479 c 128,-1,34
 336.167941765 347.142135624 336.167941765 347.142135624 378.082119945 384.077927074 c 1,35,36
 418.857864267 430.378021821 418.857864267 430.378021821 418.857864322 507.457719958 c 128,-1,37
 418.857864376 584.537418096 418.857864376 584.537418096 375.865799986 633.425136884 c 1,38,39
 335.375756129 668.857863118 335.375756129 668.857863118 275.733239952 668.857863747 c 128,-1,40
 216.090723774 668.857864376 216.090723774 668.857864376 172.37685669 629.842625152 c 1,41,42
 131.141649038 583.160360485 131.141649038 583.160360485 131.141649038 506.526848334 c 0,28,29
169.204045335 358.770973845 m 1,43,44
 145.768158783 380.457866857 145.768158783 380.457866857 134.56676652 395.918657411 c 1,45,46
 141.988845782 383.691298168 141.988845782 383.691298168 151.495618353 372.964138465 c 0,47,48
 160.115739472 365.228546974 160.115739472 365.228546974 169.204045335 358.770973845 c 1,43,44
139.061634469 623.847716756 m 1,49,50
 144.405512524 630.562799663 144.405512524 630.562799663 150.771202301 636.92848944 c 2,51,-1
 164.801408859 650.958695998 l 1,52,53
 157.923069635 645.785802982 157.923069635 645.785802982 151.262286807 639.887722185 c 0,54,55
 144.655878457 632.327794131 144.655878457 632.327794131 139.061634469 623.847716756 c 1,49,50
396.341135883 644.638087803 m 0,56,57
 389.942689868 650.162530925 389.942689868 650.162530925 383.102951856 654.934608604 c 1,58,59
 400.514684643 637.522875817 400.514684643 637.522875817 404.470226247 633.067208264 c 128,-1,60
 408.42576785 628.611540711 408.42576785 628.611540711 412.683352981 622.860290196 c 1,61,62
 405.417113512 634.430080819 405.417113512 634.430080819 396.341135883 644.638087803 c 0,56,57
416.857864376 397 m 1,63,64
 409.467549208 386.738000997 409.467549208 386.738000997 399.500294947 376.770746736 c 0,65,66
 381.608558188 358.879009977 381.608558188 358.879009977 377.691518904 355.45061672 c 1,67,-1
 389.907478434 343.23465719 l 1,68,-1
 416.857864376 397 l 1,63,64
EndSplineSet
EndChar

StartChar: colon
Encoding: 58 58 29
Width: 550
GlyphClass: 2
Flags: W
LayerCount: 2
Fore
SplineSet
259 -14.1421356237 m 1,0,-1
 218 -14.1421356237 l 1,1,-1
 203.857864376 -14.1421356237 l 1,2,-1
 203.857864376 2.6645352591e-15 l 1,3,-1
 203.857864376 47 l 1,4,-1
 203.857864376 61.1421356237 l 1,5,-1
 218 61.1421356237 l 1,6,-1
 259 61.1421356237 l 1,7,-1
 273.142135624 61.1421356237 l 1,8,-1
 273.142135624 47 l 1,9,-1
 273.142135624 8.881784197e-16 l 1,10,-1
 273.142135624 -14.1421356237 l 1,11,-1
 259 -14.1421356237 l 1,0,-1
259 310.857864376 m 1,12,-1
 218 310.857864376 l 1,13,-1
 203.857864376 310.857864376 l 1,14,-1
 203.857864376 325 l 1,15,-1
 203.857864376 372 l 1,16,-1
 203.857864376 386.142135624 l 1,17,-1
 218 386.142135624 l 1,18,-1
 259 386.142135624 l 1,19,-1
 273.142135624 386.142135624 l 1,20,-1
 273.142135624 372 l 1,21,-1
 273.142135624 325 l 1,22,-1
 273.142135624 310.857864376 l 1,23,-1
 259 310.857864376 l 1,12,-1
244.857864376 32.8578643763 m 1,24,-1
 232.142135624 32.8578643763 l 1,25,-1
 232.142135624 14.1421356237 l 1,26,-1
 244.857864376 14.1421356237 l 1,27,-1
 244.857864376 32.8578643763 l 1,24,-1
232.142135624 339.142135624 m 1,28,-1
 244.857864376 339.142135624 l 1,29,-1
 244.857864376 357.857864376 l 1,30,-1
 232.142135624 357.857864376 l 1,31,-1
 232.142135624 339.142135624 l 1,28,-1
EndSplineSet
EndChar

StartChar: semicolon
Encoding: 59 59 30
Width: 550
GlyphClass: 2
Flags: W
LayerCount: 2
Fore
SplineSet
259 310.857864376 m 1,0,-1
 218 310.857864376 l 1,1,-1
 203.857864376 310.857864376 l 1,2,-1
 203.857864376 325 l 1,3,-1
 203.857864376 372 l 1,4,-1
 203.857864376 386.142135624 l 1,5,-1
 218 386.142135624 l 1,6,-1
 259 386.142135624 l 1,7,-1
 273.142135624 386.142135624 l 1,8,-1
 273.142135624 372 l 1,9,-1
 273.142135624 325 l 1,10,-1
 273.142135624 310.857864376 l 1,11,-1
 259 310.857864376 l 1,0,-1
204 -116.142135624 m 1,12,-1
 186.391654665 -116.142135624 l 1,13,-1
 211.391654665 -14.1421356237 l 1,14,-1
 203.857864376 -14.1421356237 l 1,15,-1
 203.857864376 2.6645352591e-15 l 1,16,-1
 203.857864376 48 l 1,17,-1
 203.857864376 62.1421356237 l 1,18,-1
 218 62.1421356237 l 1,19,-1
 261 62.1421356237 l 1,20,-1
 275.142135624 62.1421356237 l 1,21,-1
 275.142135624 -3 l 1,22,-1
 231.713841142 -116.142135624 l 1,23,-1
 223 -116.142135624 l 1,24,-1
 204 -116.142135624 l 1,12,-1
232.142135624 339.142135624 m 1,25,-1
 244.857864376 339.142135624 l 1,26,-1
 244.857864376 357.857864376 l 1,27,-1
 232.142135624 357.857864376 l 1,28,-1
 232.142135624 339.142135624 l 1,25,-1
246.857864376 33.8578643763 m 1,29,-1
 232.142135624 33.8578643763 l 1,30,-1
 232.142135624 14.1421356237 l 1,31,-1
 246.608345335 14.1421356237 l 1,32,-1
 243.142135624 8.881784197e-16 l 1,33,-1
 234.543685472 -35.0816766189 l 1,34,-1
 246.857864376 -3 l 1,35,-1
 246.857864376 33.8578643763 l 1,29,-1
EndSplineSet
EndChar

StartChar: less
Encoding: 60 60 31
Width: 550
GlyphClass: 2
Flags: W
LayerCount: 2
Fore
SplineSet
486.142135624 456 m 1,0,-1
 486.142135624 430 l 1,1,-1
 486.142135624 421.913304562 l 1,2,-1
 136.327782699 272.128297077 l 1,3,-1
 488.142135624 124.195577248 l 1,4,-1
 488.142135624 116 l 1,5,-1
 488.142135624 88 l 1,6,-1
 488.142135624 67.7260612111 l 1,7,-1
 60.8578643763 252.989667541 l 1,8,-1
 60.8578643763 261 l 1,9,-1
 60.8578643763 285 l 1,10,-1
 60.8578643763 293.050686778 l 1,11,-1
 486.142135624 476.233584469 l 1,12,-1
 486.142135624 456 l 1,0,-1
EndSplineSet
EndChar

StartChar: equal
Encoding: 61 61 32
Width: 550
GlyphClass: 2
Flags: W
LayerCount: 2
Fore
SplineSet
60.8578643763 162 m 1,0,-1
 60.8578643763 186 l 1,1,-1
 60.8578643763 200.142135624 l 1,2,-1
 488.142135624 200.142135624 l 1,3,-1
 488.142135624 186 l 1,4,-1
 488.142135624 162 l 1,5,-1
 488.142135624 147.857864376 l 1,6,-1
 60.8578643763 147.857864376 l 1,7,-1
 60.8578643763 162 l 1,0,-1
60.8578643763 331 m 1,8,-1
 60.8578643763 354 l 1,9,-1
 60.8578643763 368.142135624 l 1,10,-1
 488.142135624 368.142135624 l 1,11,-1
 488.142135624 354 l 1,12,-1
 488.142135624 331 l 1,13,-1
 488.142135624 316.857864376 l 1,14,-1
 60.8578643763 316.857864376 l 1,15,-1
 60.8578643763 331 l 1,8,-1
EndSplineSet
EndChar

StartChar: greater
Encoding: 62 62 33
Width: 550
GlyphClass: 2
Flags: W
LayerCount: 2
Fore
SplineSet
62.8578643763 430 m 1,0,-1
 62.8578643763 456 l 1,1,-1
 62.8578643763 476.233584469 l 1,2,-1
 488.142135624 293.050686778 l 1,3,-1
 488.142135624 285 l 1,4,-1
 488.142135624 261 l 1,5,-1
 488.142135624 252.989667541 l 1,6,-1
 60.8578643763 67.7260612111 l 1,7,-1
 60.8578643763 88 l 1,8,-1
 60.8578643763 116 l 1,9,-1
 60.8578643763 124.195577248 l 1,10,-1
 412.672217301 272.128297077 l 1,11,-1
 62.8578643763 421.913304562 l 1,12,-1
 62.8578643763 430 l 1,0,-1
EndSplineSet
EndChar

StartChar: question
Encoding: 63 63 34
Width: 550
GlyphClass: 2
Flags: W
LayerCount: 2
Fore
SplineSet
299 -14.1421356237 m 1,0,-1
 261 -14.1421356237 l 1,1,-1
 246.857864376 -14.1421356237 l 1,2,-1
 246.857864376 2.6645352591e-15 l 1,3,-1
 246.857864376 43 l 1,4,-1
 246.857864376 57.1421356237 l 1,5,-1
 261 57.1421356237 l 1,6,-1
 299 57.1421356237 l 1,7,-1
 313.142135624 57.1421356237 l 1,8,-1
 313.142135624 43 l 1,9,-1
 313.142135624 8.881784197e-16 l 1,10,-1
 313.142135624 -14.1421356237 l 1,11,-1
 299 -14.1421356237 l 1,0,-1
281 716.142135624 m 0,12,13
 359.013513513 716.142135624 359.013513513 716.142135624 407.801953981 667.353695156 c 2,14,-1
 421.944089605 653.211559533 l 2,15,16
 469.142135624 606.013513514 469.142135624 606.013513514 469.142135624 534 c 0,17,18
 469.142135624 500 469.142135624 500 454.642135624 467 c 128,-1,19
 440.142135624 434 440.142135624 434 427.142135624 417.5 c 128,-1,20
 414.142135624 401 414.142135624 401 387.142135624 371 c 128,-1,21
 360.142135624 341 360.142135624 341 347.142135624 325 c 128,-1,22
 334.142135624 309 334.142135624 309 320.142135624 280.5 c 128,-1,23
 306.142135624 252 306.142135624 252 304.142135624 223 c 1,24,-1
 304.142135624 134.857864376 l 1,25,-1
 290 134.857864376 l 1,26,-1
 265 134.857864376 l 1,27,-1
 250.857864376 134.857864376 l 1,28,-1
 250.857864376 225 l 2,29,30
 250.857864376 266 250.857864376 266 273.857864376 303.5 c 128,-1,31
 296.857864376 341 296.857864376 341 337.857864376 384 c 0,32,33
 416.857864376 468 416.857864376 468 416.857864376 529 c 0,34,35
 416.857864376 588.279287975 416.857864376 588.279287975 377.605167175 635.143993438 c 1,36,37
 341.167845487 665.85851611 341.167845487 665.85851611 277.586341775 665.85851611 c 0,38,39
 277.293458875 665.85851611 277.293458875 665.85851611 277 665.857864376 c 0,40,41
 220.598985452 665.857864376 220.598985452 665.857864376 178.679971338 628.204665931 c 1,42,43
 139.659158875 585.619177381 139.659158875 585.619177381 133.142135624 540 c 2,44,-1
 130.78511302 523.500841772 l 1,45,-1
 119 525.857864376 l 1,46,-1
 94 530.857864376 l 1,47,-1
 77.1992905776 534.218006261 l 1,48,-1
 79.8578643763 545 l 2,49,50
 95.2067015856 607.248062016 95.2067015856 607.248062016 134.914050904 646.955411333 c 2,51,-1
 149.056186527 661.097546957 l 2,52,53
 155.914728682 667.956089112 155.914728682 667.956089112 163.5 674.142135624 c 0,54,55
 215 716.142135624 215 716.142135624 281 716.142135624 c 0,12,13
275.142135624 14.1421356237 m 1,56,-1
 284.857864376 14.1421356237 l 1,57,-1
 284.857864376 28.8578643763 l 1,58,-1
 275.142135624 28.8578643763 l 1,59,-1
 275.142135624 14.1421356237 l 1,56,-1
181.521323267 658.98363111 m 1,60,61
 168.15532821 650.360415598 168.15532821 650.360415598 156.320367973 639.70563618 c 0,62,63
 141.43211115 623.161162488 141.43211115 623.161162488 130.375497938 603.070988231 c 1,64,65
 141.943174626 620.101183266 141.943174626 620.101183266 157.77497196 635.9329806 c 0,66,67
 176.62259044 654.78059908 176.62259044 654.78059908 181.521323267 658.98363111 c 1,60,61
400.531468737 645.927694291 m 0,68,69
 390.673845828 654.687195418 390.673845828 654.687195418 379.71827179 661.616777525 c 1,70,71
 382.421265384 659.240644251 382.421265384 659.240644251 393.01898864 648.642920995 c 128,-1,72
 403.616711895 638.04519774 403.616711895 638.04519774 407.642135624 633 c 0,73,74
 421.266346458 615.924322421 421.266346458 615.924322421 429.940714668 597.528686878 c 1,75,76
 419.875745826 624.167596412 419.875745826 624.167596412 400.531468737 645.927694291 c 0,68,69
283.893005032 261.545074323 m 1,77,78
 287.21577021 271.050023213 287.21577021 271.050023213 291.857864376 280.5 c 0,79,80
 305.857864376 309 305.857864376 309 318.857864376 325 c 128,-1,81
 331.857864376 341 331.857864376 341 358.857864376 371 c 128,-1,82
 385.857864376 401 385.857864376 401 397.236857415 415.442568087 c 128,-1,83
 408.615850453 429.885136174 408.615850453 429.885136174 419.218970145 451.566732323 c 1,84,85
 399.88807412 419.8817588 399.88807412 419.8817588 366.142135624 384 c 0,86,87
 325.142135624 341 325.142135624 341 302.142135624 303.5 c 0,88,89
 289.59536432 283.043307657 289.59536432 283.043307657 283.893005032 261.545074323 c 1,77,78
EndSplineSet
EndChar

StartChar: at
Encoding: 64 64 35
Width: 550
GlyphClass: 2
Flags: W
LayerCount: 2
Fore
SplineSet
273 514.142135624 m 0,0,1
 312.3828125 514.142135624 312.3828125 514.142135624 334.843322754 491.68162537 c 0,2,3
 352.163628637 474.361319487 352.163628637 474.361319487 355.002974611 470.733436996 c 1,4,-1
 357.857864376 495 l 1,5,-1
 359.521645038 509.142135624 l 1,6,-1
 372 509.142135624 l 1,7,-1
 392 509.142135624 l 1,8,-1
 407.568754568 509.142135624 l 1,9,-1
 383.142135624 267 l 2,10,11
 381.142135624 249 381.142135624 249 381.142135624 241 c 0,12,13
 381.142135624 206.106553427 381.142135624 206.106553427 392.703993827 187.666520508 c 1,14,15
 403.55964552 181.142135669 403.55964552 181.142135669 418.834524914 181.142135646 c 128,-1,16
 434.109404308 181.142135624 434.109404308 181.142135624 448.566540798 192.603429877 c 0,17,18
 460.182465757 206.681367929 460.182465757 206.681367929 471.357864376 228.5 c 0,19,20
 502.857864376 290 502.857864376 290 502.857864376 404 c 0,21,22
 502.857864376 555.865839984 502.857864376 555.865839984 441.526570202 625.067761528 c 1,23,24
 392.008000307 668.857863984 392.008000307 668.857863984 310 668.857864376 c 0,25,26
 221.263939298 668.857864376 221.263939298 668.857864376 160.208559258 612.78674378 c 0,27,28
 140.87467241 591.784481965 140.87467241 591.784481965 124.642135624 564.5 c 0,29,30
 54.1421356237 446 54.1421356237 446 54.1421356237 230 c 0,31,32
 54.1421356237 100.968458738 54.1421356237 100.968458738 110.399688684 37.484708356 c 1,33,34
 163.840037402 -9.85828856007 163.840037402 -9.85828856007 257.439300232 -9.85828856007 c 0,35,36
 257.719470208 -9.85828856007 257.719470208 -9.85828856007 258 -9.85786437627 c 0,37,38
 325 -9.85786437627 325 -9.85786437627 404 20.1421356237 c 2,39,-1
 412.113951556 23.2233830501 l 1,40,-1
 418.142135624 6 l 1,41,-1
 425.142135624 -14 l 1,42,-1
 427.860898369 -21.7678935575 l 1,43,-1
 411 -28.1421356237 l 2,44,45
 329 -59.1421356237 329 -59.1421356237 262 -59.1421356237 c 0,46,47
 146.792857143 -59.1421356237 146.792857143 -59.1421356237 87.9549234694 -0.304201950262 c 0,48,49
 67.7900072334 19.8607142857 67.7900072334 19.8607142857 62.3578643763 26.5 c 0,50,51
 3.85786437627 98 3.85786437627 98 3.85786437627 236 c 0,52,53
 3.85786437627 457 3.85786437627 457 82.3578643763 580 c 0,54,55
 101.60442085 610.157024793 101.60442085 610.157024793 124.367574551 632.920178494 c 2,56,-1
 138.509710175 647.062314118 l 2,57,58
 208.58953168 717.142135624 208.58953168 717.142135624 312 717.142135624 c 0,59,60
 405.69581749 717.142135624 405.69581749 717.142135624 460.915785973 661.922167141 c 2,61,-1
 475.057921597 647.780031517 l 2,62,63
 485.256204065 637.581749049 485.256204065 637.581749049 494.142135624 625.5 c 0,64,65
 551.142135624 548 551.142135624 548 551.142135624 409 c 128,-1,66
 551.142135624 270 551.142135624 270 514.642135624 207 c 0,67,68
 501.830877346 184.887417219 501.830877346 184.887417219 487.479664679 170.536204552 c 2,69,-1
 473.337529056 156.394068929 l 1,70,71
 429.034937875 129.625561521 429.034937875 129.625561521 416.968410044 129.625561521 c 0,72,73
 415.844329282 129.625561521 415.844329282 129.625561521 415 129.857864376 c 0,74,75
 388.295081967 129.857864376 388.295081967 129.857864376 369.584789035 148.568157308 c 2,76,-1
 355.442653411 162.710292932 l 2,77,78
 350.080932565 168.072013779 350.080932565 168.072013779 346.446658425 174.71698075 c 1,79,80
 339.756942655 165.345899468 339.756942655 165.345899468 332.188460036 157.777416849 c 2,81,-1
 318.046324412 143.635281225 l 2,82,83
 286.268907563 111.857864376 286.268907563 111.857864376 239 111.857864376 c 0,84,85
 198.695238095 111.857864376 198.695238095 111.857864376 171.44154195 139.111560521 c 0,86,87
 153.448340567 157.104761905 153.448340567 157.104761905 149.857864376 161.5 c 0,88,89
 121 197 121 197 120.857864376 276 c 0,90,91
 120.857864376 363 120.857864376 363 155.857864376 431.5 c 0,92,93
 167.409588514 454.108374384 167.409588514 454.108374384 182.556085639 469.254871509 c 2,94,-1
 196.698221262 483.397007132 l 2,95,96
 227.443349754 514.142135624 227.443349754 514.142135624 273 514.142135624 c 0,0,1
197.100859162 174.78849933 m 1,97,98
 215.807170227 161.1406854 215.807170227 161.1406854 242.449876072 161.1406854 c 0,99,100
 242.724516373 161.1406854 242.724516373 161.1406854 243 161.142135624 c 0,101,102
 274.080401662 161.142135624 274.080401662 161.142135624 295.943895911 178.386672112 c 0,103,104
 304.984209338 189.66646206 304.984209338 189.66646206 311.857864376 205 c 0,105,106
 337.857864376 263 337.857864376 263 337.857864376 341.793136937 c 128,-1,107
 337.857864376 420.586273874 337.857864376 420.586273874 313.092460928 453.85192048 c 1,108,109
 296.55907988 465.85786351 296.55907988 465.85786351 273 465.857864376 c 0,110,111
 240.922967763 465.857864376 240.922967763 465.857864376 217.365746401 446.246279921 c 0,112,113
 204.176427889 430.424784475 204.176427889 430.424784475 196.142135624 409 c 0,114,115
 173.142135624 347.666666667 173.142135624 347.666666667 173.142135624 277.153325673 c 128,-1,116
 173.142135624 206.63998468 173.142135624 206.63998468 197.100859162 174.78849933 c 1,97,98
324.054719282 472.250967744 m 1,117,-1
 329.8269087 466.478778326 l 1,118,119
 328.62485431 468.241692217 328.62485431 468.241692217 327.352946942 469.911892403 c 0,120,121
 325.738759465 471.127786745 325.738759465 471.127786745 324.054719282 472.250967744 c 1,117,-1
364 412.857864376 m 1,122,-1
 360 412.857864376 l 1,123,-1
 359.277870136 412.857864376 l 1,124,125
 363.791332639 394.405003108 363.791332639 394.405003108 365.337056816 370.880690272 c 1,126,-1
 369.571596309 412.857864376 l 1,127,-1
 364 412.857864376 l 1,122,-1
352.860050628 240.043467241 m 1,128,129
 350.087783787 230.369592485 350.087783787 230.369592485 346.736883138 221.229841245 c 1,130,-1
 350 220.142135624 l 1,131,-1
 353 219.142135624 l 1,132,-1
 354.255732189 218.723558227 l 1,133,134
 352.9131463 228.465990848 352.9131463 228.465990848 352.860050628 240.043467241 c 1,128,129
110.95955507 8.70713171604 m 1,135,136
 106.930712167 12.2407115314 106.930712167 12.2407115314 96.4034749666 22.7679487317 c 128,-1,137
 85.8762377662 33.2951859321 85.8762377662 33.2951859321 82.9174364359 36.5861782265 c 1,138,139
 88.8905764191 28.251777362 88.8905764191 28.251777362 95.2295384301 21.1214363866 c 0,140,141
 102.68945883 14.4914550077 102.68945883 14.4914550077 110.95955507 8.70713171604 c 1,135,136
479.659177764 196.128504882 m 1,142,143
 474.778657544 189.790368291 474.778657544 189.790368291 469.819650417 184.831360947 c 2,144,-1
 455.677514793 170.689225323 l 1,145,146
 461.019508595 173.908806096 461.019508595 173.908806096 466.173017451 178.078346186 c 0,147,148
 473.105668346 186.147991465 473.105668346 186.147991465 479.659177764 196.128504882 c 1,142,143
384.803186759 165.594360157 m 1,149,-1
 373.700334825 176.697212091 l 1,150,151
 375.396689076 173.268103701 375.396689076 173.268103701 377.528034692 170.162131764 c 0,152,153
 381.072225686 167.606580214 381.072225686 167.606580214 384.803186759 165.594360157 c 1,149,-1
189.250169405 153.324676103 m 1,154,155
 172.647094515 169.927750994 172.647094515 169.927750994 170.076727198 173.159297508 c 1,156,157
 173.963296382 166.527882434 173.963296382 166.527882434 178.732248907 160.783415041 c 0,158,159
 183.791844737 156.637725842 183.791844737 156.637725842 189.250169405 153.324676103 c 1,154,155
203.985436256 461.794238547 m 1,160,161
 203.975303548 461.785745974 203.975303548 461.785745974 203.96517098 461.777251959 c 1,162,-1
 203.985436256 461.794238547 l 1,160,161
EndSplineSet
EndChar

StartChar: A
Encoding: 65 65 36
Width: 550
GlyphClass: 2
Flags: W
LayerCount: 2
Fore
SplineSet
418.013430684 214.142135624 m 1,0,-1
 274.895088397 631.941023046 l 1,1,-1
 225.142135624 489 l 1,2,-1
 130.035608158 214.142135624 l 1,3,-1
 418.013430684 214.142135624 l 1,0,-1
454.861531719 189.142135624 m 1,4,-1
 455.29340341 189.142135624 l 1,5,-1
 515.29340341 14.1421356237 l 1,6,-1
 516.920308404 14.1421356237 l 1,7,-1
 404.938931773 334.878918073 l 1,8,-1
 454.861531719 189.142135624 l 1,4,-1
14 -14.1421356237 m 1,9,-1
 -5.07969159581 -14.1421356237 l 1,10,-1
 247.795420348 710.142135624 l 1,11,-1
 257 710.142135624 l 1,12,-1
 293 710.142135624 l 1,13,-1
 302.204579652 710.142135624 l 1,14,-1
 555.079691596 -14.1421356237 l 1,15,-1
 536 -14.1421356237 l 1,16,-1
 506 -14.1421356237 l 1,17,-1
 496.70659659 -14.1421356237 l 1,18,-1
 436.70659659 160.857864376 l 1,19,-1
 112.212591206 160.857864376 l 1,20,-1
 51.2125912063 -14.1421356237 l 1,21,-1
 42 -14.1421356237 l 1,22,-1
 14 -14.1421356237 l 1,9,-1
EndSplineSet
EndChar

StartChar: B
Encoding: 66 66 37
Width: 550
GlyphClass: 2
Flags: W
LayerCount: 2
Fore
SplineSet
325 -14.1421356237 m 2,0,-1
 40.8578643763 -14.1421356237 l 1,1,-1
 40.8578643763 710.142135624 l 1,2,-1
 299 710.142135624 l 2,3,4
 392.656050955 710.142135624 392.656050955 710.142135624 445.533571342 657.264615238 c 2,5,-1
 459.675706965 643.122479614 l 2,6,7
 507.142135624 595.656050955 507.142135624 595.656050955 507.142135624 524 c 0,8,9
 507.142135624 476 507.142135624 476 477.142135624 428.5 c 0,10,11
 469.00260074 415.612403101 469.00260074 415.612403101 458.433824825 405.043627186 c 2,12,-1
 444.291689201 390.901491562 l 2,13,14
 429.806535227 376.416337587 429.806535227 376.416337587 410.758202723 366.286944936 c 1,15,16
 435.853095418 355.417245334 435.853095418 355.417245334 454.473701512 336.79663924 c 2,17,-1
 468.615837136 322.654503616 l 2,18,19
 479.795981778 311.474358974 479.795981778 311.474358974 488.642135624 297.5 c 0,20,21
 523.142135624 243 523.142135624 243 523.142135624 183 c 0,22,23
 523.142135624 102.952380952 523.142135624 102.952380952 473.112373719 52.9226190476 c 0,24,25
 457.75 37.5602453286 457.75 37.5602453286 456.5 36.3578643763 c 0,26,27
 404 -14.1421356237 404 -14.1421356237 325 -14.1421356237 c 2,0,-1
305.547870951 336.857864376 m 2,28,29
 305.547870951 336.857864376 305.547870951 336.857864376 95.1421356237 336.857864376 c 1,30,-1
 95.1421356237 38.1421356237 l 1,31,-1
 307 38.1421356237 l 2,32,33
 385.456475737 38.1421356237 385.456475737 38.1421356237 429.454472196 76.0900811234 c 1,34,35
 465.857863764 118.069721334 465.857863764 118.069721334 465.85786407 184.824423147 c 128,-1,36
 465.857864376 251.579124959 465.857864376 251.579124959 424.696334983 298.255971201 c 1,37,38
 380.163372797 336.857864376 380.163372797 336.857864376 305.547870951 336.857864376 c 2,28,29
292 657.857864376 m 2,39,-1
 95.1421356237 657.857864376 l 1,40,-1
 95.1421356237 389.142135624 l 1,41,-1
 292 389.142135624 l 2,42,43
 372.343168733 389.142135624 372.343168733 389.142135624 421.15907887 431.388513727 c 1,44,45
 452.857863778 468.217300808 452.857863778 468.217300808 452.857864077 523.88158644 c 128,-1,46
 452.857864376 579.545872072 452.857864376 579.545872072 420.554195384 616.877972887 c 1,47,48
 373.460705749 657.857864376 373.460705749 657.857864376 292 657.857864376 c 2,39,-1
355.857864376 364 m 1,49,-1
 355.857864376 365 l 1,50,-1
 355.857864376 368.855806333 l 1,51,52
 344.432039644 365.702457226 344.432039644 365.702457226 332.089302475 363.792378983 c 1,53,54
 344.463802694 362.507896354 344.463802694 362.507896354 355.857864376 360.001048441 c 1,55,-1
 355.857864376 364 l 1,49,-1
388.633963045 666.349641448 m 1,56,57
 410.86507047 655.351895085 410.86507047 655.351895085 427.945346846 638.271618709 c 2,58,-1
 442.08748247 624.129483086 l 2,59,60
 457.738392671 608.478572885 457.738392671 608.478572885 467.117297144 589.291319107 c 1,61,62
 457.017215267 614.801887929 457.017215267 614.801887929 438.228316363 635.884502455 c 0,63,64
 416.596018063 655.156456422 416.596018063 655.156456422 388.633963045 666.349641448 c 1,56,57
453.920790485 436.890373634 m 1,65,66
 448.792228389 430.217831816 448.792228389 430.217831816 442.69743219 424.123038502 c 0,67,68
 423.819354839 405.24496115 423.819354839 405.24496115 418.907362987 401.19383385 c 128,-1,69
 413.995371135 397.14270655 413.995371135 397.14270655 409.236260267 393.772609237 c 1,70,71
 424.53700285 401.694565559 424.53700285 401.694565559 436.948765578 412.374184692 c 0,72,73
 445.612490362 422.448410556 445.612490362 422.448410556 453.920790485 436.890373634 c 1,65,66
445.979918376 305.734471583 m 2,74,75
 494.142135624 257.572254335 494.142135624 257.572254335 494.142135624 184.779460501 c 128,-1,76
 494.142135624 111.986666667 494.142135624 111.986666667 450.820891179 68.6654222222 c 0,77,78
 436.093333333 53.9378643763 436.093333333 53.9378643763 435.5 53.3578643763 c 0,79,80
 416.9090996 35.1847370185 416.9090996 35.1847370185 391.424093761 24.6038523356 c 1,81,82
 432.537197912 38.7211483062 432.537197912 38.7211483062 451.609845068 60.0993350835 c 0,83,84
 494.858328458 108.840336302 494.858328458 108.840336302 494.858328458 182.517038412 c 0,85,86
 494.858328458 182.758385419 494.858328458 182.758385419 494.857864376 183 c 0,87,88
 494.857864376 243 494.857864376 243 460.357864376 297.5 c 0,89,90
 454.309162904 307.055195079 454.309162904 307.055195079 447.169236842 315.303994256 c 0,91,92
 429.733698892 330.367088317 429.733698892 330.367088317 407.303036932 339.450104236 c 1,93,94
 420.674502333 331.039886547 420.674502333 331.039886547 431.837782753 319.876607206 c 2,95,-1
 445.979918376 305.734471583 l 2,74,75
EndSplineSet
EndChar

StartChar: C
Encoding: 67 67 38
Width: 550
GlyphClass: 2
Flags: W
LayerCount: 2
Fore
SplineSet
301 -21.1421356237 m 0,0,1
 179.497959184 -21.1421356237 179.497959184 -21.1421356237 119.986755519 38.3690680414 c 0,2,3
 105.600721519 52.7551020408 105.600721519 52.7551020408 105.357864376 53 c 0,4,5
 45.8578643763 113 45.8578643763 113 45.8578643763 223 c 2,6,-1
 45.8578643763 478 l 2,7,8
 45.8578643763 580.037735849 45.8578643763 580.037735849 105.059003572 639.238875044 c 0,9,10
 120.339622642 654.519494114 120.339622642 654.519494114 121.5 655.642135624 c 0,11,12
 183 715.142135624 183 715.142135624 297 715.142135624 c 0,13,14
 399.82 715.142135624 399.82 715.142135624 464.5972 650.364935624 c 2,15,-1
 478.739335624 636.2228 l 2,16,17
 503.482135624 611.48 503.482135624 611.48 519.142135624 579 c 2,18,-1
 521.142594887 574.850899306 l 1,19,-1
 505 564.857864376 l 1,20,-1
 484 551.857864376 l 1,21,-1
 478.055900001 548.178183425 l 1,22,-1
 469.857864376 566 l 2,23,24
 458.164519393 591.420315182 458.164519393 591.420315182 439.750771272 611.929566211 c 0,25,26
 382.015703859 663.857864376 382.015703859 663.857864376 298 663.857864376 c 0,27,28
 199.729461355 663.857864376 199.729461355 663.857864376 145.607220811 616.068469504 c 1,29,30
 100.142135624 565.158661221 100.142135624 565.158661221 100.142135624 476.552650195 c 2,31,32
 100.142135624 476.552650195 100.142135624 476.552650195 100.142135624 218 c 0,33,34
 100.142135624 128.998290265 100.142135624 128.998290265 145.6039727 77.460501768 c 1,35,36
 199.417478637 30.1421364753 199.417478637 30.1421364753 301 30.1421356237 c 0,37,38
 384.563848771 30.1421356237 384.563848771 30.1421356237 443.860511608 84.1810977884 c 0,39,40
 466.322433241 108.819459618 466.322433241 108.819459618 481.857864376 141 c 2,41,-1
 489.891485922 157.641073201 l 1,42,-1
 496 155.142135624 l 1,43,-1
 518 146.142135624 l 1,44,-1
 535.092778735 139.149635232 l 1,45,-1
 532.142135624 132 l 2,46,47
 515.264942641 91.1052631579 515.264942641 91.1052631579 484.904216264 60.7445367805 c 2,48,-1
 470.76208064 46.6024011568 l 2,49,50
 454.350877193 30.1911977096 454.350877193 30.1911977096 434 16.8578643763 c 0,51,52
 376 -21.1421356237 376 -21.1421356237 301 -21.1421356237 c 0,0,1
417.5 35.3578643763 m 1,53,54
 442.511646069 48.801043645 442.511646069 48.801043645 463.508169577 67.9584587429 c 0,55,56
 483.817111722 90.2403185817 483.817111722 90.2403185817 497.41673833 117.763831323 c 1,57,58
 483.391220189 95.1001488013 483.391220189 95.1001488013 465.230410861 76.9393390675 c 2,59,-1
 451.088275238 62.7972034437 l 2,60,61
 435.765957447 47.4748856529 435.765957447 47.4748856529 417.5 35.3578643763 c 1,53,54
127.100965648 59.94812761 m 0,62,63
 144.68826263 44.3254034154 144.68826263 44.3254034154 167.090146553 33.3246824445 c 1,64,65
 151.251932603 43.0830891334 151.251932603 43.0830891334 138.367852818 55.967168919 c 2,66,-1
 124.225717194 70.1093045428 l 2,67,68
 107.090463248 87.2445584884 107.090463248 87.2445584884 95.5620259802 109.000244532 c 1,69,70
 107.822579987 81.5255174015 107.822579987 81.5255174015 127.100965648 59.94812761 c 0,62,63
126.431686204 631.95768357 m 0,71,72
 105.643283901 608.874734537 105.643283901 608.874734537 93.1195870951 579.811632937 c 1,73,74
 105.210795968 604.393337294 105.210795968 604.393337294 124.178086803 623.360626467 c 0,75,76
 139.398989899 638.581529563 139.398989899 638.581529563 140.5 639.642135624 c 0,77,78
 150.578539144 649.350820121 150.578539144 649.350820121 162.315687979 657.264101542 c 1,79,80
 142.66247979 646.550261218 142.66247979 646.550261218 126.431686204 631.95768357 c 0,71,72
457.340663106 628.993771205 m 0,81,82
 438.707981117 645.906737654 438.707981117 645.906737654 416.386953904 658.293941364 c 1,83,84
 433.348946683 646.993189571 433.348946683 646.993189571 447.04 633.302135624 c 2,85,-1
 461.182135624 619.16 l 2,86,87
 475.822450642 604.519684982 475.822450642 604.519684982 486.722523571 587.146116248 c 1,88,89
 474.450219546 610.130254837 474.450219546 610.130254837 457.340663106 628.993771205 c 0,81,82
EndSplineSet
EndChar

StartChar: D
Encoding: 68 68 39
Width: 550
GlyphClass: 2
Flags: W
LayerCount: 2
Fore
SplineSet
470.857864376 419 m 0,0,1
 470.857864376 549.134387508 470.857864376 549.134387508 419.427706631 607.98838036 c 1,2,3
 362.999047565 657.857863372 362.999047565 657.857863372 261 657.857864376 c 2,4,-1
 98.1421356237 657.857864376 l 1,5,-1
 98.1421356237 38.1421356237 l 1,6,-1
 261 38.1421356237 l 2,7,8
 360.788965386 38.1421356237 360.788965386 38.1421356237 416.123296913 87.161307824 c 1,9,10
 470.857864376 148.840245972 470.857864376 148.840245972 470.857864376 270.37005211 c 2,11,12
 470.857864376 270.37005211 470.857864376 270.37005211 470.857864376 419 c 0,0,1
42.8578643763 710.142135624 m 1,13,-1
 269 710.142135624 l 2,14,15
 382.274336283 710.142135624 382.274336283 710.142135624 444.424857076 647.991614831 c 2,16,-1
 458.566992699 633.849479207 l 2,17,18
 484.204082526 608.212389381 484.204082526 608.212389381 501.142135624 572 c 0,19,20
 525.142135624 521 525.142135624 521 525.142135624 354 c 128,-1,21
 525.142135624 187 525.142135624 187 502.142135624 132 c 0,22,23
 483.783926669 88.552238806 483.783926669 88.552238806 455.502238096 60.2705502339 c 2,24,-1
 441.360102473 46.1284146102 l 2,25,26
 381.089552239 -14.1421356237 381.089552239 -14.1421356237 257 -14.1421356237 c 2,27,-1
 42.8578643763 -14.1421356237 l 1,28,-1
 42.8578643763 710.142135624 l 1,13,-1
381.70735892 661.587269366 m 1,29,30
 407.407364116 648.743781681 407.407364116 648.743781681 426.968671374 629.182473259 c 0,31,32
 441.62862211 614.522522523 441.62862211 614.522522523 442.142135624 614 c 0,33,34
 467.684311849 588.00971542 467.684311849 588.00971542 481.780825581 546.156144145 c 1,35,36
 477.835537175 561.422445125 477.835537175 561.422445125 472.857864376 572 c 0,37,38
 458.255685234 603.218451959 458.255685234 603.218451959 437.188342018 626.577292793 c 0,39,40
 412.985495813 648.382948069 412.985495813 648.382948069 381.70735892 661.587269366 c 1,29,30
473.857864376 132 m 1,41,42
 459.559334391 101.676109348 459.559334391 101.676109348 437.539384103 79.8664629171 c 2,43,-1
 423.39724848 65.7243272934 l 2,44,45
 405.192807379 47.5198861924 405.192807379 47.5198861924 381.608708799 35.2474787018 c 1,46,47
 391.999663803 39.5136342427 391.999663803 39.5136342427 405.551417326 46.8291832599 c 128,-1,48
 419.10317085 54.1447322772 419.10317085 54.1447322772 434.133985632 67.5786648415 c 0,49,50
 457.794653688 93.9837285662 457.794653688 93.9837285662 473.857864376 132 c 1,41,42
EndSplineSet
EndChar

StartChar: E
Encoding: 69 69 40
Width: 550
GlyphClass: 2
Flags: W
LayerCount: 2
Fore
SplineSet
69.8578643763 -14.1421356237 m 1,0,-1
 69.8578643763 710.142135624 l 1,1,-1
 495.142135624 710.142135624 l 1,2,-1
 495.142135624 696 l 1,3,-1
 495.142135624 672 l 1,4,-1
 495.142135624 657.857864376 l 1,5,-1
 125.142135624 657.857864376 l 1,6,-1
 125.142135624 392.142135624 l 1,7,-1
 459.142135624 392.142135624 l 1,8,-1
 459.142135624 378 l 1,9,-1
 459.142135624 354 l 1,10,-1
 459.142135624 339.857864376 l 1,11,-1
 125.142135624 339.857864376 l 1,12,-1
 125.142135624 38.1421356237 l 1,13,-1
 523.142135624 38.1421356237 l 1,14,-1
 523.142135624 24 l 1,15,-1
 523.142135624 8.881784197e-16 l 1,16,-1
 523.142135624 -14.1421356237 l 1,17,-1
 69.8578643763 -14.1421356237 l 1,0,-1
EndSplineSet
EndChar

StartChar: F
Encoding: 70 70 41
Width: 550
GlyphClass: 2
Flags: W
LayerCount: 2
Fore
SplineSet
129.142135624 327.857864376 m 1,0,-1
 129.142135624 -14.1421356237 l 1,1,-1
 115 -14.1421356237 l 1,2,-1
 88 -14.1421356237 l 1,3,-1
 73.8578643763 -14.1421356237 l 1,4,-1
 73.8578643763 710.142135624 l 1,5,-1
 507.142135624 710.142135624 l 1,6,-1
 507.142135624 696 l 1,7,-1
 507.142135624 672 l 1,8,-1
 507.142135624 657.857864376 l 1,9,-1
 129.142135624 657.857864376 l 1,10,-1
 129.142135624 379.142135624 l 1,11,-1
 461.142135624 379.142135624 l 1,12,-1
 461.142135624 365 l 1,13,-1
 461.142135624 342 l 1,14,-1
 461.142135624 327.857864376 l 1,15,-1
 129.142135624 327.857864376 l 1,0,-1
EndSplineSet
EndChar

StartChar: G
Encoding: 71 71 42
Width: 550
GlyphClass: 2
Flags: W
LayerCount: 2
Fore
SplineSet
275 715.142135624 m 0,0,1
 377.82 715.142135624 377.82 715.142135624 442.5972 650.364935624 c 2,2,-1
 456.739335624 636.2228 l 2,3,4
 481.482135624 611.48 481.482135624 611.48 498.394062384 576.403411164 c 1,5,-1
 483 564.857864376 l 2,6,7
 479 561.857864376 479 561.857864376 471.5 557.857864376 c 128,-1,8
 464 553.857864376 464 553.857864376 455.155545992 547.961561704 c 1,9,-1
 446.857864376 566 l 2,10,11
 435.164519393 591.420315182 435.164519393 591.420315182 416.750771272 611.92956621 c 0,12,13
 359.015703859 663.857864376 359.015703859 663.857864376 276 663.857864376 c 0,14,15
 177.729461355 663.857864376 177.729461355 663.857864376 123.607220811 616.068469504 c 1,16,17
 78.1421356237 565.158661221 78.1421356237 565.158661221 78.1421356237 476.552650195 c 2,18,19
 78.1421356237 476.552650195 78.1421356237 476.552650195 78.1421356237 218 c 0,20,21
 78.1421356237 129.783006552 78.1421356237 129.783006552 124.585612177 77.4541539968 c 1,22,23
 179.071639758 29.1421362404 179.071639758 29.1421362404 274.274551223 29.1421359321 c 128,-1,24
 369.477462689 29.1421356237 369.477462689 29.1421356237 426.647296838 80.4569174118 c 1,25,26
 471.857863979 130.968721101 471.857863979 130.968721101 471.857864376 209 c 2,27,-1
 471.857864376 303.857864376 l 1,28,-1
 308.857864376 303.857864376 l 1,29,-1
 308.857864376 318 l 1,30,-1
 308.857864376 342 l 1,31,-1
 308.857864376 356.142135624 l 1,32,-1
 526.142135624 356.142135624 l 1,33,-1
 526.142135624 222 l 2,34,35
 526.142135624 117.442922374 526.142135624 117.442922374 465.508579192 56.8093659432 c 0,36,37
 449.949771689 41.2505584402 449.949771689 41.2505584402 448.5 39.8578643763 c 0,38,39
 385 -21.1421356237 385 -21.1421356237 275 -21.1421356237 c 0,40,41
 158.49787234 -21.1421356237 158.49787234 -21.1421356237 98.5116704391 38.8440662776 c 0,42,43
 84.1131835252 53.2425531915 84.1131835252 53.2425531915 83.8578643763 53.5 c 0,44,45
 23.8578643763 114 23.8578643763 114 23.8578643763 223 c 2,46,-1
 23.8578643763 478 l 2,47,48
 23.8578643763 580.037735849 23.8578643763 580.037735849 83.0590035717 639.238875044 c 0,49,50
 98.3396226415 654.519494114 98.3396226415 654.519494114 99.5 655.642135624 c 0,51,52
 161 715.142135624 161 715.142135624 275 715.142135624 c 0,0,1
435.340663106 628.993771205 m 0,53,54
 414.221067436 648.164120014 414.221067436 648.164120014 389 661.142135624 c 1,55,56
 408.6 648.742135624 408.6 648.742135624 424.04 633.302135624 c 2,57,-1
 438.182135624 619.16 l 2,58,59
 454.467059456 602.875076167 454.467059456 602.875076167 466.12422996 583.208332594 c 0,60,61
 466.372763285 583.348054803 466.372763285 583.348054803 466.629966855 583.491630453 c 0,62,63
 453.800872901 608.641139082 453.800872901 608.641139082 435.340663106 628.993771205 c 0,53,54
468.304412293 97.4161414846 m 1,64,65
 459.437313368 84.5762582559 459.437313368 84.5762582559 448.100645485 73.2395909423 c 0,66,67
 431.297297297 56.4362427546 431.297297297 56.4362427546 426.025940391 51.5774268241 c 128,-1,68
 420.754583486 46.7186108935 420.754583486 46.7186108935 412.328733634 40.5410367114 c 1,69,70
 429.392603986 50.7300073182 429.392603986 50.7300073182 444.087001198 64.0273191563 c 0,71,72
 457.994164368 79.4189105099 457.994164368 79.4189105099 468.304412293 97.4161414846 c 1,64,65
145.140905521 33.6210536179 m 1,73,74
 129.983994311 43.350793142 129.983994311 43.350793142 117.320710059 56.014077394 c 2,75,-1
 103.178574435 70.1562130178 l 2,76,77
 84.9596109676 88.3751764856 84.9596109676 88.3751764856 72.9658195098 111.404500381 c 1,78,79
 85.5263948822 82.8245878054 85.5263948822 82.8245878054 105.663345705 60.3689123294 c 0,80,81
 123.224783347 44.683944061 123.224783347 44.683944061 145.140905521 33.6210536179 c 1,73,74
71.1195870951 579.811632937 m 1,82,83
 83.2107959684 604.393337294 83.2107959684 604.393337294 102.178086803 623.360626467 c 0,84,85
 117.398989899 638.581529563 117.398989899 638.581529563 118.5 639.642135624 c 0,86,87
 128.578539144 649.350820121 128.578539144 649.350820121 140.315687979 657.264101542 c 1,88,89
 120.66247979 646.550261218 120.66247979 646.550261218 104.431686204 631.95768357 c 0,90,91
 83.6432839011 608.874734537 83.6432839011 608.874734537 71.1195870951 579.811632937 c 1,82,83
EndSplineSet
EndChar

StartChar: H
Encoding: 72 72 43
Width: 550
GlyphClass: 2
Flags: W
LayerCount: 2
Fore
SplineSet
464.857864376 392.142135624 m 1,0,-1
 464.857864376 710.142135624 l 1,1,-1
 479 710.142135624 l 1,2,-1
 505 710.142135624 l 1,3,-1
 519.142135624 710.142135624 l 1,4,-1
 519.142135624 -14.1421356237 l 1,5,-1
 505 -14.1421356237 l 1,6,-1
 479 -14.1421356237 l 1,7,-1
 464.857864376 -14.1421356237 l 1,8,-1
 464.857864376 339.857864376 l 1,9,-1
 86.1421356237 339.857864376 l 1,10,-1
 86.1421356237 -14.1421356237 l 1,11,-1
 72 -14.1421356237 l 1,12,-1
 46 -14.1421356237 l 1,13,-1
 31.8578643763 -14.1421356237 l 1,14,-1
 31.8578643763 710.142135624 l 1,15,-1
 46 710.142135624 l 1,16,-1
 72 710.142135624 l 1,17,-1
 86.1421356237 710.142135624 l 1,18,-1
 86.1421356237 392.142135624 l 1,19,-1
 464.857864376 392.142135624 l 1,0,-1
EndSplineSet
EndChar

StartChar: I
Encoding: 73 73 44
Width: 550
GlyphClass: 2
Flags: W
LayerCount: 2
Fore
SplineSet
207.857864376 673 m 1,0,-1
 207.857864376 696 l 1,1,-1
 207.857864376 710.142135624 l 1,2,-1
 342.142135624 710.142135624 l 1,3,-1
 342.142135624 696 l 1,4,-1
 342.142135624 673 l 1,5,-1
 342.142135624 658.857864376 l 1,6,-1
 328 658.857864376 l 1,7,-1
 302.142135624 658.857864376 l 1,8,-1
 302.142135624 37.1421356237 l 1,9,-1
 328 37.1421356237 l 1,10,-1
 342.142135624 37.1421356237 l 1,11,-1
 342.142135624 23 l 1,12,-1
 342.142135624 8.881784197e-16 l 1,13,-1
 342.142135624 -14.1421356237 l 1,14,-1
 207.857864376 -14.1421356237 l 1,15,-1
 207.857864376 2.6645352591e-15 l 1,16,-1
 207.857864376 23 l 1,17,-1
 207.857864376 37.1421356237 l 1,18,-1
 222 37.1421356237 l 1,19,-1
 247.857864376 37.1421356237 l 1,20,-1
 247.857864376 658.857864376 l 1,21,-1
 222 658.857864376 l 1,22,-1
 207.857864376 658.857864376 l 1,23,-1
 207.857864376 673 l 1,0,-1
EndSplineSet
EndChar

StartChar: J
Encoding: 74 74 45
Width: 550
GlyphClass: 2
Flags: W
LayerCount: 2
Fore
SplineSet
90.8578643763 671 m 1,0,-1
 90.8578643763 695 l 1,1,-1
 90.8578643763 709.142135624 l 1,2,-1
 422.142135624 709.142135624 l 1,3,-1
 422.142135624 170 l 2,4,5
 422.142135624 85.6143497758 422.142135624 85.6143497758 381.273748968 44.7459631201 c 2,6,-1
 367.131613344 30.6038274964 l 2,7,8
 361.022421525 24.4946356767 361.022421525 24.4946356767 354 19.3578643763 c 0,9,10
 300 -20.1421356237 300 -20.1421356237 210 -20.1421356237 c 0,11,12
 174 -20.1421356237 174 -20.1421356237 132.5 -5.64213562373 c 128,-1,13
 91 8.85786437627 91 8.85786437627 64 30.8578643763 c 2,14,-1
 48.5895114055 43.4145587866 l 1,15,-1
 49.8578643763 45 l 1,16,-1
 65.8578643763 65 l 1,17,-1
 78.2580668021 80.5002530323 l 1,18,-1
 80 79.1421356237 l 1,19,20
 163.746381698 37.0937878518 163.746381698 37.0937878518 211 33.1421356237 c 1,21,22
 289.658865833 33.1421356237 289.658865833 33.1421356237 332.135175263 69.1130980978 c 1,23,24
 367.857864206 111.299656985 367.857864206 111.299656985 367.857864376 189 c 2,25,-1
 367.857864376 656.857864376 l 1,26,-1
 90.8578643763 656.857864376 l 1,27,-1
 90.8578643763 671 l 1,0,-1
297.898425231 20.0255238471 m 1,28,29
 335.017743101 31.4726430598 335.017743101 31.4726430598 359.754688079 52.1427174934 c 1,30,31
 388.249848955 86.2099438513 388.249848955 86.2099438513 392.935667127 145.629710537 c 1,32,33
 384.468500879 92.575631611 384.468500879 92.575631611 353.642501118 61.7496323561 c 2,34,-1
 339.500365494 47.6074967324 l 2,35,36
 322.214665772 30.3217970103 322.214665772 30.3217970103 297.898425231 20.0255238471 c 1,28,29
80.133496886 47.4892015778 m 1,37,38
 91.429152698 40.2399895889 91.429152698 40.2399895889 104.646101486 33.9845497356 c 1,39,40
 92.9636770151 40.9201760022 92.9636770151 40.9201760022 81.7479825787 49.5073086937 c 1,41,-1
 80.133496886 47.4892015778 l 1,37,38
EndSplineSet
EndChar

StartChar: K
Encoding: 75 75 46
Width: 550
GlyphClass: 2
Flags: W
LayerCount: 2
Fore
SplineSet
514 -14.1421356237 m 1,0,-1
 507.795484616 -14.1421356237 l 1,1,-1
 282.726401766 386.854308929 l 1,2,-1
 122.142135624 180 l 1,3,-1
 122.142135624 -14.1421356237 l 1,4,-1
 108 -14.1421356237 l 1,5,-1
 82 -14.1421356237 l 1,6,-1
 67.8578643763 -14.1421356237 l 1,7,-1
 67.8578643763 710.142135624 l 1,8,-1
 82 710.142135624 l 1,9,-1
 108 710.142135624 l 1,10,-1
 122.142135624 710.142135624 l 1,11,-1
 122.142135624 255.463776716 l 1,12,-1
 474.827655112 710.142135624 l 1,13,-1
 478 710.142135624 l 1,14,-1
 508 710.142135624 l 1,15,-1
 533.094315844 710.142135624 l 1,16,-1
 316.142135624 430 l 1,17,-1
 565.068309311 -14.1421356237 l 1,18,-1
 543 -14.1421356237 l 1,19,-1
 514 -14.1421356237 l 1,0,-1
520.931690689 14.1421356237 m 1,20,-1
 287.857864376 430 l 1,21,-1
 482.905684156 681.857864376 l 1,22,-1
 481.172344888 681.857864376 l 1,23,-1
 96.1421356237 185.481081081 l 1,24,-1
 96.1421356237 182.942451098 l 1,25,-1
 287.273598234 429.145691071 l 1,26,-1
 520.204515384 14.1421356237 l 1,27,-1
 520.931690689 14.1421356237 l 1,20,-1
EndSplineSet
EndChar

StartChar: L
Encoding: 76 76 47
Width: 550
GlyphClass: 2
Flags: W
LayerCount: 2
Fore
SplineSet
123.857864376 -14.1421356237 m 1,0,-1
 123.857864376 710.142135624 l 1,1,-1
 138 710.142135624 l 1,2,-1
 164 710.142135624 l 1,3,-1
 178.142135624 710.142135624 l 1,4,-1
 178.142135624 38.1421356237 l 1,5,-1
 535.142135624 38.1421356237 l 1,6,-1
 535.142135624 24 l 1,7,-1
 535.142135624 8.881784197e-16 l 1,8,-1
 535.142135624 -14.1421356237 l 1,9,-1
 123.857864376 -14.1421356237 l 1,0,-1
EndSplineSet
EndChar

StartChar: M
Encoding: 77 77 48
Width: 550
GlyphClass: 2
Flags: W
LayerCount: 2
Fore
SplineSet
463 650.142135624 m 1,0,-1
 465 650.142135624 l 1,1,-1
 475.857864376 650.142135624 l 1,2,-1
 475.857864376 681.857864376 l 1,3,-1
 472.095153495 681.857864376 l 1,4,-1
 458.533945339 650.142135624 l 1,5,-1
 463 650.142135624 l 1,0,-1
278 246.857864376 m 1,6,-1
 276 246.857864376 l 1,7,-1
 271.159551695 246.857864376 l 1,8,-1
 274.051726851 240.142135624 l 1,9,-1
 278.92863479 240.142135624 l 1,10,-1
 281.811484206 246.857864376 l 1,11,-1
 278 246.857864376 l 1,6,-1
76.1421356237 681.857864376 m 1,12,-1
 76.1421356237 644.713203436 l 1,13,-1
 87 650.142135624 l 1,14,-1
 89 651.142135624 l 1,15,-1
 93.9748745789 653.629572913 l 1,16,-1
 81.904846505 681.857864376 l 1,17,-1
 76.1421356237 681.857864376 l 1,12,-1
101.142135624 -14.1421356237 m 1,18,-1
 87 -14.1421356237 l 1,19,-1
 62 -14.1421356237 l 1,20,-1
 47.8578643763 -14.1421356237 l 1,21,-1
 47.8578643763 710.142135624 l 1,22,-1
 62 710.142135624 l 1,23,-1
 90 710.142135624 l 1,24,-1
 98.095153495 710.142135624 l 1,25,-1
 277 291.735639765 l 1,26,-1
 455.904846505 710.142135624 l 1,27,-1
 464 710.142135624 l 1,28,-1
 490 710.142135624 l 1,29,-1
 504.142135624 710.142135624 l 1,30,-1
 504.142135624 -14.1421356237 l 1,31,-1
 490 -14.1421356237 l 1,32,-1
 465 -14.1421356237 l 1,33,-1
 450.857864376 -14.1421356237 l 1,34,-1
 450.857864376 574.769595389 l 1,35,-1
 295.07136521 211.857864376 l 1,36,-1
 287 211.857864376 l 1,37,-1
 266 211.857864376 l 1,38,-1
 257.948273149 211.857864376 l 1,39,-1
 101.142135624 575.967031171 l 1,40,-1
 101.142135624 -14.1421356237 l 1,18,-1
EndSplineSet
EndChar

StartChar: N
Encoding: 78 78 49
Width: 550
GlyphClass: 2
Flags: W
LayerCount: 2
Fore
SplineSet
442.857864376 710.142135624 m 1,0,-1
 457 710.142135624 l 1,1,-1
 483 710.142135624 l 1,2,-1
 497.142135624 710.142135624 l 1,3,-1
 497.142135624 -14.1421356237 l 1,4,-1
 483 -14.1421356237 l 1,5,-1
 454 -14.1421356237 l 1,6,-1
 447.654447569 -14.1421356237 l 1,7,-1
 108.142135624 601.695474654 l 1,8,-1
 108.142135624 -14.1421356237 l 1,9,-1
 94 -14.1421356237 l 1,10,-1
 68 -14.1421356237 l 1,11,-1
 53.8578643763 -14.1421356237 l 1,12,-1
 53.8578643763 710.142135624 l 1,13,-1
 68 710.142135624 l 1,14,-1
 97 710.142135624 l 1,15,-1
 103.357473813 710.142135624 l 1,16,-1
 442.857864376 93.3830927662 l 1,17,-1
 442.857864376 710.142135624 l 1,0,-1
EndSplineSet
EndChar

StartChar: O
Encoding: 79 79 50
Width: 550
GlyphClass: 2
Flags: W
LayerCount: 2
Fore
SplineSet
453.360157129 652.546170635 m 2,0,-1
 467.502292753 638.404035011 l 2,1,2
 524.142135624 581.76419214 524.142135624 581.76419214 524.142135624 478 c 2,3,-1
 524.142135624 223 l 2,4,5
 524.142135624 112.791666667 524.142135624 112.791666667 466.741962013 55.3914930556 c 0,6,7
 450.104166667 38.7536977096 450.104166667 38.7536977096 447.5 36.3578643763 c 0,8,9
 385 -21.1421356237 385 -21.1421356237 277 -21.1421356237 c 0,10,11
 160.49787234 -21.1421356237 160.49787234 -21.1421356237 100.511670439 38.8440662776 c 0,12,13
 86.1131835252 53.2425531915 86.1131835252 53.2425531915 85.8578643763 53.5 c 0,14,15
 25.8578643763 114 25.8578643763 114 25.8578643763 223 c 2,16,-1
 25.8578643763 478 l 2,17,18
 25.8578643763 580.037735849 25.8578643763 580.037735849 85.0590035717 639.238875044 c 0,19,20
 100.339622642 654.519494114 100.339622642 654.519494114 101.5 655.642135624 c 0,21,22
 163 715.142135624 163 715.142135624 276.88209607 715.142135624 c 128,-1,23
 390.76419214 715.142135624 390.76419214 715.142135624 453.360157129 652.546170635 c 2,0,-1
81.1421356237 476.547138994 m 2,24,25
 81.1421356237 476.547138994 81.1421356237 476.547138994 81.1421356237 218 c 0,26,27
 81.1421356237 131.663981538 81.1421356237 131.663981538 127.539254277 79.4931140111 c 1,28,29
 181.983225634 31.1421360461 181.983225634 31.1421360461 275.256454915 31.1421358349 c 128,-1,30
 368.529684195 31.1421356237 368.529684195 31.1421356237 422.735276467 79.2715578453 c 1,31,32
 468.857862248 131.509560871 468.857862248 131.509560871 468.857864376 224 c 2,33,-1
 468.857864376 476 l 2,34,35
 468.857864376 562.754203199 468.857864376 562.754203199 423.941844853 613.575590886 c 1,36,37
 369.54102656 661.857863266 369.54102656 661.857863266 278 661.857864376 c 0,38,39
 180.645022192 661.857864376 180.645022192 661.857864376 126.029738575 613.543427465 c 1,40,41
 81.1421356237 563.159037492 81.1421356237 563.159037492 81.1421356237 476.547138994 c 2,24,25
379.705745017 670.481365505 m 1,42,43
 409.102160757 657.130883958 409.102160757 657.130883958 431.282828283 634.950216432 c 2,44,-1
 445.424963907 620.808080808 l 2,45,46
 478.548193855 587.68485086 478.548193855 587.68485086 490.457030916 537.590107012 c 1,47,48
 479.458593116 593.690391515 479.458593116 593.690391515 446.062570104 631.155885489 c 1,49,50
 417.543146239 656.655160738 417.543146239 656.655160738 379.705745017 670.481365505 c 1,42,43
489.348034837 154.760210621 m 1,51,52
 476.839683092 104.658712288 476.839683092 104.658712288 444.257320844 72.0763502686 c 0,53,54
 429.067961165 56.8869905899 429.067961165 56.8869905899 428 55.8578643763 c 0,55,56
 409.803164477 38.3227319636 409.803164477 38.3227319636 387.22781894 26.5891252745 c 1,57,58
 419.915741188 39.9945694428 419.915741188 39.9945694428 445.291370882 62.6408228983 c 0,59,60
 477.714566528 99.137242297 477.714566528 99.137242297 489.348034837 154.760210621 c 1,51,52
168.569788495 24.29279689 m 1,61,62
 141.101107708 37.2331964588 141.101107708 37.2331964588 120.285820016 58.0484841509 c 2,63,-1
 106.143684392 72.1906197747 l 2,64,65
 79.1137081612 99.2205960057 79.1137081612 99.2205960057 65.7950648203 136.347099171 c 1,66,67
 79.1156990445 92.2037548908 79.1156990445 92.2037548908 107.663345705 60.3689123295 c 0,68,69
 133.429464256 37.3559472119 133.429464256 37.3559472119 168.569788495 24.29279689 c 1,61,62
62.5938990944 548.992494175 m 1,70,71
 75.2971198152 591.530165506 75.2971198152 591.530165506 104.575036093 620.808080808 c 0,72,73
 120.333333333 636.566378048 120.333333333 636.566378048 122 638.142135624 c 0,74,75
 142.024076623 657.073989886 142.024076623 657.073989886 168.145451535 669.113246244 c 1,76,77
 132.779305138 655.645963721 132.779305138 655.645963721 106.431686204 631.95768357 c 0,78,79
 75.1644777207 597.239316602 75.1644777207 597.239316602 62.5938990944 548.992494175 c 1,70,71
EndSplineSet
EndChar

StartChar: P
Encoding: 80 80 51
Width: 550
GlyphClass: 2
Flags: W
LayerCount: 2
Fore
SplineSet
65.8578643763 710.142135624 m 1,0,-1
 295 710.142135624 l 2,1,2
 386 710.142135624 386 710.142135624 445 662.142135624 c 0,3,4
 450.743362832 657.469569252 450.743362832 657.469569252 470.06977287 638.143159214 c 0,5,6
 518.142135624 590.07079646 518.142135624 590.07079646 518.142135624 498 c 0,7,8
 518.142135624 423 518.142135624 423 466.642135624 365 c 0,9,10
 463.438786341 361.392344498 463.438786341 361.392344498 445.91339484 343.866952996 c 0,11,12
 395 293 395 293 303 292.857864376 c 2,13,-1
 121.142135624 292.857864376 l 1,14,-1
 121.142135624 -14.1421356237 l 1,15,-1
 107 -14.1421356237 l 1,16,-1
 80 -14.1421356237 l 1,17,-1
 65.8578643763 -14.1421356237 l 1,18,-1
 65.8578643763 710.142135624 l 1,0,-1
294.506831303 657.857864376 m 2,19,20
 294.506831303 657.857864376 294.506831303 657.857864376 121.142135624 657.857864376 c 1,21,-1
 121.142135624 346.142135624 l 1,22,-1
 298 346.142135624 l 2,23,24
 375.098536206 346.142135624 375.098536206 346.142135624 418.427563798 383.288594973 c 1,25,26
 460.85786247 432.259967657 460.85786247 432.259967657 460.857863423 501.782613144 c 128,-1,27
 460.857864376 571.305258631 460.857864376 571.305258631 424.265573194 613.628177019 c 1,28,29
 373.250884118 657.857864376 373.250884118 657.857864376 294.506831303 657.857864376 c 2,19,20
489.142135624 501 m 0,30,31
 489.142135624 431 489.142135624 431 445.142135624 381.5 c 0,32,33
 442.581289063 378.619047619 442.581289063 378.619047619 425.509874712 361.547633268 c 128,-1,34
 408.43846036 344.476218916 408.43846036 344.476218916 384.963108792 333.9955337 c 1,35,36
 415.563301565 344.973099243 415.563301565 344.973099243 438.646937381 365.326155366 c 0,37,38
 489.857862165 423.210790381 489.857862165 423.210790381 489.857864376 498 c 0,39,40
 489.857864376 583.299329175 489.857864376 583.299329175 448.596566733 630.834080768 c 1,41,42
 421.372505312 654.486097067 421.372505312 654.486097067 385.02172382 667.480676267 c 1,43,44
 411.863790495 654.822789574 411.863790495 654.822789574 431.624814815 635.061765253 c 2,45,-1
 445.766950439 620.91962963 l 2,46,47
 489.142135624 577.544444444 489.142135624 577.544444444 489.142135624 501 c 0,30,31
EndSplineSet
EndChar

StartChar: Q
Encoding: 81 81 52
Width: 550
GlyphClass: 2
Flags: W
LayerCount: 2
Fore
SplineSet
453.360157129 652.546170635 m 2,0,-1
 467.502292753 638.404035011 l 2,1,2
 524.142135624 581.76419214 524.142135624 581.76419214 524.142135624 478 c 2,3,-1
 524.142135624 223 l 2,4,5
 524.142135624 121.91588785 524.142135624 121.91588785 456.122919972 53.8966721984 c 2,6,-1
 452.18185525 49.9556074766 l 1,7,-1
 503.523144032 -7.42583292686 l 1,8,-1
 489 -21.1421356237 l 1,9,-1
 471 -38.1421356237 l 1,10,-1
 470.221930389 -38.8769791457 l 1,11,-1
 417.126788444 20.2289335855 l 1,12,13
 359.376212439 -21.1421356237 359.376212439 -21.1421356237 277 -21.1421356237 c 0,14,15
 160.49787234 -21.1421356237 160.49787234 -21.1421356237 100.511670439 38.8440662776 c 0,16,17
 86.1131835252 53.2425531915 86.1131835252 53.2425531915 85.8578643763 53.5 c 0,18,19
 25.8578643763 114 25.8578643763 114 25.8578643763 223 c 2,20,-1
 25.8578643763 478 l 2,21,22
 25.8578643763 580.037735849 25.8578643763 580.037735849 85.0590035717 639.238875044 c 0,23,24
 100.339622642 654.519494114 100.339622642 654.519494114 101.5 655.642135624 c 0,25,26
 163 715.142135624 163 715.142135624 276.88209607 715.142135624 c 128,-1,27
 390.76419214 715.142135624 390.76419214 715.142135624 453.360157129 652.546170635 c 2,0,-1
81.1421356237 476.547138994 m 2,28,29
 81.1421356237 476.547138994 81.1421356237 476.547138994 81.1421356237 218 c 0,30,31
 81.1421356237 131.663981538 81.1421356237 131.663981538 127.539254277 79.4931140111 c 1,32,33
 181.983225634 31.1421360461 181.983225634 31.1421360461 278 31.1421356237 c 0,34,35
 339.101843767 31.1421356237 339.101843767 31.1421356237 383.389567158 57.7644928847 c 1,36,-1
 285.477290221 167.426243054 l 1,37,-1
 300 181.142135624 l 1,38,-1
 318 198.142135624 l 1,39,-1
 318.814369847 198.911262701 l 1,40,-1
 419.380976461 86.3961483697 l 1,41,42
 468.857864376 143.835462849 468.857864376 143.835462849 468.857864376 223.543165642 c 2,43,44
 468.857864376 223.543165642 468.857864376 223.543165642 468.857864376 476 c 0,45,46
 468.857864376 562.754203199 468.857864376 562.754203199 423.941844853 613.575590886 c 1,47,48
 369.54102656 661.857863266 369.54102656 661.857863266 278 661.857864376 c 0,49,50
 180.645022192 661.857864376 180.645022192 661.857864376 126.029738575 613.543427465 c 1,51,52
 81.1421356237 563.159037492 81.1421356237 563.159037492 81.1421356237 476.547138994 c 2,28,29
314.522709779 166.573756946 m 1,53,-1
 415.817022487 53.1241267131 l 1,54,-1
 400 40.8578643763 l 2,55,56
 389.736906955 32.8987309942 389.736906955 32.8987309942 378.420941506 26.6066458093 c 1,57,58
 399.484356441 35.7342558052 399.484356441 35.7342558052 418.87136388 49.7731232613 c 1,59,-1
 471.778069611 -9.1230208543 l 1,60,-1
 474.476855968 -6.57416707314 l 1,61,-1
 423.857864376 50 l 1,62,63
 475.136371204 99.1419023763 475.136371204 99.1419023763 489.894250621 166.036888336 c 1,64,65
 476.067791509 113.882646515 476.067791509 113.882646515 435.865224998 73.6800786218 c 0,66,67
 420.376344086 58.1911977096 420.376344086 58.1911977096 418.19511189 56.0781290195 c 1,68,-1
 317.185630153 169.088737299 l 1,69,-1
 314.522709779 166.573756946 l 1,53,-1
379.705745017 670.481365505 m 1,70,71
 409.102160757 657.130883958 409.102160757 657.130883958 431.282828283 634.950216432 c 2,72,-1
 445.424963907 620.808080808 l 2,73,74
 478.548193855 587.68485086 478.548193855 587.68485086 490.457030916 537.590107012 c 1,75,76
 479.458593116 593.690391515 479.458593116 593.690391515 446.062570104 631.155885489 c 1,77,78
 417.543146239 656.655160738 417.543146239 656.655160738 379.705745017 670.481365505 c 1,70,71
168.569788495 24.29279689 m 1,79,80
 141.101107708 37.2331964588 141.101107708 37.2331964588 120.285820016 58.0484841509 c 2,81,-1
 106.143684392 72.1906197747 l 2,82,83
 79.1137081612 99.2205960057 79.1137081612 99.2205960057 65.7950648203 136.347099171 c 1,84,85
 79.1156990445 92.2037548908 79.1156990445 92.2037548908 107.663345705 60.3689123295 c 0,86,87
 133.429464256 37.3559472119 133.429464256 37.3559472119 168.569788495 24.29279689 c 1,79,80
62.5938990944 548.992494175 m 1,88,89
 75.2971198152 591.530165506 75.2971198152 591.530165506 104.575036093 620.808080808 c 0,90,91
 120.333333333 636.566378048 120.333333333 636.566378048 122 638.142135624 c 0,92,93
 142.024076623 657.073989886 142.024076623 657.073989886 168.145451535 669.113246244 c 1,94,95
 132.779305138 655.645963721 132.779305138 655.645963721 106.431686204 631.95768357 c 0,96,97
 75.1644777207 597.239316602 75.1644777207 597.239316602 62.5938990944 548.992494175 c 1,88,89
EndSplineSet
EndChar

StartChar: R
Encoding: 82 82 53
Width: 550
GlyphClass: 2
Flags: W
LayerCount: 2
Fore
SplineSet
297 657.857864376 m 2,0,-1
 116.142135624 657.857864376 l 1,1,-1
 116.142135624 370.142135624 l 1,2,-1
 294 370.142135624 l 2,3,4
 374.933533844 370.142135624 374.933533844 370.142135624 425.509741144 414.009889243 c 1,5,6
 460.857863303 454.905614415 460.857863303 454.905614415 460.857864376 521 c 0,7,8
 460.857864376 578.67002446 460.857864376 578.67002446 430.916165134 614.171675347 c 0,9,10
 427.12141008 617.385695087 427.12141008 617.385695087 423 620.357864376 c 0,11,12
 371 657.857864376 371 657.857864376 297 657.857864376 c 2,0,-1
305.51504963 342.08669919 m 1,13,-1
 471.964254099 14.1421356237 l 1,14,-1
 472.659006182 14.1421356237 l 1,15,-1
 305.719144945 342.09499912 l 2,16,17
 305.617122646 342.090812192 305.617122646 342.090812192 305.51504963 342.08669919 c 1,13,-1
375.520026451 673.498409267 m 1,18,19
 401.19431963 664.367385568 401.19431963 664.367385568 423 648.642135624 c 0,20,21
 431.331491713 642.633848331 431.331491713 642.633848331 438.328103538 635.637236506 c 2,22,-1
 452.470239161 621.495100882 l 2,23,24
 480.724871514 593.24046853 480.724871514 593.24046853 487.210128859 548.868126111 c 1,25,26
 480.931438215 599.8127786 480.931438215 599.8127786 450.727822893 634.364427137 c 1,27,28
 419.330520846 661.901374164 419.330520846 661.901374164 375.520026451 673.498409267 c 1,18,19
483.078670943 470.574022185 m 1,29,30
 473.160651961 432.868227866 473.160651961 432.868227866 447.019712556 406.727287915 c 0,31,32
 428.878612717 388.586188076 428.878612717 388.586188076 424.5 384.857864376 c 0,33,34
 405.271239286 368.484860204 405.271239286 368.484860204 381.76545288 358.346164769 c 1,35,36
 416.548318086 370.661508013 416.548318086 370.661508013 442.750656815 394.081061982 c 0,37,38
 472.5341861 427.317373989 472.5341861 427.317373989 483.078670943 470.574022185 c 1,29,30
465 -14.1421356237 m 1,39,-1
 458.035745901 -14.1421356237 l 1,40,-1
 290.035745901 316.857864376 l 1,41,-1
 116.142135624 316.857864376 l 1,42,-1
 116.142135624 -14.1421356237 l 1,43,-1
 102 -14.1421356237 l 1,44,-1
 76 -14.1421356237 l 1,45,-1
 61.8578643763 -14.1421356237 l 1,46,-1
 61.8578643763 710.142135624 l 1,47,-1
 306 710.142135624 l 2,48,49
 403.703296703 710.142135624 403.703296703 710.142135624 458.077164594 655.768267733 c 2,50,-1
 472.219300217 641.62613211 l 2,51,52
 517 597 517 597 517.071067812 520.5 c 0,53,54
 517.146038524 439.798774695 517.146038524 439.798774695 464.129643842 386.782380013 c 2,55,-1
 449.987508218 372.640244389 l 2,56,57
 409.014057662 331.666793833 409.014057662 331.666793833 344.972617345 320.546035908 c 1,58,-1
 515.340993818 -14.1421356237 l 1,59,-1
 494 -14.1421356237 l 1,60,-1
 465 -14.1421356237 l 1,39,-1
EndSplineSet
EndChar

StartChar: S
Encoding: 83 83 54
Width: 550
GlyphClass: 2
Flags: W
LayerCount: 2
Fore
SplineSet
34 44.8578643763 m 2,0,-1
 17.5194010054 55.5702537227 l 1,1,-1
 19.8578643763 59 l 1,2,-1
 34.8578643763 81 l 1,3,-1
 45.8618315763 97.1391518934 l 1,4,-1
 49 95.1421356237 l 2,5,6
 148 32.1421356237 148 32.1421356237 265 32.1421356237 c 0,7,8
 356 32.1421356237 356 32.1421356237 414 73.1421356237 c 0,9,10
 420.275775503 77.5784596862 420.275775503 77.5784596862 425.87249288 82.4245603263 c 0,11,12
 457.85849043 119.834494339 457.85849043 119.834494339 457.85849043 175.507039628 c 0,13,14
 457.85849043 175.753341089 457.85849043 175.753341089 457.857864376 176 c 0,15,16
 457.857864376 213 457.857864376 213 444.357864376 242 c 0,17,18
 434.327740946 263.546191072 434.327740946 263.546191072 421.813584427 278.468292285 c 0,19,20
 404.744836726 292.779549872 404.744836726 292.779549872 375.872418363 305.818707124 c 128,-1,21
 347 318.857864376 347 318.857864376 326 324.857864376 c 128,-1,22
 305 330.857864376 305 330.857864376 269.5 338.357864376 c 128,-1,23
 234 345.857864376 234 345.857864376 211.5 352.357864376 c 128,-1,24
 189 358.857864376 189 358.857864376 158.5 372.357864376 c 0,25,26
 127.074003795 386.267731549 127.074003795 386.267731549 109.90842872 403.433306624 c 2,27,-1
 95.7662930964 417.575442248 l 2,28,29
 79.4707676021 433.870967742 79.4707676021 433.870967742 67.6643159892 460.435483871 c 128,-1,30
 55.8578643763 487 55.8578643763 487 55.8578643763 523 c 0,31,32
 55.8578643763 597.982857143 55.8578643763 597.982857143 103.418419478 645.543412245 c 0,33,34
 121.377142857 663.502135624 121.377142857 663.502135624 125.5 667.142135624 c 0,35,36
 181 716.142135624 181 716.142135624 282 716.142135624 c 128,-1,37
 383 716.142135624 383 716.142135624 467 670.142135624 c 2,38,-1
 483.738276463 660.975936608 l 1,39,-1
 481.142135624 656 l 1,40,-1
 469.142135624 633 l 1,41,-1
 460.29975824 616.052110014 l 1,42,-1
 455 618.857864376 l 2,43,44
 370 663.857864376 370 663.857864376 279 663.857864376 c 0,45,46
 204 663.857864376 204 663.857864376 150.5 625.857864376 c 0,47,48
 146.118822447 622.745999946 146.118822447 622.745999946 142.096424646 619.345770482 c 0,49,50
 111.142135624 582.612459333 111.142135624 582.612459333 111.142135624 521 c 0,51,52
 111.142135624 477.488907425 111.142135624 477.488907425 139.40324576 442.09742833 c 1,53,54
 152.940081299 431.707678624 152.940081299 431.707678624 180.470040649 420.424907124 c 128,-1,55
 208 409.142135624 208 409.142135624 224 404.642135624 c 128,-1,56
 240 400.142135624 240 400.142135624 280.5 390.642135624 c 128,-1,57
 321 381.142135624 321 381.142135624 346 373.142135624 c 128,-1,58
 371 365.142135624 371 365.142135624 403.083333333 349.586580068 c 128,-1,59
 435.166666667 334.031024513 435.166666667 334.031024513 452.953703704 316.243987476 c 0,60,61
 468.142135624 301.055555556 468.142135624 301.055555556 469.142135624 300 c 0,62,63
 487.142135624 281 487.142135624 281 500.142135624 249 c 128,-1,64
 513.142135624 217 513.142135624 217 513.142135624 176 c 0,65,66
 513.142135624 104.239583333 513.142135624 104.239583333 466.423114356 57.520562066 c 2,67,-1
 452.280978733 43.3784264422 l 2,68,69
 388.760416667 -20.1421356237 388.760416667 -20.1421356237 261.380208333 -20.1421356237 c 128,-1,70
 134 -20.1421356237 134 -20.1421356237 34 44.8578643763 c 2,0,-1
50.751968013 62.827754171 m 1,71,72
 79.8615305513 45.8793820792 79.8615305513 45.8793820792 111.314607276 34.1837142753 c 1,73,74
 80.9722469706 46.8737214921 80.9722469706 46.8737214921 52.1470866886 64.8739282285 c 1,75,-1
 50.751968013 62.827754171 l 1,71,72
117.240267199 425.060773127 m 0,76,77
 133.240382369 411.822620346 133.240382369 411.822620346 159.086031221 400.38274387 c 128,-1,78
 184.931680073 388.942867395 184.931680073 388.942867395 205.355222795 382.500719004 c 1,79,80
 193.397224637 386.842608682 193.397224637 386.842608682 177.5 393.357864376 c 0,81,82
 146.117476852 406.219554191 146.117476852 406.219554191 132.378472222 419.958558821 c 2,83,-1
 118.236336598 434.100694444 l 2,84,85
 105.37869771 446.958333333 105.37869771 446.958333333 94.3578643763 469 c 0,86,87
 90.6473999291 476.420928894 90.6473999291 476.420928894 88.1341131167 484.4664723 c 1,88,89
 91.0633877138 471.427183575 91.0633877138 471.427183575 98.1570893363 455.466354536 c 128,-1,90
 105.250790959 439.505525496 105.250790959 439.505525496 117.240267199 425.060773127 c 0,76,77
180.141066675 671.507837493 m 1,91,92
 148.565649587 659.409548558 148.565649587 659.409548558 124.894466627 638.320827848 c 0,93,94
 105.243689177 616.182059218 105.243689177 616.182059218 95.068517216 588.579878806 c 1,95,96
 104.311655042 610.443427888 104.311655042 610.443427888 120.551601121 626.68337405 c 2,97,-1
 134.693736745 640.825509674 l 2,98,99
 152.105404884 658.237177814 152.105404884 658.237177814 180.141066675 671.507837493 c 1,91,92
450.033459327 650.58655699 m 1,100,101
 438.011815293 656.381511714 438.011815293 656.381511714 425.618019226 661.275466699 c 1,102,103
 437.708765247 656.037648025 437.708765247 656.037648025 449.681003376 649.911016416 c 1,104,-1
 450.033459327 650.58655699 l 1,100,101
388.389586192 328.181747734 m 1,105,106
 413.922850128 315.279891556 413.922850128 315.279891556 429.165289256 300.037452428 c 2,107,-1
 443.30742488 285.895316804 l 2,108,109
 459.960317442 269.242424242 459.960317442 269.242424242 472.642135624 242 c 0,110,111
 477.3891558 231.802697399 477.3891558 231.802697399 480.466976108 220.616239254 c 1,112,113
 477.302631233 235.597496508 477.302631233 235.597496508 471.857864376 249 c 0,114,115
 460.546966197 276.842210903 460.546966197 276.842210903 445.450966834 294.843158853 c 0,116,117
 426.322308986 311.017198268 426.322308986 311.017198268 388.389586192 328.181747734 c 1,105,106
476.638188578 120.205894205 m 1,118,119
 466.955596463 94.7059339668 466.955596463 94.7059339668 447.408409181 75.1587466759 c 2,120,-1
 433.266273558 61.0166110522 l 2,121,122
 415.865664726 43.6160022201 415.865664726 43.6160022201 390.149011559 30.4391005343 c 1,123,124
 421.264852059 43.6161638155 421.264852059 43.6161638155 444.942353818 64.7350402882 c 0,125,126
 466.744538989 89.2789797118 466.744538989 89.2789797118 476.638188578 120.205894205 c 1,118,119
EndSplineSet
EndChar

StartChar: T
Encoding: 84 84 55
Width: 550
GlyphClass: 2
Flags: W
LayerCount: 2
Fore
SplineSet
249.857864376 657.857864376 m 1,0,-1
 34.8578643763 657.857864376 l 1,1,-1
 34.8578643763 672 l 1,2,-1
 34.8578643763 696 l 1,3,-1
 34.8578643763 710.142135624 l 1,4,-1
 515.142135624 710.142135624 l 1,5,-1
 515.142135624 696 l 1,6,-1
 515.142135624 672 l 1,7,-1
 515.142135624 657.857864376 l 1,8,-1
 303.142135624 657.857864376 l 1,9,-1
 303.142135624 -14.1421356237 l 1,10,-1
 289 -14.1421356237 l 1,11,-1
 264 -14.1421356237 l 1,12,-1
 249.857864376 -14.1421356237 l 1,13,-1
 249.857864376 657.857864376 l 1,0,-1
EndSplineSet
EndChar

StartChar: U
Encoding: 85 85 56
Width: 550
GlyphClass: 2
Flags: W
LayerCount: 2
Fore
SplineSet
439.669054576 39.5172102147 m 2,0,1
 379.009708738 -21.1421356237 379.009708738 -21.1421356237 276.004854369 -21.1421356237 c 0,2,3
 172.497737557 -21.1421356237 172.497737557 -21.1421356237 111.449212752 39.9063891812 c 2,4,-1
 97.3070771279 54.048524805 l 2,5,6
 36.8578643763 114.497737557 36.8578643763 114.497737557 36.8578643763 224 c 2,7,-1
 36.8578643763 710.142135624 l 1,8,-1
 51 710.142135624 l 1,9,-1
 77 710.142135624 l 1,10,-1
 91.1421356237 710.142135624 l 1,11,-1
 91.1421356237 236 l 2,12,13
 91.1421356237 133.11217211 91.1421356237 133.11217211 142.530025144 75.1263836124 c 1,14,15
 191.841163747 31.1416792603 191.841163747 31.1416792603 274.467359377 31.1416792603 c 0,16,17
 274.733506858 31.1416792603 274.733506858 31.1416792603 275 31.1421356237 c 0,18,19
 359.790409078 31.1421356237 359.790409078 31.1421356237 410.499889246 76.029212686 c 1,20,21
 457.857864376 129.838983841 457.857864376 129.838983841 457.857864376 224.4335202 c 2,22,23
 457.857864376 224.4335202 457.857864376 224.4335202 457.857864376 710.142135624 c 1,24,-1
 472 710.142135624 l 1,25,-1
 499 710.142135624 l 1,26,-1
 513.142135624 710.142135624 l 1,27,-1
 513.142135624 214 l 2,28,29
 513.142135624 112.990291262 513.142135624 112.990291262 453.8111902 53.6593458384 c 2,30,-1
 439.669054576 39.5172102147 l 2,0,1
118.82605638 61.1773511387 m 0,31,32
 140.292744359 41.7727801041 140.292744359 41.7727801041 166.481797582 29.336577153 c 1,33,34
 149.404534451 39.5370767129 149.404534451 39.5370767129 135.274454609 53.6671536092 c 0,35,36
 117.655893933 71.2857142857 117.655893933 71.2857142857 114.357864376 75 c 0,37,38
 82.4606003895 110.923132257 82.4606003895 110.923132257 70.3193639609 164.108813249 c 1,39,40
 81.8134854326 102.289284904 81.8134854326 102.289284904 118.82605638 61.1773511387 c 0,31,32
482.435523093 174.881916303 m 1,41,42
 471.975339969 108.791099082 471.975339969 108.791099082 431.934490194 68.7502493075 c 2,43,-1
 417.792354571 54.6081136837 l 2,44,45
 403.361239568 40.1769986807 403.361239568 40.1769986807 385.874658043 29.7701572236 c 1,46,47
 411.502128952 42.0157085603 411.502128952 42.0157085603 432.396101461 60.888157746 c 0,48,49
 473.584877034 106.526602935 473.584877034 106.526602935 482.435523093 174.881916303 c 1,41,42
EndSplineSet
EndChar

StartChar: V
Encoding: 86 86 57
Width: 550
GlyphClass: 2
Flags: W
LayerCount: 2
Fore
SplineSet
261 -14.1421356237 m 1,0,-1
 251.287441339 -14.1421356237 l 1,1,-1
 24.4282874137 710.142135624 l 1,2,-1
 43 710.142135624 l 1,3,-1
 68 710.142135624 l 1,4,-1
 77.7200478985 710.142135624 l 1,5,-1
 275.466968195 77.7341103289 l 1,6,-1
 472.258589359 710.142135624 l 1,7,-1
 482 710.142135624 l 1,8,-1
 507 710.142135624 l 1,9,-1
 525.571712586 710.142135624 l 1,10,-1
 298.712558661 -14.1421356237 l 1,11,-1
 289 -14.1421356237 l 1,12,-1
 261 -14.1421356237 l 1,0,-1
276 19.8578643763 m 1,13,-1
 275 19.8578643763 l 1,14,-1
 268.922287299 19.8578643763 l 1,15,-1
 270.712558661 14.1421356237 l 1,16,-1
 279.287441339 14.1421356237 l 1,17,-1
 281.077712701 19.8578643763 l 1,18,-1
 276 19.8578643763 l 1,13,-1
EndSplineSet
EndChar

StartChar: W
Encoding: 87 87 58
Width: 550
GlyphClass: 2
Flags: W
LayerCount: 2
Fore
SplineSet
125 44.8578643763 m 1,0,-1
 124 44.8578643763 l 1,1,-1
 115.921608304 44.8578643763 l 1,2,-1
 119.496283633 14.1421356237 l 1,3,-1
 122.485611274 14.1421356237 l 1,4,-1
 132.536753634 44.8578643763 l 1,5,-1
 125 44.8578643763 l 1,0,-1
275 451.142135624 m 1,6,-1
 278 451.142135624 l 1,7,-1
 285.621810547 451.142135624 l 1,8,-1
 280.482543798 466.857864376 l 1,9,-1
 273.483944032 466.857864376 l 1,10,-1
 268.30743622 451.142135624 l 1,11,-1
 275 451.142135624 l 1,6,-1
429 44.8578643763 m 1,12,-1
 428 44.8578643763 l 1,13,-1
 420.463246366 44.8578643763 l 1,14,-1
 430.514388726 14.1421356237 l 1,15,-1
 433.503716367 14.1421356237 l 1,16,-1
 437.078391696 44.8578643763 l 1,17,-1
 429 44.8578643763 l 1,12,-1
527 710.142135624 m 1,18,-1
 542.787987614 710.142135624 l 1,19,-1
 458.496283633 -14.1421356237 l 1,20,-1
 446 -14.1421356237 l 1,21,-1
 421 -14.1421356237 l 1,22,-1
 411.485611274 -14.1421356237 l 1,23,-1
 276.5 398.366340786 l 1,24,-1
 141.514388726 -14.1421356237 l 1,25,-1
 132 -14.1421356237 l 1,26,-1
 107 -14.1421356237 l 1,27,-1
 94.503716367 -14.1421356237 l 1,28,-1
 10.2120123856 710.142135624 l 1,29,-1
 26 710.142135624 l 1,30,-1
 51 710.142135624 l 1,31,-1
 63.5214513215 710.142135624 l 1,32,-1
 131.099602716 120.453335102 l 1,33,-1
 254.516055968 495.142135624 l 1,34,-1
 264 495.142135624 l 1,35,-1
 290 495.142135624 l 1,36,-1
 299.517456202 495.142135624 l 1,37,-1
 421.938187006 120.783089251 l 1,38,-1
 489.478548679 710.142135624 l 1,39,-1
 502 710.142135624 l 1,40,-1
 527 710.142135624 l 1,18,-1
EndSplineSet
EndChar

StartChar: X
Encoding: 88 88 59
Width: 550
GlyphClass: 2
Flags: W
LayerCount: 2
Fore
SplineSet
71.2667017742 14.1421356237 m 1,0,-1
 260.857864376 333 l 1,1,2
 260.840336134 333 260.840336134 333 70.5798804076 14.1421356237 c 1,3,-1
 71.2667017742 14.1421356237 l 1,0,-1
85.4021440411 681.857864376 m 1,4,-1
 275 357.243353416 l 1,5,-1
 464.597855959 681.857864376 l 1,6,-1
 463.900062951 681.857864376 l 1,7,-1
 275 357.734259094 l 1,8,-1
 86.0999370487 681.857864376 l 1,9,-1
 85.4021440411 681.857864376 l 1,4,-1
479.420119592 14.1421356237 m 1,10,-1
 289.142135624 333 l 1,11,-1
 478.733298226 14.1421356237 l 1,12,-1
 479.420119592 14.1421356237 l 1,10,-1
458 710.142135624 m 1,13,-1
 487 710.142135624 l 1,14,-1
 509.402144041 710.142135624 l 1,15,-1
 303.142135624 357 l 1,16,-1
 524.579880408 -14.1421356237 l 1,17,-1
 502 -14.1421356237 l 1,18,-1
 473 -14.1421356237 l 1,19,-1
 467.266701774 -14.1421356237 l 1,20,-1
 275 309.215499178 l 1,21,-1
 82.7332982258 -14.1421356237 l 1,22,-1
 77 -14.1421356237 l 1,23,-1
 48 -14.1421356237 l 1,24,-1
 25.4201195924 -14.1421356237 l 1,25,-1
 246.857864376 357 l 1,26,-1
 40.5978559589 710.142135624 l 1,27,-1
 63 710.142135624 l 1,28,-1
 92 710.142135624 l 1,29,-1
 97.9000629513 710.142135624 l 1,30,-1
 275 406.265740906 l 1,31,-1
 452.099937049 710.142135624 l 1,32,-1
 458 710.142135624 l 1,13,-1
EndSplineSet
EndChar

StartChar: Y
Encoding: 89 89 60
Width: 550
GlyphClass: 2
Flags: W
LayerCount: 2
Fore
SplineSet
302.142135624 -14.1421356237 m 1,0,-1
 288 -14.1421356237 l 1,1,-1
 263 -14.1421356237 l 1,2,-1
 248.857864376 -14.1421356237 l 1,3,-1
 248.857864376 289 l 1,4,-1
 33.6304338855 710.142135624 l 1,5,-1
 55 710.142135624 l 1,6,-1
 82 710.142135624 l 1,7,-1
 88.9411531802 710.142135624 l 1,8,-1
 275.963457014 342.845755414 l 1,9,-1
 462.021728354 710.142135624 l 1,10,-1
 469 710.142135624 l 1,11,-1
 495 710.142135624 l 1,12,-1
 516.334818853 710.142135624 l 1,13,-1
 302.142135624 289 l 1,14,-1
 302.142135624 -14.1421356237 l 1,0,-1
EndSplineSet
EndChar

StartChar: Z
Encoding: 90 90 61
Width: 550
GlyphClass: 2
Flags: W
LayerCount: 2
Fore
SplineSet
51.8578643763 2.6645352591e-15 m 1,0,-1
 51.8578643763 25 l 1,1,-1
 430.39881262 657.857864376 l 1,2,-1
 73.8578643763 657.857864376 l 1,3,-1
 73.8578643763 672 l 1,4,-1
 73.8578643763 696 l 1,5,-1
 73.8578643763 710.142135624 l 1,6,-1
 495.142135624 710.142135624 l 1,7,-1
 495.142135624 696 l 1,8,-1
 495.142135624 671 l 1,9,-1
 117.579329365 38.1421356237 l 1,10,-1
 496.142135624 38.1421356237 l 1,11,-1
 496.142135624 24 l 1,12,-1
 496.142135624 8.881784197e-16 l 1,13,-1
 496.142135624 -14.1421356237 l 1,14,-1
 51.8578643763 -14.1421356237 l 1,15,-1
 51.8578643763 2.6645352591e-15 l 1,0,-1
466.857864376 671 m 1,16,17
 466.700927357 671 466.700927357 671 80.1421356237 25 c 1,18,-1
 80.1421356237 22.8003199407 l 1,19,-1
 466.857864376 671 l 1,16,17
EndSplineSet
EndChar

StartChar: bracketleft
Encoding: 91 91 62
Width: 550
GlyphClass: 2
Flags: W
LayerCount: 2
Fore
SplineSet
196.857864376 -125.142135624 m 1,0,-1
 196.857864376 710.142135624 l 1,1,-1
 353.142135624 710.142135624 l 1,2,-1
 353.142135624 696 l 1,3,-1
 353.142135624 672 l 1,4,-1
 353.142135624 657.857864376 l 1,5,-1
 252.142135624 657.857864376 l 1,6,-1
 252.142135624 -73.8578643763 l 1,7,-1
 353.142135624 -73.8578643763 l 1,8,-1
 353.142135624 -88 l 1,9,-1
 353.142135624 -111 l 1,10,-1
 353.142135624 -125.142135624 l 1,11,-1
 196.857864376 -125.142135624 l 1,0,-1
EndSplineSet
EndChar

StartChar: backslash
Encoding: 92 92 63
Width: 550
GlyphClass: 2
Flags: W
LayerCount: 2
Fore
SplineSet
475 -31.1421356237 m 1,0,-1
 469.080036251 -31.1421356237 l 1,1,-1
 27.635692502 728.142135624 l 1,2,-1
 50 728.142135624 l 1,3,-1
 77 728.142135624 l 1,4,-1
 82.958656323 728.142135624 l 1,5,-1
 522.325614924 -31.1421356237 l 1,6,-1
 500 -31.1421356237 l 1,7,-1
 475 -31.1421356237 l 1,0,-1
EndSplineSet
EndChar

StartChar: bracketright
Encoding: 93 93 64
Width: 550
GlyphClass: 2
Flags: W
LayerCount: 2
Fore
SplineSet
196.857864376 -111 m 1,0,-1
 196.857864376 -88 l 1,1,-1
 196.857864376 -73.8578643763 l 1,2,-1
 297.857864376 -73.8578643763 l 1,3,-1
 297.857864376 657.857864376 l 1,4,-1
 196.857864376 657.857864376 l 1,5,-1
 196.857864376 672 l 1,6,-1
 196.857864376 696 l 1,7,-1
 196.857864376 710.142135624 l 1,8,-1
 352.142135624 710.142135624 l 1,9,-1
 352.142135624 -125.142135624 l 1,10,-1
 196.857864376 -125.142135624 l 1,11,-1
 196.857864376 -111 l 1,0,-1
EndSplineSet
EndChar

StartChar: asciicircum
Encoding: 94 94 65
Width: 550
GlyphClass: 2
Flags: W
LayerCount: 2
Fore
SplineSet
415 322.857864376 m 1,0,-1
 406.912601341 322.857864376 l 1,1,-1
 275.144855073 630.62967173 l 1,2,-1
 145.210176 320.857864376 l 1,3,-1
 137 320.857864376 l 1,4,-1
 109 320.857864376 l 1,5,-1
 88.7177214584 320.857864376 l 1,6,-1
 255.998007294 706.142135624 l 1,7,-1
 264 706.142135624 l 1,8,-1
 288 706.142135624 l 1,9,-1
 296.047074355 706.142135624 l 1,10,-1
 461.237196893 322.857864376 l 1,11,-1
 441 322.857864376 l 1,12,-1
 415 322.857864376 l 1,0,-1
EndSplineSet
EndChar

StartChar: underscore
Encoding: 95 95 66
Width: 550
GlyphClass: 2
Flags: W
LayerCount: 2
Fore
SplineSet
15.8578643763 -96 m 1,0,-1
 15.8578643763 -70 l 1,1,-1
 15.8578643763 -55.8578643763 l 1,2,-1
 534.142135624 -55.8578643763 l 1,3,-1
 534.142135624 -70 l 1,4,-1
 534.142135624 -96 l 1,5,-1
 534.142135624 -110.142135624 l 1,6,-1
 15.8578643763 -110.142135624 l 1,7,-1
 15.8578643763 -96 l 1,0,-1
EndSplineSet
EndChar

StartChar: grave
Encoding: 96 96 67
Width: 550
GlyphClass: 2
Flags: W
LayerCount: 2
Fore
SplineSet
332 572.857864376 m 1,0,-1
 317 564.857864376 l 1,1,-1
 314.350242255 563.444660245 l 1,2,-1
 200.042955857 718.163613552 l 1,3,-1
 218 727.142135624 l 1,4,-1
 250 743.142135624 l 1,5,-1
 254.636765778 745.460518513 l 1,6,-1
 349.055841958 581.954313421 l 1,7,-1
 332 572.857864376 l 1,0,-1
235.957044143 707.836386448 m 1,8,-1
 291.465821227 632.703294233 l 1,9,-1
 245.363234222 712.539481487 l 1,10,-1
 235.957044143 707.836386448 l 1,8,-1
EndSplineSet
EndChar

StartChar: a
Encoding: 97 97 68
Width: 550
GlyphClass: 2
Flags: W
LayerCount: 2
Fore
SplineSet
400.857864376 126.51329078 m 2,0,1
 400.857864376 126.51329078 400.857864376 126.51329078 400.857864376 231.857864376 c 1,2,-1
 225 231.857864376 l 2,3,4
 155.445479938 231.857864376 155.445479938 231.857864376 120.446897988 203.966285519 c 1,5,6
 99.1411998461 177.177537813 99.1411998461 177.177537813 99.1411998461 133.578626878 c 0,7,8
 99.1411998461 133.289682603 99.1411998461 133.289682603 99.1421356237 133 c 0,9,10
 99.1421356237 91.0137574551 99.1421356237 91.0137574551 121.659232307 63.4059018265 c 1,11,12
 163.301499416 29.1421356237 163.301499416 29.1421356237 238 29.1421356237 c 0,13,14
 277 29.1421356237 277 29.1421356237 313.328456501 36.6068869596 c 128,-1,15
 349.656913002 44.0716382954 349.656913002 44.0716382954 381.888668675 70.6362790432 c 1,16,17
 400.857864376 93.827521087 400.857864376 93.827521087 400.857864376 126.51329078 c 2,0,1
413 74.1421356237 m 1,18,-1
 415 74.1421356237 l 1,19,-1
 425.857864376 74.1421356237 l 1,20,-1
 425.857864376 101.278271423 l 1,21,22
 421.829087045 86.4936978537 421.829087045 86.4936978537 412.85825543 74.1421356237 c 1,23,-1
 413 74.1421356237 l 1,18,-1
396.131773929 55.8659269656 m 1,24,25
 384.681930842 44.4160838777 384.681930842 44.4160838777 377.424791247 38.7793601277 c 1,26,27
 384.3180413 43.2044810735 384.3180413 43.2044810735 390.333679875 48.2485511526 c 0,28,29
 393.407048331 51.9342961245 393.407048331 51.9342961245 396.131773929 55.8659269656 c 1,24,25
120.719508187 35.9037610054 m 1,30,31
 117.273253396 38.805199216 117.273253396 38.805199216 104.456167708 51.6222849036 c 128,-1,32
 91.6390820204 64.4393705912 91.6390820204 64.4393705912 85.6681011285 74.3548355128 c 1,33,34
 91.8115629793 60.8336389439 91.8115629793 60.8336389439 101.229555742 49.5596695348 c 0,35,36
 109.439633441 42.6610120797 109.439633441 42.6610120797 120.719508187 35.9037610054 c 1,30,31
91.3119609802 202.874871311 m 1,37,38
 94.7586456934 207.371135471 94.7586456934 207.371135471 98.7861244647 211.39861582 c 0,39,40
 114.756222533 227.368713888 114.756222533 227.368713888 116.703829797 229.100105171 c 1,41,42
 109.170987884 224.3716331 109.170987884 224.3716331 102.528693026 218.740070444 c 0,43,44
 96.2190974276 211.263692633 96.2190974276 211.263692633 91.3119609802 202.874871311 c 1,37,38
109.455813183 442.541717593 m 1,45,46
 115.28752437 447.638436212 115.28752437 447.638436212 121.441349165 452.221786236 c 1,47,48
 114.801774028 448.113845575 114.801774028 448.113845575 108.536311015 443.518688647 c 1,49,-1
 109.455813183 442.541717593 l 1,45,46
370.999622187 466.227082994 m 1,50,51
 376.561953117 462.171423382 376.561953117 462.171423382 381.579785817 457.153590683 c 2,52,-1
 395.721921441 443.011455059 l 2,53,54
 411.43956809 427.29380841 411.43956809 427.29380841 419.765149129 404.902769193 c 1,55,56
 412.883497307 431.580644922 412.883497307 431.580644922 398.22909916 449.757079269 c 0,57,58
 387.160396958 458.662236231 387.160396958 458.662236231 370.999622187 466.227082994 c 1,50,51
260 515.142135624 m 0,59,60
 344 515.142135624 344 515.142135624 392 482.642135624 c 0,61,62
 399.402985075 477.629697813 399.402985075 477.629697813 405.664216232 471.368466655 c 2,63,-1
 419.806351856 457.226331031 l 2,64,65
 454 423 454 423 454.142135624 351 c 2,66,-1
 454.142135624 -14.1421356237 l 1,67,-1
 440 -14.1421356237 l 1,68,-1
 415 -14.1421356237 l 1,69,-1
 400.857864376 -14.1421356237 l 1,70,-1
 400.857864376 2.6645352591e-15 l 1,71,-1
 400.857864376 29.8577040612 l 1,72,-1
 397.77461515 26.774454835 l 2,73,74
 350 -21 350 -21 234 -21.1421356237 c 0,75,76
 162 -21.1421356237 162 -21.1421356237 111 13.8578643763 c 0,77,78
 101.511627907 20.3694922832 101.511627907 20.3694922832 93.7885343429 28.0925858473 c 2,79,-1
 79.6463987192 42.2347214711 l 2,80,81
 45.8578643763 76.023255814 45.8578643763 76.023255814 45.8578643763 133.482430827 c 128,-1,82
 45.8578643763 190.941605839 45.8578643763 190.941605839 80.9611730235 226.044914487 c 0,83,84
 98.1678832117 243.251624675 98.1678832117 243.251624675 101.5 246.142135624 c 0,85,86
 143 282.142135624 143 282.142135624 220 282.142135624 c 2,87,-1
 400.857864376 282.142135624 l 1,88,-1
 400.857864376 346 l 2,89,90
 400.857864376 402.734039653 400.857864376 402.734039653 374.256615698 435.453063015 c 1,91,92
 337.57218795 464.857863266 337.57218795 464.857863266 257 464.857864376 c 0,93,94
 167 464.857864376 167 464.857864376 108.544814725 413.457615255 c 1,95,-1
 94.8578643763 428 l 1,96,-1
 78.8578643763 445 l 1,97,-1
 78.1616361609 445.739742479 l 1,98,-1
 93 459.142135624 l 2,99,100
 155 515.142135624 155 515.142135624 260 515.142135624 c 0,59,60
EndSplineSet
EndChar

StartChar: b
Encoding: 98 98 69
Width: 550
GlyphClass: 2
Flags: W
LayerCount: 2
Fore
SplineSet
403.157452179 23.2501343692 m 2,0,1
 358.765182186 -21.1421356237 358.765182186 -21.1421356237 282.096876807 -21.1421356237 c 128,-1,2
 205.428571429 -21.1421356237 205.428571429 -21.1421356237 158.790204082 25.4962317232 c 2,3,-1
 144.648068458 39.6383673469 l 2,4,5
 137.561057888 46.7253779164 137.561057888 46.7253779164 131.142135624 54.8893069475 c 1,6,-1
 131.142135624 -14.1421356237 l 1,7,-1
 117 -14.1421356237 l 1,8,-1
 92 -14.1421356237 l 1,9,-1
 77.8578643763 -14.1421356237 l 1,10,-1
 77.8578643763 735.142135624 l 1,11,-1
 92 735.142135624 l 1,12,-1
 117 735.142135624 l 1,13,-1
 131.142135624 735.142135624 l 1,14,-1
 131.142135624 436.166809881 l 1,15,16
 138.411797826 445.606565029 138.411797826 445.606565029 146.455586752 453.650353955 c 2,17,-1
 160.597722376 467.792489579 l 2,18,19
 207 514 207 514 279 514.142135624 c 0,20,21
 361.232346241 514.142135624 361.232346241 514.142135624 407.874383176 467.50009869 c 2,22,-1
 422.016518799 453.357963066 l 2,23,24
 483.142135624 392.232346241 483.142135624 392.232346241 483.142135624 251 c 0,25,26
 483.142135624 134 483.142135624 134 438.142135624 63.5 c 0,27,28
 428.850637648 48.9433198381 428.850637648 48.9433198381 417.299587803 37.392269993 c 2,29,-1
 403.157452179 23.2501343692 l 2,0,1
278.529014375 465.858471259 m 0,30,31
 278.264723976 465.858471259 278.264723976 465.858471259 278 465.857864376 c 0,32,33
 221.298413772 465.857864376 221.298413772 465.857864376 184.918132931 434.778220177 c 0,34,35
 177.195262165 425.783620712 177.195262165 425.783620712 170.642135624 415 c 0,36,37
 131.142135624 350 131.142135624 350 131.142135624 244 c 0,38,39
 131.142135624 213 131.142135624 213 134.642135624 185 c 128,-1,40
 138.142135624 157 138.142135624 157 148.642135624 124.5 c 0,41,42
 161.439839663 84.8880589253 161.439839663 84.8880589253 181.132793569 61.345802281 c 1,43,44
 220.519093457 28.1408557081 220.519093457 28.1408557081 277.280419693 28.1408557081 c 0,45,46
 277.639804407 28.1408557081 277.639804407 28.1408557081 278 28.1421356237 c 0,47,48
 339.724029295 28.1421356237 339.724029295 28.1421356237 378.217232 61.1469079072 c 1,49,50
 427.857862964 118.810445586 427.857862964 118.810445586 427.857864376 247 c 128,-1,51
 427.857864376 375.189552587 427.857864376 375.189552587 378.217234677 432.853089388 c 1,52,53
 340.163177715 465.858471259 340.163177715 465.858471259 278.529014375 465.858471259 c 0,30,31
169.949330888 43.6294637204 m 1,54,-1
 162.545119942 51.033674667 l 1,55,56
 165.98196966 46.9039835924 165.98196966 46.9039835924 169.949330888 43.6294637204 c 1,54,-1
123.573549252 115.142135624 m 1,57,58
 110.672813443 150.480407465 110.672813443 150.480407465 106.357864376 185 c 0,59,60
 106.25 185 106.25 185 106.142135624 115.142135624 c 1,61,-1
 117 115.142135624 l 1,62,-1
 118 115.142135624 l 1,63,-1
 123.573549252 115.142135624 l 1,57,58
118 375.857864376 m 1,64,-1
 117 375.857864376 l 1,65,-1
 106.142135624 375.857864376 l 1,66,-1
 106.142135624 301.721351132 l 1,67,68
 111.09375271 342.664073742 111.09375271 342.664073742 123.510804261 375.857864376 c 1,69,-1
 118 375.857864376 l 1,64,-1
374.419725185 464.268337923 m 1,70,71
 380.212970593 459.677275449 380.212970593 459.677275449 385.509596533 454.380649922 c 2,72,-1
 399.651732157 440.238514298 l 2,73,74
 427.711735759 412.178510696 427.711735759 412.178510696 441.833729472 364.316334508 c 1,75,76
 428.274467846 414.417549086 428.274467846 414.417549086 400.59883191 446.018883231 c 0,77,78
 388.567411135 456.53032139 388.567411135 456.53032139 374.419725185 464.268337923 c 1,70,71
415.277343423 72.4424102319 m 1,79,80
 408.095610467 62.2053631811 408.095610467 62.2053631811 399.651732157 53.761485702 c 2,81,-1
 385.509596533 39.6193500782 l 2,82,83
 379.515649767 33.6254033121 379.515649767 33.6254033121 372.885710782 28.5350312242 c 1,84,85
 385.233727339 35.5046625765 385.233727339 35.5046625765 395.874728273 44.744946917 c 0,86,87
 406.107250576 56.4960004958 406.107250576 56.4960004958 415.277343423 72.4424102319 c 1,79,80
EndSplineSet
EndChar

StartChar: c
Encoding: 99 99 70
Width: 550
GlyphClass: 2
Flags: W
LayerCount: 2
Fore
SplineSet
324 -21.1421356237 m 0,0,1
 227.477386935 -21.1421356237 227.477386935 -21.1421356237 168.787757885 37.547493426 c 0,2,3
 153.747311612 52.5879396985 153.747311612 52.5879396985 152.857864376 53.5 c 0,4,5
 94 114 94 114 93.9289321881 246 c 128,-1,6
 93.8578643763 378 93.8578643763 378 155.357864376 439.5 c 2,7,-1
 169.5 453.642135624 l 2,8,9
 231 515.142135624 231 515.142135624 323 515.142135624 c 0,10,11
 402 515.142135624 402 515.142135624 462 468.142135624 c 2,12,-1
 477.636832885 455.893283197 l 1,13,-1
 476.142135624 454 l 1,14,-1
 461.142135624 435 l 1,15,-1
 448.808877812 419.377873439 l 1,16,17
 392 465.857864376 392 465.857864376 326 465.857864376 c 0,18,19
 246.978040932 465.857864376 246.978040932 465.857864376 200.140578465 424.864979162 c 1,20,21
 147.142135624 364.437774889 147.142135624 364.437774889 147.142135624 246.039549984 c 128,-1,22
 147.142135624 127.641325079 147.142135624 127.641325079 198.051520977 69.4263969338 c 1,23,24
 245.338751603 28.1421368259 245.338751603 28.1421368259 327 28.1421356237 c 0,25,26
 359 28.1421356237 359 28.1421356237 395.5 41.6421356237 c 128,-1,27
 432 55.1421356237 432 55.1421356237 456.521288361 74.0904039025 c 1,28,-1
 468.142135624 58 l 1,29,-1
 481.142135624 40 l 1,30,-1
 482.555512868 38.043016123 l 1,31,-1
 467 25.8578643763 l 2,32,33
 407 -21.1421356237 407 -21.1421356237 324 -21.1421356237 c 0,0,1
176.29790705 58.7012427743 m 0,34,35
 185.320562093 50.5730385408 185.320562093 50.5730385408 195.169243321 43.7262328562 c 1,36,37
 192.926184736 45.7911644178 192.926184736 45.7911644178 178.146911565 60.5704375886 c 128,-1,38
 163.367638394 75.3497107594 163.367638394 75.3497107594 153.154613668 92.2566781046 c 1,39,40
 163.123895106 73.5099526614 163.123895106 73.5099526614 176.29790705 58.7012427743 c 0,34,35
177.34155565 432.836868097 m 0,41,42
 167.189875477 421.484427681 167.189875477 421.484427681 158.9051843 408.022137938 c 1,43,44
 167.995450434 421.470919391 167.995450434 421.470919391 178.722061907 432.197530864 c 2,45,-1
 190.083111921 443.558580878 l 1,46,47
 183.565435661 438.493928014 183.565435661 438.493928014 177.34155565 432.836868097 c 0,41,42
445.837750191 451.441188699 m 1,48,49
 441.351110698 454.369705343 441.351110698 454.369705343 436.766580986 457.056071494 c 1,50,51
 441.006851247 453.963579284 441.006851247 453.963579284 445.184086707 450.613214953 c 1,52,-1
 445.837750191 451.441188699 l 1,48,49
EndSplineSet
EndChar

StartChar: d
Encoding: 100 100 71
Width: 550
GlyphClass: 2
Flags: W
LayerCount: 2
Fore
SplineSet
414.857864376 244 m 0,0,1
 414.857864376 349 414.857864376 349 374.857864376 414 c 0,2,3
 368.271135401 424.703434584 368.271135401 424.703434584 360.572666606 433.644354263 c 0,4,5
 324.130593592 464.857863714 324.130593592 464.857863714 268 464.857864376 c 0,6,7
 205.473192428 464.857864376 205.473192428 464.857864376 166.640941323 431.541882171 c 1,8,9
 117.141729812 374.164287782 117.141729812 374.164287782 117.141729812 247.724629005 c 0,10,11
 117.141729812 213.004463924 117.141729812 213.004463924 119.642135624 185.5 c 128,-1,12
 122.142135624 158 122.142135624 158 131.642135624 124 c 0,13,14
 142.363077834 85.6303120904 142.363077834 85.6303120904 161.33897269 62.7653525781 c 1,15,16
 202.586212488 28.1408557081 202.586212488 28.1408557081 263.244481222 28.1408557081 c 0,17,18
 263.621794627 28.1408557081 263.621794627 28.1408557081 264 28.1421356237 c 0,19,20
 323.47490191 28.1421356237 323.47490191 28.1421356237 363.161872431 62.3968670079 c 0,21,22
 376.044540577 77.3580032496 376.044540577 77.3580032496 384.357864376 96 c 0,23,24
 400.857864376 133 400.857864376 133 407.857864376 169 c 128,-1,25
 414.857864376 205 414.857864376 205 414.857864376 244 c 0,0,1
453 -14.1421356237 m 1,26,-1
 429 -14.1421356237 l 1,27,-1
 414.857864376 -14.1421356237 l 1,28,-1
 414.857864376 56.2812072611 l 1,29,30
 407.618375256 46.8310783417 407.618375256 46.8310783417 399.45743219 38.6701352758 c 2,31,-1
 385.315296566 24.527999652 l 2,32,33
 365.677419355 4.89012244079 365.677419355 4.89012244079 342.838709677 -4.62600659147 c 128,-1,34
 320 -14.1421356237 320 -14.1421356237 301 -17.6421356237 c 128,-1,35
 282 -21 282 -21 258 -21.1421356237 c 0,36,37
 183.37357631 -21.1421356237 183.37357631 -21.1421356237 139.515678105 22.7157625814 c 2,38,-1
 125.373542481 36.8578982052 l 2,39,40
 62.8578643763 99.3735763098 62.8578643763 99.3735763098 62.8578643763 251 c 0,41,42
 62.8578643763 290 62.8578643763 290 67.8578643763 323.5 c 128,-1,43
 72.8578643763 357 72.8578643763 357 85.8578643763 390.5 c 0,44,45
 100.623385441 428.549611973 100.623385441 428.549611973 124.79846355 452.724690083 c 2,46,-1
 138.940599174 466.866825706 l 2,47,48
 158.863636364 486.789862896 158.863636364 486.789862896 190.931818182 500.46599926 c 128,-1,49
 223 514.142135624 223 514.142135624 267 514.142135624 c 0,50,51
 331 514.142135624 331 514.142135624 367.5 485.142135624 c 0,52,53
 376.475409836 478.010988083 376.475409836 478.010988083 384.694974469 469.79142345 c 2,54,-1
 398.837110093 455.649287826 l 2,55,56
 407.242710715 447.243687204 407.242710715 447.243687204 414.857864376 437.699842957 c 1,57,-1
 414.857864376 735.142135624 l 1,58,-1
 429 735.142135624 l 1,59,-1
 453 735.142135624 l 1,60,-1
 467.142135624 735.142135624 l 1,61,-1
 467.142135624 -14.1421356237 l 1,62,-1
 453 -14.1421356237 l 1,26,-1
428 116.142135624 m 1,63,-1
 429 116.142135624 l 1,64,-1
 438.857864376 116.142135624 l 1,65,-1
 438.857864376 184.814449992 l 1,66,67
 433.584001564 149.516376112 433.584001564 149.516376112 420.948662449 116.142135624 c 1,68,-1
 428 116.142135624 l 1,63,-1
389.445807286 60.1265244653 m 1,69,70
 387.125710996 57.5528061415 387.125710996 57.5528061415 377.464489818 47.8915849638 c 128,-1,71
 367.803268641 38.230363786 367.803268641 38.230363786 364.911969752 35.6489141298 c 1,72,73
 371.632440725 40.2883165838 371.632440725 40.2883165838 378.137315442 46.0488174032 c 0,74,75
 383.961250755 52.597459359 383.961250755 52.597459359 389.445807286 60.1265244653 c 1,69,70
169.892968226 27.8936377739 m 1,76,77
 160.987955588 34.1954913958 160.987955588 34.1954913958 153.838561385 41.3448843871 c 0,78,79
 135.59339168 59.5900540916 135.59339168 59.5900540916 132.068589534 63.9722346279 c 1,80,81
 138.863563411 53.2890548126 138.863563411 53.2890548126 146.786699589 44.2139735736 c 0,82,83
 157.515176699 34.8783275968 157.515176699 34.8783275968 169.892968226 27.8936377739 c 1,76,77
121.920050052 408.215092961 m 1,84,85
 132.020229306 425.739190313 132.020229306 425.739190313 145.205915566 438.924877386 c 0,86,87
 163.231038704 456.950000524 163.231038704 456.950000524 167.381605728 460.45675507 c 1,88,89
 155.855257684 453.614072107 155.855257684 453.614072107 146.302867565 445.404803579 c 0,90,91
 132.261409545 429.122510073 132.261409545 429.122510073 121.920050052 408.215092961 c 1,84,85
438.857864376 380.857864376 m 1,92,-1
 429 380.857864376 l 1,93,-1
 428 380.857864376 l 1,94,-1
 421.079380439 380.857864376 l 1,95,-1
 413.857864376 395 l 2,96,97
 398.297999782 425.471401498 398.297999782 425.471401498 377.484023276 448.376882889 c 0,98,99
 368.242735536 456.760209061 368.242735536 456.760209061 360.543325003 461.953749254 c 1,100,101
 364.302086292 458.736275747 364.302086292 458.736275747 379.005129826 444.033232213 c 0,102,103
 426.278642639 396.7597194 426.278642639 396.7597194 438.857864376 308.442790747 c 1,104,-1
 438.857864376 380.857864376 l 1,92,-1
EndSplineSet
EndChar

StartChar: e
Encoding: 101 101 72
Width: 550
GlyphClass: 2
Flags: W
LayerCount: 2
Fore
SplineSet
428.120064688 286.142135624 m 1,0,1
 421.699994266 382.873169638 421.699994266 382.873169638 379.374921486 431.538262991 c 1,2,3
 339.742331618 465.857863415 339.742331618 465.857863415 276.508443942 465.857863896 c 128,-1,4
 213.274556267 465.857864376 213.274556267 465.857864376 171.707856935 429.609395415 c 1,5,6
 127.614674182 379.249577316 127.614674182 379.249577316 120.065330166 286.142135624 c 1,7,-1
 428.120064688 286.142135624 l 1,0,1
149.777037688 52.6462511488 m 0,8,9
 162.270119695 41.6663394508 162.270119695 41.6663394508 177 33.3578643763 c 1,10,11
 168.4 40.2578643763 168.4 40.2578643763 160.88 47.7778643763 c 2,12,-1
 146.737864376 61.92 l 2,13,14
 135.76645656 72.8914078164 135.76645656 72.8914078164 127.093909586 85.182532058 c 1,15,16
 136.958822915 67.1508086772 136.958822915 67.1508086772 149.777037688 52.6462511488 c 0,8,9
127.444471321 408.047440607 m 1,17,18
 137.621489205 424.28339884 137.621489205 424.28339884 150.309075714 436.970985349 c 2,19,-1
 164.451211338 451.113120973 l 1,20,21
 155.99083685 445.257347195 155.99083685 445.257347195 147.719099024 438.269759172 c 0,22,23
 136.552590379 425.258156425 136.552590379 425.258156425 127.444471321 408.047440607 c 1,17,18
369.448972506 467.633357059 m 1,24,25
 378.557839746 461.139850628 378.557839746 461.139850628 386.641975309 453.055715871 c 0,26,27
 405.919913402 433.777777778 405.919913402 433.777777778 410.642135624 428 c 0,28,29
 427.392755832 407.50512351 427.392755832 407.50512351 438.16277764 378.932555499 c 1,30,31
 423.777606501 419.786320272 423.777606501 419.786320272 399.658330926 447.477768439 c 0,32,33
 386.008612937 459.343086681 386.008612937 459.343086681 369.448972506 467.633357059 c 1,24,25
291 -21.1421356237 m 0,34,35
 194.842332613 -21.1421356237 194.842332613 -21.1421356237 142.50597801 31.1942189798 c 2,36,-1
 128.363842386 45.3363546035 l 2,37,38
 65.8578643763 107.842332613 65.8578643763 107.842332613 65.8578643763 245 c 0,39,40
 65.8578643763 318 65.8578643763 318 82.6670749026 368.427631579 c 128,-1,41
 99.4762854289 418.855263158 99.4762854289 418.855263158 126.198930858 445.577908587 c 0,42,43
 142.631578947 462.010556676 142.631578947 462.010556676 145 464.142135624 c 0,44,45
 175 491.142135624 175 491.142135624 207.5 503.142135624 c 128,-1,46
 240 515.142135624 240 515.142135624 277 515.142135624 c 0,47,48
 360.769230769 515.142135624 360.769230769 515.142135624 406.949704142 468.961662251 c 2,49,-1
 421.091839766 454.819526627 l 2,50,51
 429.48828947 446.423076923 429.48828947 446.423076923 436.642135624 436.5 c 0,52,53
 483.142135624 372 483.142135624 372 483.142135624 271 c 2,54,-1
 483.142135624 251 l 1,55,-1
 483.142135624 236.857864376 l 1,56,-1
 117.178199636 236.857864376 l 1,57,58
 117.87763558 177.646400139 117.87763558 177.646400139 132.142135624 132 c 0,59,60
 143.437656677 96.7014967075 143.437656677 96.7014967075 168.189809474 69.1280971233 c 0,61,62
 172.443305193 65.2980868557 172.443305193 65.2980868557 177 61.6421356237 c 0,63,64
 220 27.1421356237 220 27.1421356237 287 27.1421356237 c 128,-1,65
 354 27.1421356237 354 27.1421356237 412.501120541 67.1692180992 c 1,66,-1
 425.142135624 52 l 1,67,-1
 440.142135624 34 l 1,68,-1
 442.419044758 31.2677090387 l 1,69,-1
 426 19.8578643763 l 2,70,71
 367 -21.1421356237 367 -21.1421356237 291 -21.1421356237 c 0,34,35
EndSplineSet
EndChar

StartChar: f
Encoding: 102 102 73
Width: 550
GlyphClass: 2
Flags: W
LayerCount: 2
Fore
SplineSet
50.8578643763 472 m 1,0,-1
 50.8578643763 496 l 1,1,-1
 50.8578643763 510.142135624 l 1,2,-1
 228.857864376 510.142135624 l 1,3,-1
 228.857864376 575 l 2,4,5
 228.857864376 658.268817204 228.857864376 658.268817204 266.015454849 695.426407677 c 0,6,7
 282.268817204 711.679770032 282.268817204 711.679770032 284.5 713.642135624 c 0,8,9
 326 750 326 750 402 750.142135624 c 0,10,11
 453 750.142135624 453 750.142135624 506 730.142135624 c 2,12,-1
 523.034845183 723.713892158 l 1,13,-1
 520.142135624 716 l 1,14,-1
 511.142135624 692 l 1,15,-1
 504.787519617 675.054357314 l 1,16,-1
 497 677.857864376 l 2,17,18
 447 695.857864376 447 695.857864376 393.256404961 695.857864376 c 128,-1,19
 339.512809923 695.857864376 339.512809923 695.857864376 307.953764407 670.540217806 c 1,20,21
 282.142136709 638.377575417 282.142136709 638.377575417 282.142135624 580 c 2,22,-1
 282.142135624 510.142135624 l 1,23,-1
 505.142135624 510.142135624 l 1,24,-1
 505.142135624 496 l 1,25,-1
 505.142135624 472 l 1,26,-1
 505.142135624 457.857864376 l 1,27,-1
 282.142135624 457.857864376 l 1,28,-1
 282.142135624 -14.1421356237 l 1,29,-1
 268 -14.1421356237 l 1,30,-1
 243 -14.1421356237 l 1,31,-1
 228.857864376 -14.1421356237 l 1,32,-1
 228.857864376 457.857864376 l 1,33,-1
 50.8578643763 457.857864376 l 1,34,-1
 50.8578643763 472 l 1,0,-1
287.631311 688.019642825 m 0,35,36
 275.837228812 673.478047739 275.837228812 673.478047739 268.605433808 653.274819208 c 1,37,38
 275.750036577 667.396048265 275.750036577 667.396048265 286.355911369 678.001922961 c 2,39,-1
 300.498046992 692.144058585 l 2,40,41
 310.043432108 701.689443701 310.043432108 701.689443701 322.392504346 708.387335041 c 1,42,43
 302.833716409 700.507951682 302.833716409 700.507951682 287.631311 688.019642825 c 0,35,36
EndSplineSet
EndChar

StartChar: g
Encoding: 103 103 74
Width: 550
GlyphClass: 2
Flags: W
LayerCount: 2
Fore
SplineSet
414.857864376 252 m 0,0,1
 414.857864376 332.454545455 414.857864376 332.454545455 384.357864376 399 c 0,2,3
 376.277835525 416.629153858 376.277835525 416.629153858 364.0012225 430.901040404 c 0,4,5
 324.623424743 464.857864376 324.623424743 464.857864376 268 464.857864376 c 0,6,7
 204.829094362 464.857864376 204.829094362 464.857864376 165.697726317 431.260438232 c 1,8,9
 116.142136097 373.759426463 116.142136097 373.759426463 116.142135861 247.402154277 c 128,-1,10
 116.142135624 121.04488209 116.142135624 121.04488209 165.495386777 63.7680834775 c 1,11,12
 204.834415318 30.1415398583 204.834415318 30.1415398583 267.472280294 30.1415398583 c 0,13,14
 267.735933753 30.1415398583 267.735933753 30.1415398583 268 30.1421356237 c 0,15,16
 323.01203521 30.1421356237 323.01203521 30.1421356237 359.345974706 61.3511045795 c 0,17,18
 367.429850131 70.7098966622 367.429850131 70.7098966622 374.357864376 82 c 0,19,20
 414.857864376 148 414.857864376 148 414.857864376 252 c 0,0,1
467.142135624 509.142135624 m 1,21,-1
 467.142135624 3 l 2,22,23
 467.142135624 -97.4298245614 467.142135624 -97.4298245614 416.927223343 -147.644736842 c 0,24,25
 399.5 -165.071960185 399.5 -165.071960185 396 -168.142135624 c 0,26,27
 339 -218.142135624 339 -218.142135624 249 -218.142135624 c 0,28,29
 177 -218.142135624 177 -218.142135624 123 -177.142135624 c 2,30,-1
 107.177354659 -165.128645642 l 1,31,-1
 108.857864376 -163 l 1,32,-1
 123.857864376 -144 l 1,33,-1
 136.086026758 -128.510994317 l 1,34,35
 192 -167.857864376 192 -167.857864376 249 -167.857864376 c 0,36,37
 329.058936086 -167.857864376 329.058936086 -167.857864376 377.019534927 -125.99046793 c 1,38,39
 414.857864122 -82.4284109353 414.857864122 -82.4284109353 414.857864376 -10 c 2,40,-1
 414.857864376 60.6886518092 l 1,41,42
 407.230808131 50.7036150358 407.230808131 50.7036150358 398.763551927 42.2363588321 c 2,43,-1
 384.621416303 28.0942232083 l 2,44,45
 337.385057471 -19.1421356237 337.385057471 -19.1421356237 264 -19.1421356237 c 0,46,47
 183.672727273 -19.1421356237 183.672727273 -19.1421356237 137.667107438 26.863484211 c 2,48,-1
 123.524971814 41.0056198347 l 2,49,50
 61.8578643763 102.672727273 61.8578643763 102.672727273 61.8578643763 247 c 0,51,52
 61.8578643763 360 61.8578643763 360 107.857864376 430.5 c 0,53,54
 117.133584541 444.716049383 117.133584541 444.716049383 128.483023143 456.065487985 c 2,55,-1
 142.625158766 470.207623608 l 2,56,57
 188 515 188 515 265 515.142135624 c 0,58,59
 318 515.142135624 318 515.142135624 358.5 493.142135624 c 0,60,61
 373.336633663 485.082729683 373.336633663 485.082729683 386.629938241 471.789425105 c 2,62,-1
 400.772073865 457.647289481 l 2,63,64
 408.046017256 450.37334609 408.046017256 450.37334609 414.857864376 441.532293607 c 1,65,-1
 414.857864376 509.142135624 l 1,66,-1
 429 509.142135624 l 1,67,-1
 453 509.142135624 l 1,68,-1
 467.142135624 509.142135624 l 1,21,-1
429 121.142135624 m 1,69,-1
 438.857864376 121.142135624 l 1,70,-1
 438.857864376 188.368797228 l 1,71,72
 433.589398115 151.716051268 433.589398115 151.716051268 421.84217849 121.142135624 c 1,73,-1
 428 121.142135624 l 1,74,-1
 429 121.142135624 l 1,69,-1
438.857864376 381.857864376 m 1,75,-1
 429 381.857864376 l 1,76,-1
 428 381.857864376 l 1,77,-1
 420.581174755 381.857864376 l 1,78,-1
 415.749916052 392.020167164 l 1,79,80
 432.506820304 353.247826609 432.506820304 353.247826609 438.857864376 310.538950023 c 1,81,-1
 438.857864376 381.857864376 l 1,75,-1
395.462895776 -140.327262919 m 0,82,83
 403.68273202 -130.862719441 403.68273202 -130.862719441 410.345573827 -119.841182008 c 1,84,85
 404.892019427 -126.893393576 404.892019427 -126.893393576 398.531622987 -133.25378749 c 0,86,87
 380.331956415 -151.453454062 380.331956415 -151.453454062 375.82084174 -155.310319173 c 1,88,89
 386.08597908 -148.491685671 386.08597908 -148.491685671 395.462895776 -140.327262919 c 0,82,83
139.416381753 -160.119288236 m 1,90,91
 145.20799119 -163.687886539 145.20799119 -163.687886539 151.187602892 -166.828257255 c 1,92,93
 145.537803252 -163.359759757 145.537803252 -163.359759757 139.920403458 -159.480860743 c 1,94,-1
 139.416381753 -160.119288236 l 1,90,91
377.403902005 49.572096513 m 0,95,96
 379.103467986 51.7191275535 379.103467986 51.7191275535 380.756272772 53.9506300398 c 1,97,-1
 370.888013203 44.0823704704 l 1,98,99
 374.201369294 46.7271357602 374.201369294 46.7271357602 377.403902005 49.572096513 c 0,95,96
174.815530442 28.2006378232 m 1,100,101
 165.971645861 34.4756381845 165.971645861 34.4756381845 158.201904714 42.2453803176 c 2,102,-1
 144.05976909 56.3875159413 l 2,103,104
 124.782195739 75.6650892926 124.782195739 75.6650892926 112.116940714 104.144140864 c 1,105,106
 124.843606466 71.3063696156 124.843606466 71.3063696156 144.940898149 48.3483719789 c 0,107,108
 158.537453856 36.4773157214 158.537453856 36.4773157214 174.815530442 28.2006378232 c 1,100,101
133.969610813 427.10582385 m 1,109,110
 138.857226475 433.235542233 138.857226475 433.235542233 144.262904653 438.641221181 c 2,111,-1
 158.405040277 452.783356805 l 2,112,113
 164.640733229 459.019049757 164.640733229 459.019049757 171.565794251 464.291288721 c 1,114,115
 159.996689267 457.519743322 159.996689267 457.519743322 149.897492828 448.716265299 c 0,116,117
 141.525497771 439.140509333 141.525497771 439.140509333 133.969610813 427.10582385 c 1,109,110
353.234193502 467.599008779 m 1,118,119
 363.099736958 460.613827222 363.099736958 460.613827222 371.365079365 452.34848483 c 2,120,-1
 385.507214989 438.206349206 l 2,121,122
 396.067765471 427.645798724 396.067765471 427.645798724 404.015999903 414.99539514 c 1,123,124
 392.52812893 435.297697233 392.52812893 435.297697233 379.449715448 450.205978775 c 0,125,126
 369.390638089 458.941960683 369.390638089 458.941960683 362.641816055 462.607988228 c 128,-1,127
 355.892994021 466.274015772 355.892994021 466.274015772 353.234193502 467.599008779 c 1,118,119
EndSplineSet
EndChar

StartChar: h
Encoding: 104 104 75
Width: 550
GlyphClass: 2
Flags: W
LayerCount: 2
Fore
SplineSet
423.857864376 -14.1421356237 m 1,0,-1
 423.857864376 327 l 2,1,2
 423.857864376 392.46366589 423.857864376 392.46366589 392.162755359 430.145199245 c 1,3,4
 352.167913903 463.858458622 352.167913903 463.858458622 284.568107151 463.858458622 c 0,5,6
 284.284296864 463.858458622 284.284296864 463.858458622 284 463.857864376 c 0,7,8
 217.704960706 463.857864376 217.704960706 463.857864376 170.485581219 421.467508214 c 1,9,10
 127.142136559 373.116880466 127.142136559 373.116880466 127.142135624 302 c 2,11,-1
 127.142135624 -14.1421356237 l 1,12,-1
 113 -14.1421356237 l 1,13,-1
 89 -14.1421356237 l 1,14,-1
 74.8578643763 -14.1421356237 l 1,15,-1
 74.8578643763 735.142135624 l 1,16,-1
 89 735.142135624 l 1,17,-1
 113 735.142135624 l 1,18,-1
 127.142135624 735.142135624 l 1,19,-1
 127.142135624 439.21634359 l 1,20,21
 130.360469066 442.875153709 130.360469066 442.875153709 147.493960023 460.008644667 c 128,-1,22
 164.62745098 477.142135624 164.62745098 477.142135624 186.5 488.642135624 c 0,23,24
 235 514.142135624 235 514.142135624 286 514.142135624 c 0,25,26
 374.0125 514.142135624 374.0125 514.142135624 418.605546875 469.549088749 c 2,27,-1
 432.747682499 455.406953125 l 2,28,29
 476 412 476 412 476.142135624 334 c 2,30,-1
 476.142135624 -14.1421356237 l 1,31,-1
 462 -14.1421356237 l 1,32,-1
 438 -14.1421356237 l 1,33,-1
 423.857864376 -14.1421356237 l 1,0,-1
115 383.857864376 m 1,34,-1
 113 383.857864376 l 1,35,-1
 103.142135624 383.857864376 l 1,36,-1
 103.142135624 344.467376744 l 1,37,38
 107.597621456 365.379510576 107.597621456 365.379510576 116.686650043 383.857864376 c 1,39,-1
 115 383.857864376 l 1,34,-1
141.267638107 420.417636502 m 1,40,41
 144.980269297 424.625853196 144.980269297 424.625853196 157.024985737 436.670569636 c 128,-1,42
 169.069702177 448.715286076 169.069702177 448.715286076 175.271712927 453.898632344 c 1,43,44
 164.548778893 447.163839659 164.548778893 447.163839659 155.24507334 439.009818362 c 0,45,46
 147.638891199 430.331192006 147.638891199 430.331192006 141.267638107 420.417636502 c 1,40,41
377.18044542 469.297130111 m 1,47,48
 389.538951128 461.655816075 389.538951128 461.655816075 399.603531856 451.591235347 c 2,49,-1
 413.74566748 437.449099723 l 2,50,51
 427.014534195 424.180233008 427.014534195 424.180233008 435.698008879 406.892072494 c 1,52,53
 426.785845099 430.049134966 426.785845099 430.049134966 411.341805129 447.995375227 c 0,54,55
 396.382248685 460.817284807 396.382248685 460.817284807 377.18044542 469.297130111 c 1,47,48
EndSplineSet
EndChar

StartChar: i
Encoding: 105 105 76
Width: 550
GlyphClass: 2
Flags: W
LayerCount: 2
Fore
SplineSet
238.857864376 665 m 1,0,-1
 238.857864376 697 l 1,1,-1
 238.857864376 711.142135624 l 1,2,-1
 253 711.142135624 l 1,3,-1
 286 711.142135624 l 1,4,-1
 300.142135624 711.142135624 l 1,5,-1
 300.142135624 697 l 1,6,-1
 300.142135624 665 l 1,7,-1
 300.142135624 650.857864376 l 1,8,-1
 286 650.857864376 l 1,9,-1
 253 650.857864376 l 1,10,-1
 238.857864376 650.857864376 l 1,11,-1
 238.857864376 665 l 1,0,-1
183.857864376 2.6645352591e-15 m 1,12,-1
 183.857864376 24 l 1,13,-1
 183.857864376 38.1421356237 l 1,14,-1
 198 38.1421356237 l 1,15,-1
 245.857864376 38.1421356237 l 1,16,-1
 245.857864376 456.857864376 l 1,17,-1
 197 456.857864376 l 1,18,-1
 182.857864376 456.857864376 l 1,19,-1
 182.857864376 471 l 1,20,-1
 182.857864376 495 l 1,21,-1
 182.857864376 509.142135624 l 1,22,-1
 299.142135624 509.142135624 l 1,23,-1
 299.142135624 38.1421356237 l 1,24,-1
 344 38.1421356237 l 1,25,-1
 358.142135624 38.1421356237 l 1,26,-1
 358.142135624 24 l 1,27,-1
 358.142135624 8.881784197e-16 l 1,28,-1
 358.142135624 -14.1421356237 l 1,29,-1
 183.857864376 -14.1421356237 l 1,30,-1
 183.857864376 2.6645352591e-15 l 1,12,-1
267.142135624 682.857864376 m 1,31,-1
 267.142135624 679.142135624 l 1,32,-1
 271.857864376 679.142135624 l 1,33,-1
 271.857864376 682.857864376 l 1,34,-1
 267.142135624 682.857864376 l 1,31,-1
EndSplineSet
EndChar

StartChar: j
Encoding: 106 106 77
Width: 550
GlyphClass: 2
Flags: W
LayerCount: 2
Fore
SplineSet
260.857864376 666 m 1,0,-1
 260.857864376 697 l 1,1,-1
 260.857864376 711.142135624 l 1,2,-1
 275 711.142135624 l 1,3,-1
 309 711.142135624 l 1,4,-1
 323.142135624 711.142135624 l 1,5,-1
 323.142135624 697 l 1,6,-1
 323.142135624 666 l 1,7,-1
 323.142135624 651.857864376 l 1,8,-1
 309 651.857864376 l 1,9,-1
 275 651.857864376 l 1,10,-1
 260.857864376 651.857864376 l 1,11,-1
 260.857864376 666 l 1,0,-1
319.142135624 509.142135624 m 1,12,-1
 319.142135624 -61 l 2,13,14
 319.142135624 -122 319.142135624 -122 285.642135624 -163 c 0,15,16
 282.596681078 -166.727272727 282.596681078 -166.727272727 265.066115702 -184.257838103 c 0,17,18
 231 -218 231 -218 163 -218.142135624 c 2,19,-1
 130 -218.142135624 l 1,20,-1
 115.857864376 -218.142135624 l 1,21,-1
 115.857864376 -204 l 1,22,-1
 115.857864376 -181 l 1,23,-1
 115.857864376 -166.857864376 l 1,24,-1
 130 -166.857864376 l 1,25,-1
 163 -166.857864376 l 2,26,27
 212.721312042 -166.857864376 212.721312042 -166.857864376 241.312634812 -144.283089728 c 1,28,29
 265.857863296 -113.253311532 265.857863296 -113.253311532 265.857864376 -56 c 2,30,-1
 265.857864376 457.857864376 l 1,31,-1
 185.857864376 457.857864376 l 1,32,-1
 185.857864376 472 l 1,33,-1
 185.857864376 495 l 1,34,-1
 185.857864376 509.142135624 l 1,35,-1
 319.142135624 509.142135624 l 1,12,-1
289.142135624 682.857864376 m 1,36,-1
 289.142135624 680.142135624 l 1,37,-1
 294.857864376 680.142135624 l 1,38,-1
 294.857864376 682.857864376 l 1,39,-1
 289.142135624 682.857864376 l 1,36,-1
257.622777947 -162.674817665 m 0,40,41
 266.086005364 -152.255541135 266.086005364 -152.255541135 272.394096226 -140.549616647 c 1,42,43
 268.08674183 -146.62150747 268.08674183 -146.62150747 262.926286296 -151.78196503 c 2,44,-1
 248.784150673 -165.924100653 l 2,45,46
 243.654834888 -171.053416438 243.654834888 -171.053416438 237.682682184 -175.282265747 c 1,47,48
 248.638930468 -169.952859887 248.638930468 -169.952859887 257.622777947 -162.674817665 c 0,40,41
EndSplineSet
EndChar

StartChar: k
Encoding: 107 107 78
Width: 550
GlyphClass: 2
Flags: W
LayerCount: 2
Fore
SplineSet
472 -14.1421356237 m 1,0,-1
 467.285954792 -14.1421356237 l 1,1,-1
 275.775865911 273.122997698 l 1,2,-1
 162.142135624 149 l 1,3,-1
 162.142135624 -14.1421356237 l 1,4,-1
 148 -14.1421356237 l 1,5,-1
 123 -14.1421356237 l 1,6,-1
 108.857864376 -14.1421356237 l 1,7,-1
 108.857864376 735.142135624 l 1,8,-1
 123 735.142135624 l 1,9,-1
 148 735.142135624 l 1,10,-1
 162.142135624 735.142135624 l 1,11,-1
 162.142135624 213.748057941 l 1,12,-1
 433.866816056 509.142135624 l 1,13,-1
 435 509.142135624 l 1,14,-1
 465 509.142135624 l 1,15,-1
 492.067743452 509.142135624 l 1,16,-1
 309.142135624 309 l 1,17,-1
 522.478691181 -14.1421356237 l 1,18,-1
 499 -14.1421356237 l 1,19,-1
 472 -14.1421356237 l 1,0,-1
353.862197135 198.419907733 m 1,20,-1
 280.857864376 309 l 1,21,-1
 437.932256548 480.857864376 l 1,22,-1
 436.133183944 480.857864376 l 1,23,-1
 137.142135624 155.822299652 l 1,24,-1
 137.142135624 152.587434747 l 1,25,-1
 280.224134089 308.877002302 l 1,26,-1
 353.862197135 198.419907733 l 1,20,-1
EndSplineSet
EndChar

StartChar: l
Encoding: 108 108 79
Width: 550
GlyphClass: 2
Flags: W
LayerCount: 2
Fore
SplineSet
225.857864376 122 m 1,0,-1
 225.857864376 683.857864376 l 1,1,-1
 218.857864376 683.857864376 l 1,2,-1
 218.857864376 698 l 1,3,-1
 218.857864376 722 l 1,4,-1
 218.857864376 736.142135624 l 1,5,-1
 233 736.142135624 l 1,6,-1
 265 736.142135624 l 1,7,-1
 279.142135624 736.142135624 l 1,8,-1
 279.142135624 124 l 2,9,10
 279.137420158 123.353110372 279.137420158 123.353110372 279.133126604 122.71040498 c 0,11,12
 279.133126604 82.9692379877 279.133126604 82.9692379877 297.162553063 59.2263634925 c 1,13,14
 324.210836163 38.5947643859 324.210836163 38.5947643859 374 38.1421356237 c 2,15,-1
 388.142135624 38.0135707544 l 1,16,-1
 388.142135624 24 l 1,17,-1
 388.142135624 8.881784197e-16 l 1,18,-1
 388.142135624 -16.0188534913 l 1,19,-1
 374 -14.1421356237 l 1,20,-1
 365 -12.9477996862 l 2,21,22
 363.788158635 -12.9593784518 363.788158635 -12.9593784518 362.588065747 -12.9593784518 c 0,23,24
 300.84810637 -12.9593784518 300.84810637 -12.9593784518 270.202712036 17.686015882 c 2,25,-1
 256.060576412 31.8281515058 l 1,26,-1
 225.857864376 122 l 1,0,-1
312.112413884 21.8853762991 m 1,27,28
 299.032432039 28.1128933551 299.032432039 28.1128933551 289.583196351 37.5621290433 c 2,29,-1
 275.441060728 51.7042646671 l 2,30,31
 266.330905369 60.8144200259 266.330905369 60.8144200259 260.595596996 72.9192235898 c 1,32,33
 266.468936849 53.4790951996 266.468936849 53.4790951996 277.687643044 39.3071178539 c 1,34,35
 292.132014563 27.8682179137 292.132014563 27.8682179137 312.112413884 21.8853762991 c 1,27,28
EndSplineSet
EndChar

StartChar: m
Encoding: 109 109 80
Width: 550
GlyphClass: 2
Flags: W
LayerCount: 2
Fore
SplineSet
392 514.142135624 m 0,0,1
 440.347222222 514.142135624 440.347222222 514.142135624 466.199556327 488.289801519 c 2,2,-1
 480.341691951 474.147665895 l 2,3,4
 486.037968957 468.451388889 486.037968957 468.451388889 490.642135624 461.5 c 0,5,6
 516.142135624 423 516.142135624 423 516.142135624 364 c 2,7,-1
 516.142135624 -14.1421356237 l 1,8,-1
 502 -14.1421356237 l 1,9,-1
 477 -14.1421356237 l 1,10,-1
 462.857864376 -14.1421356237 l 1,11,-1
 462.857864376 367 l 2,12,13
 462.857864376 420.902246133 462.857864376 420.902246133 441.548746002 448.399714564 c 1,14,15
 421.490231144 463.857863399 421.490231144 463.857863399 393 463.857864376 c 0,16,17
 359.024640353 463.857864376 359.024640353 463.857864376 334.194002351 443.478199685 c 1,18,19
 301.142135624 403.76159641 301.142135624 403.76159641 301.142135624 326 c 2,20,-1
 301.142135624 -14.1421356237 l 1,21,-1
 287 -14.1421356237 l 1,22,-1
 263 -14.1421356237 l 1,23,-1
 248.857864376 -14.1421356237 l 1,24,-1
 248.857864376 347 l 2,25,26
 248.857864376 416.265027669 248.857864376 416.265027669 223.976427932 448.906817825 c 1,27,28
 204.186367103 463.859190409 204.186367103 463.859190409 174.558888626 463.859190409 c 0,29,30
 174.279880523 463.859190409 174.279880523 463.859190409 174 463.857864376 c 0,31,32
 145.099118391 463.857864376 145.099118391 463.857864376 122.353789147 445.154457251 c 1,33,34
 88.1421356237 404.276586116 88.1421356237 404.276586116 88.1421356237 326 c 2,35,-1
 88.1421356237 -14.1421356237 l 1,36,-1
 74 -14.1421356237 l 1,37,-1
 50 -14.1421356237 l 1,38,-1
 35.8578643763 -14.1421356237 l 1,39,-1
 35.8578643763 509.142135624 l 1,40,-1
 50 509.142135624 l 1,41,-1
 74 509.142135624 l 1,42,-1
 88.1421356237 509.142135624 l 1,43,-1
 88.1421356237 495 l 1,44,-1
 88.1421356237 468.9901536 l 1,45,-1
 101.993079585 482.841097561 l 2,46,47
 133.294117647 514.142135624 133.294117647 514.142135624 175 514.142135624 c 0,48,49
 222.509202454 514.142135624 222.509202454 514.142135624 248.449809929 488.201528149 c 2,50,-1
 262.591945553 474.059392525 l 2,51,52
 273.624538858 463.02679922 273.624538858 463.02679922 280.755765317 447.302021463 c 1,53,54
 287.099705442 457.567422461 287.099705442 457.567422461 295.404376004 465.872093023 c 2,55,-1
 309.546511628 480.014228647 l 2,56,57
 315.941860465 486.409577484 315.941860465 486.409577484 323.5 491.642135624 c 0,58,59
 356 514.142135624 356 514.142135624 392 514.142135624 c 0,0,1
470.31343401 447.772853465 m 1,60,61
 464.781945354 458.755558525 464.781945354 458.755558525 458.707767431 466.593082696 c 0,62,63
 450.901036381 472.615517532 450.901036381 472.615517532 441.456115584 476.755256691 c 1,64,65
 445.36878075 473.749825462 445.36878075 473.749825462 455.537811128 463.580795084 c 0,66,67
 467.081491693 452.037114519 467.081491693 452.037114519 470.31343401 447.772853465 c 1,60,61
280 396.857864376 m 1,68,-1
 277 396.857864376 l 1,69,-1
 273.105176544 396.857864376 l 1,70,71
 275.231052726 385.294754457 275.231052726 385.294754457 276.237435184 372.083850686 c 1,72,73
 278.353672063 385.256967077 278.353672063 385.256967077 281.79506482 396.857864376 c 1,74,-1
 280 396.857864376 l 1,68,-1
74 415.857864376 m 1,75,-1
 64.1421356237 415.857864376 l 1,76,-1
 64.1421356237 377.167655498 l 1,77,78
 68.1250470212 398.651416973 68.1250470212 398.651416973 75.810707914 415.857864376 c 1,79,-1
 74 415.857864376 l 1,75,-1
109.364101608 461.315942515 m 1,80,81
 109.468954249 461.315942515 109.468954249 461.315942515 110.58945091 462.331586534 c 1,82,83
 109.972996485 461.827695492 109.972996485 461.827695492 109.364101608 461.315942515 c 1,80,81
225.714379597 475.841969166 m 1,84,85
 228.698405771 473.448275307 228.698405771 473.448275307 238.522467984 463.624213094 c 128,-1,86
 248.346530197 453.800150882 248.346530197 453.800150882 250.865775545 450.68385714 c 1,87,88
 246.556201537 459.35799961 246.556201537 459.35799961 240.978081599 466.506459283 c 0,89,90
 233.979526217 471.935880442 233.979526217 471.935880442 225.714379597 475.841969166 c 1,84,85
308.625704127 446.626041019 m 1,91,92
 310.662295046 448.901775803 310.662295046 448.901775803 326.9151069 465.154587656 c 1,93,94
 322.354548518 462.844205549 322.354548518 462.844205549 316.972949758 458.445651731 c 0,95,96
 312.43800036 452.897172845 312.43800036 452.897172845 308.625704127 446.626041019 c 1,91,92
EndSplineSet
EndChar

StartChar: n
Encoding: 110 110 81
Width: 550
GlyphClass: 2
Flags: W
LayerCount: 2
Fore
SplineSet
422.857864376 -14.1421356237 m 1,0,-1
 422.857864376 327 l 2,1,2
 422.857864376 392.463665891 422.857864376 392.463665891 391.162755359 430.145199245 c 1,3,4
 351.167913903 463.858458622 351.167913903 463.858458622 283.568107151 463.858458622 c 0,5,6
 283.284296864 463.858458622 283.284296864 463.858458622 283 463.857864376 c 0,7,8
 216.704960706 463.857864376 216.704960706 463.857864376 169.485581219 421.467508214 c 1,9,10
 126.142136559 373.116880466 126.142136559 373.116880466 126.142135624 302 c 2,11,-1
 126.142135624 -14.1421356237 l 1,12,-1
 112 -14.1421356237 l 1,13,-1
 88 -14.1421356237 l 1,14,-1
 73.8578643763 -14.1421356237 l 1,15,-1
 73.8578643763 509.142135624 l 1,16,-1
 88 509.142135624 l 1,17,-1
 112 509.142135624 l 1,18,-1
 126.142135624 509.142135624 l 1,19,-1
 126.142135624 439.21634359 l 1,20,21
 129.360469066 442.875153709 129.360469066 442.875153709 146.493960023 460.008644667 c 128,-1,22
 163.62745098 477.142135624 163.62745098 477.142135624 185.5 488.642135624 c 0,23,24
 234 514.142135624 234 514.142135624 285 514.142135624 c 0,25,26
 373.0125 514.142135624 373.0125 514.142135624 417.605546875 469.549088749 c 2,27,-1
 431.747682499 455.406953125 l 2,28,29
 475 412 475 412 475.142135624 334 c 2,30,-1
 475.142135624 -14.1421356237 l 1,31,-1
 461 -14.1421356237 l 1,32,-1
 437 -14.1421356237 l 1,33,-1
 422.857864376 -14.1421356237 l 1,0,-1
114 383.857864376 m 1,34,-1
 112 383.857864376 l 1,35,-1
 102.142135624 383.857864376 l 1,36,-1
 102.142135624 344.467376744 l 1,37,38
 106.597621456 365.379510576 106.597621456 365.379510576 115.686650043 383.857864376 c 1,39,-1
 114 383.857864376 l 1,34,-1
140.267638107 420.417636502 m 1,40,41
 143.980269297 424.625853196 143.980269297 424.625853196 156.024985737 436.670569636 c 128,-1,42
 168.069702177 448.715286076 168.069702177 448.715286076 174.271712927 453.898632344 c 1,43,44
 163.548778893 447.163839659 163.548778893 447.163839659 154.24507334 439.009818362 c 0,45,46
 146.638891199 430.331192006 146.638891199 430.331192006 140.267638107 420.417636502 c 1,40,41
376.18044542 469.297130111 m 1,47,48
 388.538951128 461.655816075 388.538951128 461.655816075 398.603531856 451.591235347 c 2,49,-1
 412.74566748 437.449099723 l 2,50,51
 426.014534195 424.180233008 426.014534195 424.180233008 434.698008879 406.892072494 c 1,52,53
 425.785845099 430.049134966 425.785845099 430.049134966 410.341805129 447.995375227 c 0,54,55
 395.382248685 460.817284807 395.382248685 460.817284807 376.18044542 469.297130111 c 1,47,48
EndSplineSet
EndChar

StartChar: o
Encoding: 111 111 82
Width: 550
GlyphClass: 2
Flags: W
LayerCount: 2
Fore
SplineSet
277 515.142135624 m 0,0,1
 362.764705882 515.142135624 362.764705882 515.142135624 412.583910035 465.322931471 c 2,2,-1
 426.726045658 451.180795848 l 2,3,4
 439.642135624 438.264705882 439.642135624 438.264705882 450.142135624 422 c 0,5,6
 486.142135624 365 486.142135624 365 486.142135624 244 c 0,7,8
 486.142135624 105.744897959 486.142135624 105.744897959 423.928162279 43.5309246147 c 2,9,-1
 409.786026656 29.388788991 l 2,10,11
 360.255102041 -20.1421356237 360.255102041 -20.1421356237 273.62755102 -20.1421356237 c 128,-1,12
 187 -20.1421356237 187 -20.1421356237 140 26.8578643763 c 2,13,-1
 125.857864376 41 l 2,14,15
 62.8578643763 104 62.8578643763 104 62.8578643763 251 c 0,16,17
 62.8578643763 385.532894737 62.8578643763 385.532894737 124.813802742 447.488833102 c 0,18,19
 142.855263158 465.530293518 142.855263158 465.530293518 147 469.142135624 c 0,20,21
 200 515.142135624 200 515.142135624 277 515.142135624 c 0,0,1
276.498303965 464.85839328 m 0,22,23
 276.249315171 464.85839328 276.249315171 464.85839328 276 464.857864376 c 0,24,25
 210.470436993 464.857864376 210.470436993 464.857864376 166.6975506 426.179327169 c 1,26,27
 116.142137177 368.801694763 116.142137177 368.801694763 116.1421364 245.979344692 c 128,-1,28
 116.142135624 123.15699462 116.142135624 123.15699462 165.48373171 66.1586827762 c 1,29,30
 207.837990785 29.1415940127 207.837990785 29.1415940127 274.489745434 29.1415940127 c 0,31,32
 274.744694964 29.1415940127 274.744694964 29.1415940127 275 29.1421356237 c 0,33,34
 342.02463944 29.1421356237 342.02463944 29.1421356237 385.888962667 67.4764510033 c 1,35,36
 432.858291914 121.835995381 432.858291914 121.835995381 432.858291914 244.260661561 c 0,37,38
 432.858291914 244.630020999 432.858291914 244.630020999 432.857864376 245 c 0,39,40
 432.857864376 363 432.857864376 363 398.857864376 411 c 0,41,42
 392.979840829 419.504374493 392.979840829 419.504374493 386.429250385 426.945154937 c 0,43,44
 343.161605537 464.85839328 343.161605537 464.85839328 276.498303965 464.85839328 c 0,22,23
371.400310002 466.782954014 m 1,45,46
 383.300296703 458.814811651 383.300296703 458.814811651 393.677136596 448.437972001 c 2,47,-1
 407.81927222 434.295836377 l 2,48,49
 421.731690741 420.383417856 421.731690741 420.383417856 431.262109815 404.721982677 c 1,50,51
 421.433000817 425.684358548 421.433000817 425.684358548 405.331811977 443.858816677 c 0,52,53
 389.922145625 457.477564112 389.922145625 457.477564112 371.400310002 466.782954014 c 1,45,46
421.409330112 76.6926005026 m 1,54,55
 415.097603007 67.9035193315 415.097603007 67.9035193315 407.732960383 60.5388767077 c 2,56,-1
 393.59082476 46.396741084 l 2,57,58
 387.336012683 40.1419290076 387.336012683 40.1419290076 380.562158192 34.7462216194 c 1,59,60
 392.329659362 41.8805501066 392.329659362 41.8805501066 402.60139488 50.9280671765 c 0,61,62
 412.980059932 62.5962370058 412.980059932 62.5962370058 421.409330112 76.6926005026 c 1,54,55
180.038268618 26.7692602911 m 1,63,64
 168.234611704 34.6232521755 168.234611704 34.6232521755 158 44.8578643763 c 2,65,-1
 143.857864376 59 l 2,66,67
 129.959160566 72.8987038098 129.959160566 72.8987038098 119.509990768 91.5405179065 c 1,68,69
 131.023490489 66.8567273184 131.023490489 66.8567273184 147.209906706 48.4034935305 c 0,70,71
 161.959392709 35.5274118782 161.959392709 35.5274118782 180.038268618 26.7692602911 c 1,63,64
118.165777014 397.044357165 m 1,72,73
 129.369845014 417.565313971 129.369845014 417.565313971 145.33039771 433.525866667 c 2,74,-1
 159.472533333 447.66800229 l 2,75,76
 166.10415143 454.299620387 166.10415143 454.299620387 173.279767443 459.964131093 c 1,77,78
 158.805089214 451.283482229 158.805089214 451.283482229 146.228768107 440.181427851 c 0,79,80
 129.72505204 421.508922422 129.72505204 421.508922422 118.165777014 397.044357165 c 1,72,73
EndSplineSet
EndChar

StartChar: p
Encoding: 112 112 83
Width: 550
GlyphClass: 2
Flags: W
LayerCount: 2
Fore
SplineSet
128.142135624 252 m 0,0,1
 128.142135624 147 128.142135624 147 167.642135624 82 c 0,2,3
 177.224503124 66.2315471516 177.224503124 66.2315471516 181.918120856 62.2217919046 c 0,4,5
 217.836483476 31.1414914909 217.836483476 31.1414914909 274.483802306 31.1414914909 c 0,6,7
 274.741686351 31.1414914909 274.741686351 31.1414914909 275 31.1421356237 c 0,8,9
 337.526807572 31.1421356237 337.526807572 31.1421356237 376.359058677 64.4581178289 c 1,10,11
 425.858270188 121.835712218 425.858270188 121.835712218 425.858270188 248.275370995 c 0,12,13
 425.858270188 282.995536076 425.858270188 282.995536076 423.357864376 310.5 c 128,-1,14
 420.857864376 338 420.857864376 338 411.357864376 372 c 0,15,16
 400.555256458 410.661965183 400.555256458 410.661965183 381.210482769 433.790810769 c 1,17,18
 340.868709991 467.857864376 340.868709991 467.857864376 281 467.857864376 c 0,19,20
 220.681482907 467.857864376 220.681482907 467.857864376 180.096129723 432.746345813 c 0,21,22
 167.46298003 418.110073676 167.46298003 418.110073676 159.142135624 400 c 0,23,24
 142.142135624 363 142.142135624 363 135.142135624 327 c 128,-1,25
 128.142135624 291 128.142135624 291 128.142135624 252 c 0,0,1
89 509.142135624 m 1,26,-1
 114 509.142135624 l 1,27,-1
 128.142135624 509.142135624 l 1,28,-1
 128.142135624 441.283121872 l 1,29,30
 133.825226154 448.221799647 133.825226154 448.221799647 154.125940968 468.522514462 c 0,31,32
 202.74556213 517.142135624 202.74556213 517.142135624 281.565388069 517.142135624 c 128,-1,33
 360.385214008 517.142135624 360.385214008 517.142135624 403.012293903 474.515055729 c 2,34,-1
 417.154429527 460.372920105 l 2,35,36
 428.760812667 448.766536965 428.760812667 448.766536965 437.642135624 434 c 0,37,38
 479.142135624 365 479.142135624 365 479.142135624 245 c 0,39,40
 479.142135624 147.292682927 479.142135624 147.292682927 439.642135624 76 c 0,41,42
 429.545120698 57.776119403 429.545120698 57.776119403 415.081431681 43.3124303854 c 2,43,-1
 400.939296057 29.1702947617 l 2,44,45
 353.626865672 -18.1421356237 353.626865672 -18.1421356237 275 -18.1421356237 c 0,46,47
 202.110429448 -18.1421356237 202.110429448 -18.1421356237 155.157025104 28.8112687197 c 2,48,-1
 141.014889481 42.9534043434 l 2,49,50
 134.314422689 49.6538711346 134.314422689 49.6538711346 128.142135624 57.31052536 c 1,51,-1
 128.142135624 -214.142135624 l 1,52,-1
 114 -214.142135624 l 1,53,-1
 89 -214.142135624 l 1,54,-1
 74.8578643763 -214.142135624 l 1,55,-1
 74.8578643763 509.142135624 l 1,56,-1
 89 509.142135624 l 1,26,-1
115 383.857864376 m 1,57,-1
 114 383.857864376 l 1,58,-1
 103.142135624 383.857864376 l 1,59,-1
 103.142135624 304.01998456 l 1,60,61
 109.591546943 353.714485587 109.591546943 353.714485587 130.857864376 400 c 0,62,63
 141.319402838 422.769230769 141.319402838 422.769230769 158.597509347 440.047337278 c 0,64,65
 177.056534262 458.506362193 177.056534262 458.506362193 181.798939331 462.480474611 c 1,66,67
 171.037355632 455.65056992 171.037355632 455.65056992 161.353697306 447.052194467 c 0,68,69
 142.914361395 426.354585754 142.914361395 426.354585754 129.142135624 398 c 2,70,-1
 122.273098321 383.857864376 l 1,71,-1
 115 383.857864376 l 1,57,-1
372.291069707 468.973803146 m 1,72,73
 381.355120758 462.543111201 381.355120758 462.543111201 388.685008923 455.213224261 c 0,74,75
 406.388954613 437.509278572 406.388954613 437.509278572 409.357864376 434 c 1,76,77
 403.181971995 444.268351189 403.181971995 444.268351189 395.688369351 453.008601141 c 0,78,79
 384.996739462 462.159006751 384.996739462 462.159006751 372.291069707 468.973803146 c 1,72,73
402.896333118 62.468617201 m 1,80,81
 400.40571444 59.6867526197 400.40571444 59.6867526197 383.65194881 42.9329869898 c 1,82,83
 388.835721839 46.5931267941 388.835721839 46.5931267941 393.607324948 50.6081907427 c 0,84,85
 398.548917338 56.2825778225 398.548917338 56.2825778225 402.896333118 62.468617201 c 1,80,81
162.375186267 50.2906558902 m 0,86,87
 168.311966816 45.1384277509 168.311966816 45.1384277509 174.630935641 40.6780915261 c 1,88,-1
 160.488800017 54.8202271498 l 2,89,90
 148.727631818 66.5813953488 148.727631818 66.5813953488 139.357864376 82 c 1,91,92
 149.86380168 64.3300535654 149.86380168 64.3300535654 162.375186267 50.2906558902 c 0,86,87
103.142135624 115.142135624 m 1,93,-1
 114 115.142135624 l 1,94,-1
 115 115.142135624 l 1,95,-1
 122.273098321 115.142135624 l 1,96,-1
 126.984398594 105.442399767 l 1,97,98
 109.296661777 144.267701595 109.296661777 144.267701595 103.142135624 194.772204096 c 1,99,-1
 103.142135624 115.142135624 l 1,93,-1
EndSplineSet
EndChar

